<svg id="Layer_1" data-name="Layer 1" xmlns="http://www.w3.org/2000/svg" viewBox="0 0 92.05 122.88"><title>bubble-tea</title><path d="M78.82,44.76H12.42l8.41,64.35,0,.22c.15,2.82.85,4.86,2.12,6.1s3.19,1.76,5.87,1.68H55.73l2.29,0c3.7.09,8,.19,10.17-1.78,1.9-1.72,2.24-5.24,2.56-8.45h0c.08-.81.15-1.6.26-2.42l7.81-59.72ZM33.43,71.52a2,2,0,1,1-1.75,3.54,3.85,3.85,0,0,0-2.38-.34,3.79,3.79,0,0,0-2.08,1.16,3.72,3.72,0,0,0-1,2.13,3.76,3.76,0,0,0,.48,2.32,2,2,0,1,1-3.41,2,7.7,7.7,0,0,1,1-9.1,7.62,7.62,0,0,1,4.27-2.36,7.74,7.74,0,0,1,4.84.67Zm15.29-8.8a2,2,0,1,1-3.38,2,3.81,3.81,0,0,0-1.82-1.55,3.74,3.74,0,0,0-2.39-.14,3.72,3.72,0,0,0-2.79,3.49,2,2,0,1,1-3.94-.16,7.72,7.72,0,0,1,14.32-3.68ZM55.5,70a2,2,0,1,1-3.9-.55,7.64,7.64,0,0,1,3-5.09,7.71,7.71,0,0,1,10,.62l.12.12a7.71,7.71,0,0,1,2.13,4.1,2,2,0,1,1-3.89.68,3.8,3.8,0,0,0-1-2l-.08-.08a3.86,3.86,0,0,0-2.1-1A3.78,3.78,0,0,0,55.5,70ZM35.4,94.79a7.74,7.74,0,0,1,5.46,2.26h0a7.71,7.71,0,0,1,0,10.93l-.12.12a7.73,7.73,0,0,1-10.8-.12h0a7.71,7.71,0,0,1,0-10.93l.12-.11a7.7,7.7,0,0,1,5.34-2.15Zm2.67,5.06a3.79,3.79,0,0,0-5.26-.08l-.08.08A3.78,3.78,0,0,0,38,105.27l.08-.08a3.79,3.79,0,0,0,0-5.34ZM54.9,94.79a7.72,7.72,0,1,1-5.47,2.26,7.74,7.74,0,0,1,5.47-2.26Zm2.66,5.06a3.77,3.77,0,0,0-6.43,2.67,3.76,3.76,0,0,0,3.77,3.77,3.77,3.77,0,0,0,2.66-6.44Zm-16-23.1A7.68,7.68,0,0,1,47,79l.12.13A7.69,7.69,0,0,1,47,89.93h0a7.73,7.73,0,0,1-10.92,0L36,89.81A7.69,7.69,0,0,1,36.12,79h0a7.69,7.69,0,0,1,5.46-2.26Zm2.67,5.06a3.77,3.77,0,0,0-5.42,5.25l.08.08a3.77,3.77,0,0,0,5.42-5.25l-.08-.08Zm15.41-5.06A7.71,7.71,0,0,1,65.12,79h0a7.73,7.73,0,1,1-5.47-2.27Zm2.67,5a3.75,3.75,0,0,0-2.67-1.1A3.8,3.8,0,0,0,57,81.81a3.77,3.77,0,1,0,5.35,0ZM52.7,26.36,59.61,0l9.2,2.38-6.29,24h4.23c2.6,0,1.39,0,1.68,0,6.22,0,9.78-.06,13.24,4.81l.15.2c2,3.16,6.52,2.24,8.59,5.38a7.67,7.67,0,0,1,1.64,4.07c0,2.26-1.15,3.91-4.62,3.91H84.57l-7.91,60.48c-.08.67-.16,1.45-.24,2.25-.42,4.26-.88,8.94-4.38,12.12-3.85,3.5-9.4,3.37-14.16,3.26-.52,0-1.05,0-2.15,0H28.93c-4.26.12-7.56-1-9.93-3.28s-3.6-5.54-3.84-9.81l-8.5-65H4.6c-3.42,0-4.6-1.66-4.6-4,0-1.81,1.2-3.6,2.05-4.85l.36-.55L4,32.81c4-6.54,5-6.53,12.23-6.46Z"/></svg>