<svg xmlns="http://www.w3.org/2000/svg" shape-rendering="geometricPrecision" text-rendering="geometricPrecision" image-rendering="optimizeQuality" fill-rule="evenodd" clip-rule="evenodd" viewBox="0 0 512 461"><path d="m208.78 75.91 27.2-15.51c.3-.17.61-.31.92-.44l-7.89-20.3c-1.86-7.32.07-10.56 4.85-13.45l18.5-8.66c3.15-1.15 6.3-1.69 9.44-1.19 3.05.91 6.34 2.02 10.06 3.13 2.71.81 4.42 1.24 6.92 2.71 2.11 1.25 3.88 2.77 5.07 4.79l3 8.44c3.68 10.33 6.44 17.89 8.56 26.8l-4.47-45.7c-1.17-5.24.32-8.7 3.54-11.02L328.34 0l18.11 9.45c2.71 2.3 4.21 5.42 4.33 9.45l5.07 61.45 13.85-38.67c1.46-2.48 3.69-4.44 6.77-5.84 5.23-2.62 10.46-4.47 15.68-4.93l6.47.31 19.07 8.62c5.08 2.91 7.88 7.12 6.77 13.53l-8.17 21.07c.34.13.67.29.99.47l27.21 15.51c1.81 1.41 3.34 2.98 4.22 4.77 5.63-10.48 11.18-20.31 16.41-29.31.89-1.53 2.36-2.59 4.16-3.29 7.58-2.93 16.97-1.5 23.47 2.96l14.23 9.75c4.17 3.23 6.89 7.36 3.47 12.93-1.49 2.41-3.22 4.62-4.7 6.92-14.62 22.73-25.92 42.9-34.37 64.1 1 .08 2.01.33 2.97.78a8.42 8.42 0 0 1 4.72 9.15c-2.39 12.91-4.21 36.63-6.37 64.76-6.93 90.27-17.23 224.39-67.81 224.86l-118.19 1.12c2.85-5.64 4.85-11.4 6.2-16.92l111.86-1.06c35.04-.32 44.63-125.21 51.09-209.25l1.13-18.62-.62-.06-5.44 3.44c-11.11 14.64-23.15 26.5-35.88 35.72-21.32 15.46-44.54 23.54-68.51 24.92-23.76 1.36-48.17-3.91-72.14-15.15a193.24 193.24 0 0 1-13.75-7.12c-6.46-4.99-13.78-9.8-21.91-14.25-16.19-11.89-31.89-26.51-46.73-43.62.89 7.94 1.81 16.68 2.78 26.01-5.59-1.54-11.39-2.89-17.39-4.03-2.23-21.24-4.18-38.93-6.24-49.85-.86-4.58 2.16-9 6.74-9.85 1.3-.25 2.59-.18 3.79.15-6.12-27.69-14.57-49.27-34.17-79.74-1.48-2.31-3.21-4.51-4.69-6.92-3.42-5.57-.7-9.7 3.46-12.93l14.23-9.75c6.5-4.46 15.9-5.89 23.48-2.96 1.79.69 3.26 1.75 4.15 3.29 5.34 9.2 10.71 19.44 15.97 30.41.72-2.25 2.5-4.18 4.67-5.87zM10.7 414.1c80.04-.16 160.02-.24 240.06 0 4.77.02 8.67 3.9 8.67 8.66 0 12.93-5.43 38.24-34.68 38.24H36.7c-29.26 0-34.69-25.31-34.69-38.24.01-4.76 3.91-8.64 8.69-8.66zm179.22-133.38c7.35 0 13.34 5.96 13.34 13.34 0 7.35-5.96 13.34-13.34 13.34-7.36 0-13.34-5.96-13.34-13.34.02-7.36 5.98-13.34 13.34-13.34zm-116.29.94c7.35 0 13.34 5.96 13.34 13.34 0 7.35-5.97 13.34-13.34 13.34-7.36 0-13.34-5.96-13.34-13.34s5.96-13.34 13.34-13.34zm57.67-12.72c7.36 0 13.34 5.96 13.34 13.34 0 7.36-5.96 13.34-13.34 13.34-7.36 0-13.34-5.96-13.34-13.34.02-7.38 5.98-13.34 13.34-13.34zm108.12 68.98H24.82C11.17 337.92 0 326.77 0 313.13c0-35.33 70.37-60.98 129.46-61.58 116.26-1.16 168.45 86.37 109.96 86.37zm19.43 34.01c.36.62.56 1.29.56 2 0 .45-.03.94-.05 1.43.05.5.05.99.05 1.44 0 .71-.2 1.37-.56 2-1.97 8.6-9.87 19.86-34.1 19.86H36.7c-24.26 0-32.13-11.24-34.11-19.86-.36-.63-.56-1.29-.56-2 0-.45.03-.94.05-1.44-.05-.49-.05-.98-.05-1.43 0-.71.2-1.38.56-2 1.98-8.6 9.87-19.86 34.11-19.86h97.37l35.9 37.09 35.67-37.09h19.11c24.26.02 32.13 11.26 34.1 19.86zM218.89 86.47l24.76-15c32.12 49.82 43.31 123.34 57.14 188.61l-38.64-28.02c-9.71-50.73-13.18-87.96-43.26-145.59zm-59.47-16.96 18.85-12.44c32.11 49.82 56.65 114.31 66.71 175.77l-29.46-15.48c-6.71-46.92-25.57-103.54-56.1-147.85zm334.42 14.51-18.79-12.41c-32.12 49.82-59.17 100.99-69.23 162.45l31.09-11.21c6.71-46.92 26.4-94.52 56.93-138.83zm-190.7 164.57c-13.27-65.99-24.91-146.76-51.18-210.57l24.41-9.45 24.8 92.46 1.97 127.56zm54.24-147.54 20.01-58.14 24.3 10.77c-15.52 37.28-27.11 77.37-38.31 117.74l-6-70.37zm76.99-.07-24.76-15c-32.11 49.82-43.3 108.82-57.14 174.1l33.28-9.05c9.71-50.73 18.55-92.41 48.62-150.05zm-86.4 145.91.08-.41.03-.16c2.41-11.89 5.2-24.36 8.32-37.04v-.24l.6-2.2c-.17-63.33-3.66-143.77-14.07-190.47l-31.04 4.95c13.32 75.06 14.42 173.65 9.17 247.73l22.71.52c1.47-8.26 2.86-15.81 4.2-22.68zm-89.43-12.09c-7.58-43.33-22.4-96.83-46.64-136.03 18.58 42.21 34.76 91.78 42.03 132.93 1.53 1.06 3.07 2.09 4.61 3.1z"/></svg>