<svg width="1814" height="406" viewBox="0 0 1814 406" fill="none" xmlns="http://www.w3.org/2000/svg">
<path d="M841.078 45H826.342V43.848L830.518 43.416V14.52L826.342 14.088V12.936H841.078V14.088L836.902 14.52V43.416L841.078 43.848V45ZM867.107 12.6L877.667 13.032L877.955 21.768H876.227L874.595 15.48C872.387 14.744 870.259 14.376 868.211 14.376C864.403 14.376 861.315 15.64 858.947 18.168C856.579 20.664 855.395 24.376 855.395 29.304C855.395 34.2 856.547 37.8 858.851 40.104C861.155 42.408 864.051 43.56 867.539 43.56C871.059 43.56 873.603 43.176 875.171 42.408L876.947 36.936H878.483L878.195 43.992C874.195 44.856 870.691 45.288 867.683 45.288C864.707 45.288 862.163 45.048 860.051 44.568C857.939 44.056 855.955 43.24 854.099 42.12C852.243 41 850.787 39.384 849.731 37.272C848.707 35.16 848.195 32.632 848.195 29.688C848.195 26.744 848.723 24.152 849.779 21.912C850.867 19.64 852.323 17.848 854.147 16.536C857.795 13.912 862.115 12.6 867.107 12.6ZM919.655 28.872C919.655 33.672 918.151 37.656 915.143 40.824C912.167 43.96 908.135 45.528 903.047 45.528C897.991 45.528 893.959 43.96 890.951 40.824C887.975 37.656 886.487 33.672 886.487 28.872C886.487 24.072 887.975 20.104 890.951 16.968C893.959 13.8 897.991 12.216 903.047 12.216C908.135 12.216 912.167 13.8 915.143 16.968C918.151 20.104 919.655 24.072 919.655 28.872ZM903.143 44.04C909.287 44.04 912.359 38.984 912.359 28.872C912.359 24.008 911.655 20.264 910.247 17.64C908.871 15.016 906.487 13.704 903.095 13.704C899.703 13.704 897.287 15.016 895.847 17.64C894.439 20.264 893.735 24.008 893.735 28.872C893.735 38.984 896.871 44.04 903.143 44.04ZM951.169 12.936H960.865V14.088L957.505 15.24V45H954.241L932.881 18.696V42.648L936.913 43.848V45H927.313V43.848L930.817 42.648V14.52L926.641 14.088V12.936H935.665L954.865 36.84V15.192L951.169 14.088V12.936ZM970.328 43.368C968.984 42.504 968.312 41.4 968.312 40.056C968.312 38.2 969.784 37.048 972.728 36.6C973.24 39.576 974.328 41.64 975.992 42.792C977.464 43.816 979.016 44.328 980.648 44.328C982.312 44.328 983.736 43.832 984.92 42.84C986.136 41.816 986.744 40.152 986.744 37.848C986.744 36.12 986.12 34.76 984.872 33.768C983.656 32.744 982.104 31.848 980.216 31.08C978.328 30.312 977.048 29.784 976.376 29.496C975.704 29.176 974.84 28.712 973.784 28.104C972.76 27.496 971.992 26.92 971.48 26.376C970.2 24.904 969.56 23.208 969.56 21.288C969.56 18.28 970.68 16.008 972.92 14.472C975.16 12.936 978.28 12.168 982.28 12.168C984.552 12.168 987.192 12.424 990.2 12.936V20.04H988.616L986.696 14.376C985.096 13.864 983.464 13.608 981.8 13.608C980.168 13.608 978.744 14.136 977.528 15.192C976.312 16.216 975.704 17.752 975.704 19.8C975.704 22.136 976.76 23.88 978.872 25.032C979.928 25.576 981.176 26.12 982.616 26.664C984.056 27.208 985.096 27.624 985.736 27.912C986.376 28.168 987.224 28.6 988.28 29.208C989.336 29.784 990.12 30.36 990.632 30.936C991.144 31.512 991.608 32.28 992.024 33.24C992.44 34.168 992.648 35.192 992.648 36.312C992.648 39.032 991.496 41.256 989.192 42.984C986.888 44.712 983.736 45.576 979.736 45.576C975.768 45.576 972.632 44.84 970.328 43.368Z" fill="white"/>
<path d="M540.607 107H539.107C538.933 107 538.793 106.957 538.687 106.87C538.58 106.783 538.5 106.673 538.447 106.54L537.107 103.08H530.677L529.337 106.54C529.29 106.66 529.21 106.767 529.097 106.86C528.983 106.953 528.843 107 528.677 107H527.177L532.907 92.67H534.877L540.607 107ZM531.217 101.68H536.567L534.317 95.85C534.17 95.49 534.027 95.04 533.887 94.5C533.813 94.7733 533.74 95.0267 533.667 95.26C533.6 95.4867 533.533 95.6867 533.467 95.86L531.217 101.68ZM545.71 92.27V107H543.93V92.27H545.71ZM552.428 92.27V107H550.648V92.27H552.428ZM564.612 96.87V107H562.832V96.87H564.612ZM565.012 93.69C565.012 93.8633 564.975 94.0267 564.902 94.18C564.835 94.3267 564.742 94.46 564.622 94.58C564.509 94.6933 564.375 94.7833 564.222 94.85C564.069 94.9167 563.905 94.95 563.732 94.95C563.559 94.95 563.395 94.9167 563.242 94.85C563.095 94.7833 562.962 94.6933 562.842 94.58C562.729 94.46 562.639 94.3267 562.572 94.18C562.505 94.0267 562.472 93.8633 562.472 93.69C562.472 93.5167 562.505 93.3533 562.572 93.2C562.639 93.04 562.729 92.9033 562.842 92.79C562.962 92.67 563.095 92.5767 563.242 92.51C563.395 92.4433 563.559 92.41 563.732 92.41C563.905 92.41 564.069 92.4433 564.222 92.51C564.375 92.5767 564.509 92.67 564.622 92.79C564.742 92.9033 564.835 93.04 564.902 93.2C564.975 93.3533 565.012 93.5167 565.012 93.69ZM576.259 98.67C576.206 98.7433 576.152 98.8 576.099 98.84C576.046 98.88 575.969 98.9 575.869 98.9C575.769 98.9 575.659 98.86 575.539 98.78C575.426 98.6933 575.279 98.6 575.099 98.5C574.919 98.4 574.699 98.31 574.439 98.23C574.186 98.1433 573.872 98.1 573.499 98.1C573.006 98.1 572.569 98.19 572.189 98.37C571.809 98.5433 571.489 98.7967 571.229 99.13C570.976 99.4633 570.782 99.8667 570.649 100.34C570.522 100.813 570.459 101.343 570.459 101.93C570.459 102.543 570.529 103.09 570.669 103.57C570.809 104.043 571.006 104.443 571.259 104.77C571.512 105.09 571.819 105.337 572.179 105.51C572.546 105.677 572.956 105.76 573.409 105.76C573.842 105.76 574.199 105.71 574.479 105.61C574.759 105.503 574.992 105.387 575.179 105.26C575.366 105.133 575.519 105.02 575.639 104.92C575.759 104.813 575.879 104.76 575.999 104.76C576.152 104.76 576.266 104.817 576.339 104.93L576.839 105.58C576.399 106.12 575.849 106.517 575.189 106.77C574.529 107.017 573.832 107.14 573.099 107.14C572.466 107.14 571.876 107.023 571.329 106.79C570.789 106.557 570.319 106.22 569.919 105.78C569.519 105.333 569.202 104.787 568.969 104.14C568.742 103.493 568.629 102.757 568.629 101.93C568.629 101.177 568.732 100.48 568.939 99.84C569.152 99.2 569.459 98.65 569.859 98.19C570.266 97.7233 570.766 97.36 571.359 97.1C571.952 96.84 572.632 96.71 573.399 96.71C574.106 96.71 574.732 96.8267 575.279 97.06C575.826 97.2867 576.309 97.61 576.729 98.03L576.259 98.67ZM584.385 96.71C585.125 96.71 585.792 96.8333 586.385 97.08C586.985 97.3267 587.492 97.6767 587.905 98.13C588.325 98.5833 588.645 99.1333 588.865 99.78C589.092 100.42 589.205 101.137 589.205 101.93C589.205 102.73 589.092 103.45 588.865 104.09C588.645 104.73 588.325 105.277 587.905 105.73C587.492 106.183 586.985 106.533 586.385 106.78C585.792 107.02 585.125 107.14 584.385 107.14C583.645 107.14 582.975 107.02 582.375 106.78C581.782 106.533 581.275 106.183 580.855 105.73C580.435 105.277 580.112 104.73 579.885 104.09C579.658 103.45 579.545 102.73 579.545 101.93C579.545 101.137 579.658 100.42 579.885 99.78C580.112 99.1333 580.435 98.5833 580.855 98.13C581.275 97.6767 581.782 97.3267 582.375 97.08C582.975 96.8333 583.645 96.71 584.385 96.71ZM584.385 105.75C585.385 105.75 586.132 105.417 586.625 104.75C587.118 104.077 587.365 103.14 587.365 101.94C587.365 100.733 587.118 99.7933 586.625 99.12C586.132 98.4467 585.385 98.11 584.385 98.11C583.878 98.11 583.438 98.1967 583.065 98.37C582.692 98.5433 582.378 98.7933 582.125 99.12C581.878 99.4467 581.692 99.85 581.565 100.33C581.445 100.803 581.385 101.34 581.385 101.94C581.385 102.54 581.445 103.077 581.565 103.55C581.692 104.023 581.878 104.423 582.125 104.75C582.378 105.07 582.692 105.317 583.065 105.49C583.438 105.663 583.878 105.75 584.385 105.75ZM592.998 107V96.87H594.058C594.312 96.87 594.472 96.9933 594.538 97.24L594.678 98.34C595.118 97.8533 595.608 97.46 596.148 97.16C596.695 96.86 597.325 96.71 598.038 96.71C598.592 96.71 599.078 96.8033 599.498 96.99C599.925 97.17 600.278 97.43 600.558 97.77C600.845 98.1033 601.062 98.5067 601.208 98.98C601.355 99.4533 601.428 99.9767 601.428 100.55V107H599.648V100.55C599.648 99.7833 599.472 99.19 599.118 98.77C598.772 98.3433 598.238 98.13 597.518 98.13C596.992 98.13 596.498 98.2567 596.038 98.51C595.585 98.7633 595.165 99.1067 594.778 99.54V107H592.998ZM611.512 98.54C611.432 98.6867 611.308 98.76 611.142 98.76C611.042 98.76 610.928 98.7233 610.802 98.65C610.675 98.5767 610.518 98.4967 610.332 98.41C610.152 98.3167 609.935 98.2333 609.682 98.16C609.428 98.08 609.128 98.04 608.782 98.04C608.482 98.04 608.212 98.08 607.972 98.16C607.732 98.2333 607.525 98.3367 607.352 98.47C607.185 98.6033 607.055 98.76 606.962 98.94C606.875 99.1133 606.832 99.3033 606.832 99.51C606.832 99.77 606.905 99.9867 607.052 100.16C607.205 100.333 607.405 100.483 607.652 100.61C607.898 100.737 608.178 100.85 608.492 100.95C608.805 101.043 609.125 101.147 609.452 101.26C609.785 101.367 610.108 101.487 610.422 101.62C610.735 101.753 611.015 101.92 611.262 102.12C611.508 102.32 611.705 102.567 611.852 102.86C612.005 103.147 612.082 103.493 612.082 103.9C612.082 104.367 611.998 104.8 611.832 105.2C611.665 105.593 611.418 105.937 611.092 106.23C610.765 106.517 610.365 106.743 609.892 106.91C609.418 107.077 608.872 107.16 608.252 107.16C607.545 107.16 606.905 107.047 606.332 106.82C605.758 106.587 605.272 106.29 604.872 105.93L605.292 105.25C605.345 105.163 605.408 105.097 605.482 105.05C605.555 105.003 605.652 104.98 605.772 104.98C605.892 104.98 606.018 105.027 606.152 105.12C606.285 105.213 606.445 105.317 606.632 105.43C606.825 105.543 607.055 105.647 607.322 105.74C607.595 105.833 607.935 105.88 608.342 105.88C608.688 105.88 608.992 105.837 609.252 105.75C609.512 105.657 609.728 105.533 609.902 105.38C610.075 105.227 610.202 105.05 610.282 104.85C610.368 104.65 610.412 104.437 610.412 104.21C610.412 103.93 610.335 103.7 610.182 103.52C610.035 103.333 609.838 103.177 609.592 103.05C609.345 102.917 609.062 102.803 608.742 102.71C608.428 102.61 608.105 102.507 607.772 102.4C607.445 102.293 607.122 102.173 606.802 102.04C606.488 101.9 606.208 101.727 605.962 101.52C605.715 101.313 605.515 101.06 605.362 100.76C605.215 100.453 605.142 100.083 605.142 99.65C605.142 99.2633 605.222 98.8933 605.382 98.54C605.542 98.18 605.775 97.8667 606.082 97.6C606.388 97.3267 606.765 97.11 607.212 96.95C607.658 96.79 608.168 96.71 608.742 96.71C609.408 96.71 610.005 96.8167 610.532 97.03C611.065 97.2367 611.525 97.5233 611.912 97.89L611.512 98.54ZM628.891 107H628.101C627.927 107 627.787 106.973 627.681 106.92C627.574 106.867 627.504 106.753 627.471 106.58L627.271 105.64C627.004 105.88 626.744 106.097 626.491 106.29C626.237 106.477 625.971 106.637 625.691 106.77C625.411 106.897 625.111 106.993 624.791 107.06C624.477 107.127 624.127 107.16 623.741 107.16C623.347 107.16 622.977 107.107 622.631 107C622.291 106.887 621.994 106.72 621.741 106.5C621.487 106.28 621.284 106.003 621.131 105.67C620.984 105.33 620.911 104.93 620.911 104.47C620.911 104.07 621.021 103.687 621.241 103.32C621.461 102.947 621.814 102.617 622.301 102.33C622.794 102.043 623.437 101.81 624.231 101.63C625.024 101.443 625.994 101.337 627.141 101.31V100.52C627.141 99.7333 626.971 99.14 626.631 98.74C626.297 98.3333 625.801 98.13 625.141 98.13C624.707 98.13 624.341 98.1867 624.041 98.3C623.747 98.4067 623.491 98.53 623.271 98.67C623.057 98.8033 622.871 98.9267 622.711 99.04C622.557 99.1467 622.404 99.2 622.251 99.2C622.131 99.2 622.024 99.17 621.931 99.11C621.844 99.0433 621.774 98.9633 621.721 98.87L621.401 98.3C621.961 97.76 622.564 97.3567 623.211 97.09C623.857 96.8233 624.574 96.69 625.361 96.69C625.927 96.69 626.431 96.7833 626.871 96.97C627.311 97.1567 627.681 97.4167 627.981 97.75C628.281 98.0833 628.507 98.4867 628.661 98.96C628.814 99.4333 628.891 99.9533 628.891 100.52V107ZM624.271 105.91C624.584 105.91 624.871 105.88 625.131 105.82C625.391 105.753 625.634 105.663 625.861 105.55C626.094 105.43 626.314 105.287 626.521 105.12C626.734 104.953 626.941 104.763 627.141 104.55V102.44C626.321 102.467 625.624 102.533 625.051 102.64C624.477 102.74 624.011 102.873 623.651 103.04C623.291 103.207 623.027 103.403 622.861 103.63C622.701 103.857 622.621 104.11 622.621 104.39C622.621 104.657 622.664 104.887 622.751 105.08C622.837 105.273 622.954 105.433 623.101 105.56C623.247 105.68 623.421 105.77 623.621 105.83C623.821 105.883 624.037 105.91 624.271 105.91ZM633.187 107V96.87H634.207C634.401 96.87 634.534 96.9067 634.607 96.98C634.681 97.0533 634.731 97.18 634.757 97.36L634.877 98.94C635.224 98.2333 635.651 97.6833 636.157 97.29C636.671 96.89 637.271 96.69 637.957 96.69C638.237 96.69 638.491 96.7233 638.717 96.79C638.944 96.85 639.154 96.9367 639.347 97.05L639.117 98.38C639.071 98.5467 638.967 98.63 638.807 98.63C638.714 98.63 638.571 98.6 638.377 98.54C638.184 98.4733 637.914 98.44 637.567 98.44C636.947 98.44 636.427 98.62 636.007 98.98C635.594 99.34 635.247 99.8633 634.967 100.55V107H633.187ZM646.864 96.71C647.47 96.71 648.03 96.8133 648.544 97.02C649.057 97.22 649.5 97.5133 649.874 97.9C650.247 98.28 650.537 98.7533 650.744 99.32C650.957 99.88 651.064 100.52 651.064 101.24C651.064 101.52 651.034 101.707 650.974 101.8C650.914 101.893 650.8 101.94 650.634 101.94H643.894C643.907 102.58 643.994 103.137 644.154 103.61C644.314 104.083 644.534 104.48 644.814 104.8C645.094 105.113 645.427 105.35 645.814 105.51C646.2 105.663 646.634 105.74 647.114 105.74C647.56 105.74 647.944 105.69 648.264 105.59C648.59 105.483 648.87 105.37 649.104 105.25C649.337 105.13 649.53 105.02 649.684 104.92C649.844 104.813 649.98 104.76 650.094 104.76C650.24 104.76 650.354 104.817 650.434 104.93L650.934 105.58C650.714 105.847 650.45 106.08 650.144 106.28C649.837 106.473 649.507 106.633 649.154 106.76C648.807 106.887 648.447 106.98 648.074 107.04C647.7 107.107 647.33 107.14 646.964 107.14C646.264 107.14 645.617 107.023 645.024 106.79C644.437 106.55 643.927 106.203 643.494 105.75C643.067 105.29 642.734 104.723 642.494 104.05C642.254 103.377 642.134 102.603 642.134 101.73C642.134 101.023 642.24 100.363 642.454 99.75C642.674 99.1367 642.987 98.6067 643.394 98.16C643.8 97.7067 644.297 97.3533 644.884 97.1C645.47 96.84 646.13 96.71 646.864 96.71ZM646.904 98.02C646.044 98.02 645.367 98.27 644.874 98.77C644.38 99.2633 644.074 99.95 643.954 100.83H649.464C649.464 100.417 649.407 100.04 649.294 99.7C649.18 99.3533 649.014 99.0567 648.794 98.81C648.574 98.5567 648.304 98.3633 647.984 98.23C647.67 98.09 647.31 98.02 646.904 98.02ZM660.809 107V98.39L659.689 98.26C659.549 98.2267 659.433 98.1767 659.339 98.11C659.253 98.0367 659.209 97.9333 659.209 97.8V97.07H660.809V96.09C660.809 95.51 660.889 94.9967 661.049 94.55C661.216 94.0967 661.449 93.7167 661.749 93.41C662.056 93.0967 662.423 92.86 662.849 92.7C663.276 92.54 663.756 92.46 664.289 92.46C664.743 92.46 665.163 92.5267 665.549 92.66L665.509 93.55C665.503 93.6833 665.446 93.7633 665.339 93.79C665.233 93.8167 665.083 93.83 664.889 93.83H664.579C664.273 93.83 663.993 93.87 663.739 93.95C663.493 94.03 663.279 94.16 663.099 94.34C662.919 94.52 662.779 94.7567 662.679 95.05C662.586 95.3433 662.539 95.7067 662.539 96.14V97.07H665.469V98.36H662.599V107H660.809ZM672.758 96.71C673.364 96.71 673.924 96.8133 674.438 97.02C674.951 97.22 675.394 97.5133 675.768 97.9C676.141 98.28 676.431 98.7533 676.638 99.32C676.851 99.88 676.958 100.52 676.958 101.24C676.958 101.52 676.928 101.707 676.868 101.8C676.808 101.893 676.694 101.94 676.528 101.94H669.788C669.801 102.58 669.888 103.137 670.048 103.61C670.208 104.083 670.428 104.48 670.708 104.8C670.988 105.113 671.321 105.35 671.708 105.51C672.094 105.663 672.528 105.74 673.008 105.74C673.454 105.74 673.838 105.69 674.158 105.59C674.484 105.483 674.764 105.37 674.998 105.25C675.231 105.13 675.424 105.02 675.578 104.92C675.738 104.813 675.874 104.76 675.988 104.76C676.134 104.76 676.248 104.817 676.328 104.93L676.828 105.58C676.608 105.847 676.344 106.08 676.038 106.28C675.731 106.473 675.401 106.633 675.048 106.76C674.701 106.887 674.341 106.98 673.968 107.04C673.594 107.107 673.224 107.14 672.858 107.14C672.158 107.14 671.511 107.023 670.918 106.79C670.331 106.55 669.821 106.203 669.388 105.75C668.961 105.29 668.628 104.723 668.388 104.05C668.148 103.377 668.028 102.603 668.028 101.73C668.028 101.023 668.134 100.363 668.348 99.75C668.568 99.1367 668.881 98.6067 669.288 98.16C669.694 97.7067 670.191 97.3533 670.778 97.1C671.364 96.84 672.024 96.71 672.758 96.71ZM672.798 98.02C671.938 98.02 671.261 98.27 670.768 98.77C670.274 99.2633 669.968 99.95 669.848 100.83H675.358C675.358 100.417 675.301 100.04 675.188 99.7C675.074 99.3533 674.908 99.0567 674.688 98.81C674.468 98.5567 674.198 98.3633 673.878 98.23C673.564 98.09 673.204 98.02 672.798 98.02ZM684.846 96.71C685.452 96.71 686.012 96.8133 686.526 97.02C687.039 97.22 687.482 97.5133 687.856 97.9C688.229 98.28 688.519 98.7533 688.726 99.32C688.939 99.88 689.046 100.52 689.046 101.24C689.046 101.52 689.016 101.707 688.956 101.8C688.896 101.893 688.782 101.94 688.616 101.94H681.876C681.889 102.58 681.976 103.137 682.136 103.61C682.296 104.083 682.516 104.48 682.796 104.8C683.076 105.113 683.409 105.35 683.796 105.51C684.182 105.663 684.616 105.74 685.096 105.74C685.542 105.74 685.926 105.69 686.246 105.59C686.572 105.483 686.852 105.37 687.086 105.25C687.319 105.13 687.512 105.02 687.666 104.92C687.826 104.813 687.962 104.76 688.076 104.76C688.222 104.76 688.336 104.817 688.416 104.93L688.916 105.58C688.696 105.847 688.432 106.08 688.126 106.28C687.819 106.473 687.489 106.633 687.136 106.76C686.789 106.887 686.429 106.98 686.056 107.04C685.682 107.107 685.312 107.14 684.946 107.14C684.246 107.14 683.599 107.023 683.006 106.79C682.419 106.55 681.909 106.203 681.476 105.75C681.049 105.29 680.716 104.723 680.476 104.05C680.236 103.377 680.116 102.603 680.116 101.73C680.116 101.023 680.222 100.363 680.436 99.75C680.656 99.1367 680.969 98.6067 681.376 98.16C681.782 97.7067 682.279 97.3533 682.866 97.1C683.452 96.84 684.112 96.71 684.846 96.71ZM684.886 98.02C684.026 98.02 683.349 98.27 682.856 98.77C682.362 99.2633 682.056 99.95 681.936 100.83H687.446C687.446 100.417 687.389 100.04 687.276 99.7C687.162 99.3533 686.996 99.0567 686.776 98.81C686.556 98.5567 686.286 98.3633 685.966 98.23C685.652 98.09 685.292 98.02 684.886 98.02ZM699.931 96.87V103.33C699.931 104.097 700.108 104.69 700.461 105.11C700.815 105.53 701.348 105.74 702.061 105.74C702.581 105.74 703.071 105.617 703.531 105.37C703.991 105.123 704.415 104.78 704.801 104.34V96.87H706.581V107H705.521C705.268 107 705.108 106.877 705.041 106.63L704.901 105.54C704.461 106.027 703.968 106.42 703.421 106.72C702.875 107.013 702.248 107.16 701.541 107.16C700.988 107.16 700.498 107.07 700.071 106.89C699.651 106.703 699.298 106.443 699.011 106.11C698.725 105.777 698.508 105.373 698.361 104.9C698.221 104.427 698.151 103.903 698.151 103.33V96.87H699.931ZM716.905 98.54C716.825 98.6867 716.701 98.76 716.535 98.76C716.435 98.76 716.321 98.7233 716.195 98.65C716.068 98.5767 715.911 98.4967 715.725 98.41C715.545 98.3167 715.328 98.2333 715.075 98.16C714.821 98.08 714.521 98.04 714.175 98.04C713.875 98.04 713.605 98.08 713.365 98.16C713.125 98.2333 712.918 98.3367 712.745 98.47C712.578 98.6033 712.448 98.76 712.355 98.94C712.268 99.1133 712.225 99.3033 712.225 99.51C712.225 99.77 712.298 99.9867 712.445 100.16C712.598 100.333 712.798 100.483 713.045 100.61C713.291 100.737 713.571 100.85 713.885 100.95C714.198 101.043 714.518 101.147 714.845 101.26C715.178 101.367 715.501 101.487 715.815 101.62C716.128 101.753 716.408 101.92 716.655 102.12C716.901 102.32 717.098 102.567 717.245 102.86C717.398 103.147 717.475 103.493 717.475 103.9C717.475 104.367 717.391 104.8 717.225 105.2C717.058 105.593 716.811 105.937 716.485 106.23C716.158 106.517 715.758 106.743 715.285 106.91C714.811 107.077 714.265 107.16 713.645 107.16C712.938 107.16 712.298 107.047 711.725 106.82C711.151 106.587 710.665 106.29 710.265 105.93L710.685 105.25C710.738 105.163 710.801 105.097 710.875 105.05C710.948 105.003 711.045 104.98 711.165 104.98C711.285 104.98 711.411 105.027 711.545 105.12C711.678 105.213 711.838 105.317 712.025 105.43C712.218 105.543 712.448 105.647 712.715 105.74C712.988 105.833 713.328 105.88 713.735 105.88C714.081 105.88 714.385 105.837 714.645 105.75C714.905 105.657 715.121 105.533 715.295 105.38C715.468 105.227 715.595 105.05 715.675 104.85C715.761 104.65 715.805 104.437 715.805 104.21C715.805 103.93 715.728 103.7 715.575 103.52C715.428 103.333 715.231 103.177 714.985 103.05C714.738 102.917 714.455 102.803 714.135 102.71C713.821 102.61 713.498 102.507 713.165 102.4C712.838 102.293 712.515 102.173 712.195 102.04C711.881 101.9 711.601 101.727 711.355 101.52C711.108 101.313 710.908 101.06 710.755 100.76C710.608 100.453 710.535 100.083 710.535 99.65C710.535 99.2633 710.615 98.8933 710.775 98.54C710.935 98.18 711.168 97.8667 711.475 97.6C711.781 97.3267 712.158 97.11 712.605 96.95C713.051 96.79 713.561 96.71 714.135 96.71C714.801 96.71 715.398 96.8167 715.925 97.03C716.458 97.2367 716.918 97.5233 717.305 97.89L716.905 98.54ZM725.386 96.71C725.993 96.71 726.553 96.8133 727.066 97.02C727.58 97.22 728.023 97.5133 728.396 97.9C728.77 98.28 729.06 98.7533 729.266 99.32C729.48 99.88 729.586 100.52 729.586 101.24C729.586 101.52 729.556 101.707 729.496 101.8C729.436 101.893 729.323 101.94 729.156 101.94H722.416C722.43 102.58 722.516 103.137 722.676 103.61C722.836 104.083 723.056 104.48 723.336 104.8C723.616 105.113 723.95 105.35 724.336 105.51C724.723 105.663 725.156 105.74 725.636 105.74C726.083 105.74 726.466 105.69 726.786 105.59C727.113 105.483 727.393 105.37 727.626 105.25C727.86 105.13 728.053 105.02 728.206 104.92C728.366 104.813 728.503 104.76 728.616 104.76C728.763 104.76 728.876 104.817 728.956 104.93L729.456 105.58C729.236 105.847 728.973 106.08 728.666 106.28C728.36 106.473 728.03 106.633 727.676 106.76C727.33 106.887 726.97 106.98 726.596 107.04C726.223 107.107 725.853 107.14 725.486 107.14C724.786 107.14 724.14 107.023 723.546 106.79C722.96 106.55 722.45 106.203 722.016 105.75C721.59 105.29 721.256 104.723 721.016 104.05C720.776 103.377 720.656 102.603 720.656 101.73C720.656 101.023 720.763 100.363 720.976 99.75C721.196 99.1367 721.51 98.6067 721.916 98.16C722.323 97.7067 722.82 97.3533 723.406 97.1C723.993 96.84 724.653 96.71 725.386 96.71ZM725.426 98.02C724.566 98.02 723.89 98.27 723.396 98.77C722.903 99.2633 722.596 99.95 722.476 100.83H727.986C727.986 100.417 727.93 100.04 727.816 99.7C727.703 99.3533 727.536 99.0567 727.316 98.81C727.096 98.5567 726.826 98.3633 726.506 98.23C726.193 98.09 725.833 98.02 725.426 98.02ZM740.595 107C740.341 107 740.181 106.877 740.115 106.63L739.955 105.4C739.521 105.927 739.025 106.35 738.465 106.67C737.911 106.983 737.275 107.14 736.555 107.14C735.975 107.14 735.448 107.03 734.975 106.81C734.501 106.583 734.098 106.253 733.765 105.82C733.431 105.387 733.175 104.847 732.995 104.2C732.815 103.553 732.725 102.81 732.725 101.97C732.725 101.223 732.825 100.53 733.025 99.89C733.225 99.2433 733.511 98.6833 733.885 98.21C734.265 97.7367 734.725 97.3667 735.265 97.1C735.805 96.8267 736.418 96.69 737.105 96.69C737.725 96.69 738.255 96.7967 738.695 97.01C739.135 97.2167 739.528 97.51 739.875 97.89V92.27H741.655V107H740.595ZM737.145 105.7C737.725 105.7 738.231 105.567 738.665 105.3C739.105 105.033 739.508 104.657 739.875 104.17V99.27C739.548 98.83 739.188 98.5233 738.795 98.35C738.408 98.17 737.978 98.08 737.505 98.08C736.558 98.08 735.831 98.4167 735.325 99.09C734.818 99.7633 734.565 100.723 734.565 101.97C734.565 102.63 734.621 103.197 734.735 103.67C734.848 104.137 735.015 104.523 735.235 104.83C735.455 105.13 735.725 105.35 736.045 105.49C736.365 105.63 736.731 105.7 737.145 105.7ZM752.104 107V98.39L750.984 98.26C750.844 98.2267 750.727 98.1767 750.634 98.11C750.547 98.0367 750.504 97.9333 750.504 97.8V97.07H752.104V96.09C752.104 95.51 752.184 94.9967 752.344 94.55C752.51 94.0967 752.744 93.7167 753.044 93.41C753.35 93.0967 753.717 92.86 754.144 92.7C754.57 92.54 755.05 92.46 755.584 92.46C756.037 92.46 756.457 92.5267 756.844 92.66L756.804 93.55C756.797 93.6833 756.74 93.7633 756.634 93.79C756.527 93.8167 756.377 93.83 756.184 93.83H755.874C755.567 93.83 755.287 93.87 755.034 93.95C754.787 94.03 754.574 94.16 754.394 94.34C754.214 94.52 754.074 94.7567 753.974 95.05C753.88 95.3433 753.834 95.7067 753.834 96.14V97.07H756.764V98.36H753.894V107H752.104ZM760.042 107V96.87H761.062C761.255 96.87 761.389 96.9067 761.462 96.98C761.535 97.0533 761.585 97.18 761.612 97.36L761.732 98.94C762.079 98.2333 762.505 97.6833 763.012 97.29C763.525 96.89 764.125 96.69 764.812 96.69C765.092 96.69 765.345 96.7233 765.572 96.79C765.799 96.85 766.009 96.9367 766.202 97.05L765.972 98.38C765.925 98.5467 765.822 98.63 765.662 98.63C765.569 98.63 765.425 98.6 765.232 98.54C765.039 98.4733 764.769 98.44 764.422 98.44C763.802 98.44 763.282 98.62 762.862 98.98C762.449 99.34 762.102 99.8633 761.822 100.55V107H760.042ZM773.808 96.71C774.548 96.71 775.215 96.8333 775.808 97.08C776.408 97.3267 776.915 97.6767 777.328 98.13C777.748 98.5833 778.068 99.1333 778.288 99.78C778.515 100.42 778.628 101.137 778.628 101.93C778.628 102.73 778.515 103.45 778.288 104.09C778.068 104.73 777.748 105.277 777.328 105.73C776.915 106.183 776.408 106.533 775.808 106.78C775.215 107.02 774.548 107.14 773.808 107.14C773.068 107.14 772.398 107.02 771.798 106.78C771.205 106.533 770.698 106.183 770.278 105.73C769.858 105.277 769.535 104.73 769.308 104.09C769.082 103.45 768.968 102.73 768.968 101.93C768.968 101.137 769.082 100.42 769.308 99.78C769.535 99.1333 769.858 98.5833 770.278 98.13C770.698 97.6767 771.205 97.3267 771.798 97.08C772.398 96.8333 773.068 96.71 773.808 96.71ZM773.808 105.75C774.808 105.75 775.555 105.417 776.048 104.75C776.542 104.077 776.788 103.14 776.788 101.94C776.788 100.733 776.542 99.7933 776.048 99.12C775.555 98.4467 774.808 98.11 773.808 98.11C773.302 98.11 772.862 98.1967 772.488 98.37C772.115 98.5433 771.802 98.7933 771.548 99.12C771.302 99.4467 771.115 99.85 770.988 100.33C770.868 100.803 770.808 101.34 770.808 101.94C770.808 102.54 770.868 103.077 770.988 103.55C771.115 104.023 771.302 104.423 771.548 104.75C771.802 105.07 772.115 105.317 772.488 105.49C772.862 105.663 773.302 105.75 773.808 105.75ZM782.422 107V96.87H783.482C783.735 96.87 783.895 96.9933 783.962 97.24L784.092 98.28C784.465 97.82 784.882 97.4433 785.342 97.15C785.808 96.8567 786.348 96.71 786.962 96.71C787.648 96.71 788.202 96.9 788.622 97.28C789.048 97.66 789.355 98.1733 789.542 98.82C789.682 98.4533 789.865 98.1367 790.092 97.87C790.325 97.6033 790.585 97.3833 790.872 97.21C791.158 97.0367 791.462 96.91 791.782 96.83C792.108 96.75 792.438 96.71 792.772 96.71C793.305 96.71 793.778 96.7967 794.192 96.97C794.612 97.1367 794.965 97.3833 795.252 97.71C795.545 98.0367 795.768 98.44 795.922 98.92C796.075 99.3933 796.152 99.9367 796.152 100.55V107H794.372V100.55C794.372 99.7567 794.198 99.1567 793.852 98.75C793.505 98.3367 793.002 98.13 792.342 98.13C792.048 98.13 791.768 98.1833 791.502 98.29C791.242 98.39 791.012 98.54 790.812 98.74C790.612 98.94 790.452 99.1933 790.332 99.5C790.218 99.8 790.162 100.15 790.162 100.55V107H788.382V100.55C788.382 99.7367 788.218 99.13 787.892 98.73C787.565 98.33 787.088 98.13 786.462 98.13C786.022 98.13 785.612 98.25 785.232 98.49C784.858 98.7233 784.515 99.0433 784.202 99.45V107H782.422ZM808.495 107H806.555V92.67H808.495V107ZM820.558 98.67C820.504 98.7433 820.451 98.8 820.398 98.84C820.344 98.88 820.268 98.9 820.168 98.9C820.068 98.9 819.958 98.86 819.838 98.78C819.724 98.6933 819.578 98.6 819.398 98.5C819.218 98.4 818.998 98.31 818.738 98.23C818.484 98.1433 818.171 98.1 817.798 98.1C817.304 98.1 816.868 98.19 816.488 98.37C816.108 98.5433 815.788 98.7967 815.528 99.13C815.274 99.4633 815.081 99.8667 814.948 100.34C814.821 100.813 814.757 101.343 814.757 101.93C814.757 102.543 814.828 103.09 814.968 103.57C815.108 104.043 815.304 104.443 815.558 104.77C815.811 105.09 816.118 105.337 816.478 105.51C816.844 105.677 817.254 105.76 817.708 105.76C818.141 105.76 818.498 105.71 818.778 105.61C819.058 105.503 819.291 105.387 819.478 105.26C819.664 105.133 819.818 105.02 819.938 104.92C820.058 104.813 820.178 104.76 820.298 104.76C820.451 104.76 820.564 104.817 820.638 104.93L821.138 105.58C820.698 106.12 820.148 106.517 819.488 106.77C818.828 107.017 818.131 107.14 817.398 107.14C816.764 107.14 816.174 107.023 815.628 106.79C815.088 106.557 814.618 106.22 814.218 105.78C813.818 105.333 813.501 104.787 813.268 104.14C813.041 103.493 812.928 102.757 812.928 101.93C812.928 101.177 813.031 100.48 813.238 99.84C813.451 99.2 813.758 98.65 814.158 98.19C814.564 97.7233 815.064 97.36 815.658 97.1C816.251 96.84 816.931 96.71 817.697 96.71C818.404 96.71 819.031 96.8267 819.578 97.06C820.124 97.2867 820.608 97.61 821.028 98.03L820.558 98.67ZM828.683 96.71C829.423 96.71 830.09 96.8333 830.683 97.08C831.283 97.3267 831.79 97.6767 832.203 98.13C832.623 98.5833 832.943 99.1333 833.163 99.78C833.39 100.42 833.503 101.137 833.503 101.93C833.503 102.73 833.39 103.45 833.163 104.09C832.943 104.73 832.623 105.277 832.203 105.73C831.79 106.183 831.283 106.533 830.683 106.78C830.09 107.02 829.423 107.14 828.683 107.14C827.943 107.14 827.273 107.02 826.673 106.78C826.08 106.533 825.573 106.183 825.153 105.73C824.733 105.277 824.41 104.73 824.183 104.09C823.957 103.45 823.843 102.73 823.843 101.93C823.843 101.137 823.957 100.42 824.183 99.78C824.41 99.1333 824.733 98.5833 825.153 98.13C825.573 97.6767 826.08 97.3267 826.673 97.08C827.273 96.8333 827.943 96.71 828.683 96.71ZM828.683 105.75C829.683 105.75 830.43 105.417 830.923 104.75C831.417 104.077 831.663 103.14 831.663 101.94C831.663 100.733 831.417 99.7933 830.923 99.12C830.43 98.4467 829.683 98.11 828.683 98.11C828.177 98.11 827.737 98.1967 827.363 98.37C826.99 98.5433 826.677 98.7933 826.423 99.12C826.177 99.4467 825.99 99.85 825.863 100.33C825.743 100.803 825.683 101.34 825.683 101.94C825.683 102.54 825.743 103.077 825.863 103.55C825.99 104.023 826.177 104.423 826.423 104.75C826.677 105.07 826.99 105.317 827.363 105.49C827.737 105.663 828.177 105.75 828.683 105.75ZM837.297 107V96.87H838.357C838.61 96.87 838.77 96.9933 838.837 97.24L838.977 98.34C839.417 97.8533 839.907 97.46 840.447 97.16C840.993 96.86 841.623 96.71 842.337 96.71C842.89 96.71 843.377 96.8033 843.797 96.99C844.223 97.17 844.577 97.43 844.857 97.77C845.143 98.1033 845.36 98.5067 845.507 98.98C845.653 99.4533 845.727 99.9767 845.727 100.55V107H843.947V100.55C843.947 99.7833 843.77 99.19 843.417 98.77C843.07 98.3433 842.537 98.13 841.817 98.13C841.29 98.13 840.797 98.2567 840.337 98.51C839.883 98.7633 839.463 99.1067 839.077 99.54V107H837.297ZM854.34 107.16C853.627 107.16 852.973 107.067 852.38 106.88C851.787 106.687 851.277 106.413 850.85 106.06C850.423 105.707 850.093 105.28 849.86 104.78C849.627 104.273 849.51 103.707 849.51 103.08C849.51 102.16 849.75 101.403 850.23 100.81C850.71 100.21 851.397 99.7833 852.29 99.53C851.537 99.25 850.967 98.8333 850.58 98.28C850.2 97.72 850.01 97.0533 850.01 96.28C850.01 95.7533 850.113 95.26 850.32 94.8C850.527 94.34 850.82 93.94 851.2 93.6C851.58 93.26 852.033 92.9933 852.56 92.8C853.093 92.6067 853.687 92.51 854.34 92.51C854.987 92.51 855.577 92.6067 856.11 92.8C856.643 92.9933 857.1 93.26 857.48 93.6C857.86 93.94 858.153 94.34 858.36 94.8C858.567 95.26 858.67 95.7533 858.67 96.28C858.67 97.0533 858.477 97.72 858.09 98.28C857.703 98.8333 857.137 99.25 856.39 99.53C857.283 99.7833 857.97 100.21 858.45 100.81C858.93 101.403 859.17 102.16 859.17 103.08C859.17 103.707 859.05 104.273 858.81 104.78C858.577 105.28 858.247 105.707 857.82 106.06C857.4 106.413 856.893 106.687 856.3 106.88C855.707 107.067 855.053 107.16 854.34 107.16ZM854.34 105.74C854.807 105.74 855.223 105.677 855.59 105.55C855.963 105.417 856.277 105.233 856.53 105C856.79 104.76 856.987 104.477 857.12 104.15C857.26 103.817 857.33 103.45 857.33 103.05C857.33 102.557 857.247 102.137 857.08 101.79C856.92 101.437 856.7 101.15 856.42 100.93C856.147 100.71 855.83 100.55 855.47 100.45C855.11 100.343 854.733 100.29 854.34 100.29C853.947 100.29 853.57 100.343 853.21 100.45C852.85 100.55 852.53 100.71 852.25 100.93C851.977 101.15 851.757 101.437 851.59 101.79C851.43 102.137 851.35 102.557 851.35 103.05C851.35 103.45 851.417 103.817 851.55 104.15C851.69 104.477 851.887 104.76 852.14 105C852.4 105.233 852.713 105.417 853.08 105.55C853.453 105.677 853.873 105.74 854.34 105.74ZM854.34 98.86C854.807 98.86 855.203 98.79 855.53 98.65C855.863 98.5033 856.133 98.3133 856.34 98.08C856.547 97.84 856.697 97.5667 856.79 97.26C856.883 96.9533 856.93 96.6367 856.93 96.31C856.93 95.9767 856.873 95.6633 856.76 95.37C856.653 95.0767 856.49 94.82 856.27 94.6C856.057 94.38 855.787 94.2067 855.46 94.08C855.14 93.9533 854.767 93.89 854.34 93.89C853.913 93.89 853.537 93.9533 853.21 94.08C852.89 94.2067 852.62 94.38 852.4 94.6C852.187 94.82 852.023 95.0767 851.91 95.37C851.803 95.6633 851.75 95.9767 851.75 96.31C851.75 96.6367 851.797 96.9533 851.89 97.26C851.983 97.5667 852.133 97.84 852.34 98.08C852.547 98.3133 852.813 98.5033 853.14 98.65C853.473 98.79 853.873 98.86 854.34 98.86ZM868.499 105.9C868.499 105.727 868.529 105.563 868.589 105.41C868.655 105.257 868.742 105.123 868.849 105.01C868.962 104.897 869.095 104.807 869.249 104.74C869.402 104.673 869.565 104.64 869.739 104.64C869.912 104.64 870.075 104.673 870.229 104.74C870.382 104.807 870.515 104.897 870.629 105.01C870.742 105.123 870.829 105.257 870.889 105.41C870.955 105.563 870.989 105.727 870.989 105.9C870.989 106.08 870.955 106.247 870.889 106.4C870.829 106.547 870.742 106.677 870.629 106.79C870.515 106.903 870.382 106.99 870.229 107.05C870.075 107.117 869.912 107.15 869.739 107.15C869.565 107.15 869.402 107.117 869.249 107.05C869.095 106.99 868.962 106.903 868.849 106.79C868.742 106.677 868.655 106.547 868.589 106.4C868.529 106.247 868.499 106.08 868.499 105.9ZM868.499 98.4C868.499 98.2267 868.529 98.0633 868.589 97.91C868.655 97.7567 868.742 97.6233 868.849 97.51C868.962 97.3967 869.095 97.3067 869.249 97.24C869.402 97.1733 869.565 97.14 869.739 97.14C869.912 97.14 870.075 97.1733 870.229 97.24C870.382 97.3067 870.515 97.3967 870.629 97.51C870.742 97.6233 870.829 97.7567 870.889 97.91C870.955 98.0633 870.989 98.2267 870.989 98.4C870.989 98.58 870.955 98.7467 870.889 98.9C870.829 99.0467 870.742 99.1767 870.629 99.29C870.515 99.4033 870.382 99.4933 870.229 99.56C870.075 99.62 869.912 99.65 869.739 99.65C869.565 99.65 869.402 99.62 869.249 99.56C869.095 99.4933 868.962 99.4033 868.849 99.29C868.742 99.1767 868.655 99.0467 868.589 98.9C868.529 98.7467 868.499 98.58 868.499 98.4ZM880.785 107V92.27H882.565V98.23C882.998 97.77 883.478 97.4033 884.005 97.13C884.532 96.85 885.138 96.71 885.825 96.71C886.378 96.71 886.865 96.8033 887.285 96.99C887.712 97.17 888.065 97.43 888.345 97.77C888.632 98.1033 888.848 98.5067 888.995 98.98C889.142 99.4533 889.215 99.9767 889.215 100.55V107H887.435V100.55C887.435 99.7833 887.258 99.19 886.905 98.77C886.558 98.3433 886.025 98.13 885.305 98.13C884.778 98.13 884.285 98.2567 883.825 98.51C883.372 98.7633 882.952 99.1067 882.565 99.54V107H880.785ZM896.568 107.16C895.768 107.16 895.152 106.937 894.718 106.49C894.292 106.043 894.078 105.4 894.078 104.56V98.36H892.858C892.752 98.36 892.662 98.33 892.588 98.27C892.515 98.2033 892.478 98.1033 892.478 97.97V97.26L894.138 97.05L894.548 93.92C894.562 93.82 894.605 93.74 894.678 93.68C894.752 93.6133 894.845 93.58 894.958 93.58H895.858V97.07H898.758V98.36H895.858V104.44C895.858 104.867 895.962 105.183 896.168 105.39C896.375 105.597 896.642 105.7 896.968 105.7C897.155 105.7 897.315 105.677 897.448 105.63C897.588 105.577 897.708 105.52 897.808 105.46C897.908 105.4 897.992 105.347 898.058 105.3C898.132 105.247 898.195 105.22 898.248 105.22C898.342 105.22 898.425 105.277 898.498 105.39L899.018 106.24C898.712 106.527 898.342 106.753 897.908 106.92C897.475 107.08 897.028 107.16 896.568 107.16ZM905.629 107.16C904.829 107.16 904.213 106.937 903.779 106.49C903.353 106.043 903.139 105.4 903.139 104.56V98.36H901.919C901.813 98.36 901.723 98.33 901.649 98.27C901.576 98.2033 901.539 98.1033 901.539 97.97V97.26L903.199 97.05L903.609 93.92C903.623 93.82 903.666 93.74 903.739 93.68C903.813 93.6133 903.906 93.58 904.019 93.58H904.919V97.07H907.819V98.36H904.919V104.44C904.919 104.867 905.023 105.183 905.229 105.39C905.436 105.597 905.703 105.7 906.029 105.7C906.216 105.7 906.376 105.677 906.509 105.63C906.649 105.577 906.769 105.52 906.869 105.46C906.969 105.4 907.053 105.347 907.119 105.3C907.193 105.247 907.256 105.22 907.309 105.22C907.403 105.22 907.486 105.277 907.559 105.39L908.079 106.24C907.773 106.527 907.403 106.753 906.969 106.92C906.536 107.08 906.089 107.16 905.629 107.16ZM911.62 110.43V96.87H912.68C912.933 96.87 913.093 96.9933 913.16 97.24L913.31 98.44C913.743 97.9133 914.237 97.49 914.79 97.17C915.35 96.85 915.993 96.69 916.72 96.69C917.3 96.69 917.827 96.8033 918.3 97.03C918.773 97.25 919.177 97.58 919.51 98.02C919.843 98.4533 920.1 98.9933 920.28 99.64C920.46 100.287 920.55 101.03 920.55 101.87C920.55 102.617 920.45 103.313 920.25 103.96C920.05 104.6 919.763 105.157 919.39 105.63C919.017 106.097 918.557 106.467 918.01 106.74C917.47 107.007 916.86 107.14 916.18 107.14C915.553 107.14 915.017 107.037 914.57 106.83C914.13 106.623 913.74 106.33 913.4 105.95V110.43H911.62ZM916.13 98.13C915.55 98.13 915.04 98.2633 914.6 98.53C914.167 98.7967 913.767 99.1733 913.4 99.66V104.56C913.727 105 914.083 105.31 914.47 105.49C914.863 105.67 915.3 105.76 915.78 105.76C916.72 105.76 917.443 105.423 917.95 104.75C918.457 104.077 918.71 103.117 918.71 101.87C918.71 101.21 918.65 100.643 918.53 100.17C918.417 99.6967 918.25 99.31 918.03 99.01C917.81 98.7033 917.54 98.48 917.22 98.34C916.9 98.2 916.537 98.13 916.13 98.13ZM930.055 98.54C929.975 98.6867 929.852 98.76 929.685 98.76C929.585 98.76 929.472 98.7233 929.345 98.65C929.219 98.5767 929.062 98.4967 928.875 98.41C928.695 98.3167 928.479 98.2333 928.225 98.16C927.972 98.08 927.672 98.04 927.325 98.04C927.025 98.04 926.755 98.08 926.515 98.16C926.275 98.2333 926.069 98.3367 925.895 98.47C925.729 98.6033 925.599 98.76 925.505 98.94C925.419 99.1133 925.375 99.3033 925.375 99.51C925.375 99.77 925.449 99.9867 925.595 100.16C925.749 100.333 925.949 100.483 926.195 100.61C926.442 100.737 926.722 100.85 927.035 100.95C927.349 101.043 927.669 101.147 927.995 101.26C928.329 101.367 928.652 101.487 928.965 101.62C929.279 101.753 929.559 101.92 929.805 102.12C930.052 102.32 930.249 102.567 930.395 102.86C930.549 103.147 930.625 103.493 930.625 103.9C930.625 104.367 930.542 104.8 930.375 105.2C930.209 105.593 929.962 105.937 929.635 106.23C929.309 106.517 928.909 106.743 928.435 106.91C927.962 107.077 927.415 107.16 926.795 107.16C926.089 107.16 925.449 107.047 924.875 106.82C924.302 106.587 923.815 106.29 923.415 105.93L923.835 105.25C923.889 105.163 923.952 105.097 924.025 105.05C924.099 105.003 924.195 104.98 924.315 104.98C924.435 104.98 924.562 105.027 924.695 105.12C924.829 105.213 924.989 105.317 925.175 105.43C925.369 105.543 925.599 105.647 925.865 105.74C926.139 105.833 926.479 105.88 926.885 105.88C927.232 105.88 927.535 105.837 927.795 105.75C928.055 105.657 928.272 105.533 928.445 105.38C928.619 105.227 928.745 105.05 928.825 104.85C928.912 104.65 928.955 104.437 928.955 104.21C928.955 103.93 928.879 103.7 928.725 103.52C928.579 103.333 928.382 103.177 928.135 103.05C927.889 102.917 927.605 102.803 927.285 102.71C926.972 102.61 926.649 102.507 926.315 102.4C925.989 102.293 925.665 102.173 925.345 102.04C925.032 101.9 924.752 101.727 924.505 101.52C924.259 101.313 924.059 101.06 923.905 100.76C923.759 100.453 923.685 100.083 923.685 99.65C923.685 99.2633 923.765 98.8933 923.925 98.54C924.085 98.18 924.319 97.8667 924.625 97.6C924.932 97.3267 925.309 97.11 925.755 96.95C926.202 96.79 926.712 96.71 927.285 96.71C927.952 96.71 928.549 96.8167 929.075 97.03C929.609 97.2367 930.069 97.5233 930.455 97.89L930.055 98.54ZM934.347 105.9C934.347 105.727 934.377 105.563 934.437 105.41C934.504 105.257 934.591 105.123 934.697 105.01C934.811 104.897 934.944 104.807 935.097 104.74C935.251 104.673 935.414 104.64 935.587 104.64C935.761 104.64 935.924 104.673 936.077 104.74C936.231 104.807 936.364 104.897 936.477 105.01C936.591 105.123 936.677 105.257 936.737 105.41C936.804 105.563 936.837 105.727 936.837 105.9C936.837 106.08 936.804 106.247 936.737 106.4C936.677 106.547 936.591 106.677 936.477 106.79C936.364 106.903 936.231 106.99 936.077 107.05C935.924 107.117 935.761 107.15 935.587 107.15C935.414 107.15 935.251 107.117 935.097 107.05C934.944 106.99 934.811 106.903 934.697 106.79C934.591 106.677 934.504 106.547 934.437 106.4C934.377 106.247 934.347 106.08 934.347 105.9ZM934.347 98.4C934.347 98.2267 934.377 98.0633 934.437 97.91C934.504 97.7567 934.591 97.6233 934.697 97.51C934.811 97.3967 934.944 97.3067 935.097 97.24C935.251 97.1733 935.414 97.14 935.587 97.14C935.761 97.14 935.924 97.1733 936.077 97.24C936.231 97.3067 936.364 97.3967 936.477 97.51C936.591 97.6233 936.677 97.7567 936.737 97.91C936.804 98.0633 936.837 98.2267 936.837 98.4C936.837 98.58 936.804 98.7467 936.737 98.9C936.677 99.0467 936.591 99.1767 936.477 99.29C936.364 99.4033 936.231 99.4933 936.077 99.56C935.924 99.62 935.761 99.65 935.587 99.65C935.414 99.65 935.251 99.62 935.097 99.56C934.944 99.4933 934.811 99.4033 934.697 99.29C934.591 99.1767 934.504 99.0467 934.437 98.9C934.377 98.7467 934.347 98.58 934.347 98.4ZM941.316 107.21C941.223 107.443 941.083 107.617 940.896 107.73C940.716 107.843 940.53 107.9 940.336 107.9H939.586L945.596 92.93C945.683 92.7167 945.806 92.5533 945.966 92.44C946.126 92.3267 946.316 92.27 946.536 92.27H947.286L941.316 107.21ZM949.01 107.21C948.917 107.443 948.777 107.617 948.59 107.73C948.41 107.843 948.223 107.9 948.03 107.9H947.28L953.29 92.93C953.377 92.7167 953.5 92.5533 953.66 92.44C953.82 92.3267 954.01 92.27 954.23 92.27H954.98L949.01 107.21ZM959.964 96.7C960.404 96.7 960.814 96.75 961.194 96.85C961.58 96.9433 961.93 97.0833 962.244 97.27H964.994V97.93C964.994 98.15 964.854 98.29 964.574 98.35L963.424 98.51C963.65 98.9433 963.764 99.4267 963.764 99.96C963.764 100.453 963.667 100.903 963.474 101.31C963.287 101.71 963.024 102.053 962.684 102.34C962.35 102.627 961.95 102.847 961.484 103C961.024 103.153 960.517 103.23 959.964 103.23C959.49 103.23 959.044 103.173 958.624 103.06C958.41 103.193 958.247 103.337 958.134 103.49C958.027 103.643 957.974 103.793 957.974 103.94C957.974 104.18 958.07 104.363 958.264 104.49C958.457 104.61 958.714 104.697 959.034 104.75C959.354 104.803 959.717 104.837 960.124 104.85C960.53 104.863 960.944 104.887 961.364 104.92C961.79 104.947 962.207 104.997 962.614 105.07C963.02 105.143 963.384 105.263 963.704 105.43C964.024 105.597 964.28 105.827 964.474 106.12C964.667 106.413 964.764 106.793 964.764 107.26C964.764 107.693 964.654 108.113 964.434 108.52C964.22 108.927 963.91 109.287 963.504 109.6C963.097 109.92 962.6 110.173 962.014 110.36C961.427 110.553 960.764 110.65 960.024 110.65C959.284 110.65 958.634 110.577 958.074 110.43C957.52 110.283 957.06 110.087 956.694 109.84C956.327 109.593 956.05 109.307 955.864 108.98C955.684 108.66 955.594 108.323 955.594 107.97C955.594 107.47 955.75 107.047 956.064 106.7C956.384 106.347 956.82 106.067 957.374 105.86C957.087 105.727 956.857 105.55 956.684 105.33C956.517 105.103 956.434 104.803 956.434 104.43C956.434 104.283 956.46 104.133 956.514 103.98C956.567 103.82 956.647 103.663 956.754 103.51C956.867 103.357 957.004 103.21 957.164 103.07C957.324 102.93 957.51 102.807 957.724 102.7C957.224 102.42 956.83 102.05 956.544 101.59C956.264 101.123 956.124 100.58 956.124 99.96C956.124 99.4667 956.217 99.02 956.404 98.62C956.597 98.2133 956.864 97.87 957.204 97.59C957.544 97.3033 957.947 97.0833 958.414 96.93C958.887 96.7767 959.404 96.7 959.964 96.7ZM963.124 107.55C963.124 107.297 963.054 107.093 962.914 106.94C962.774 106.787 962.584 106.67 962.344 106.59C962.104 106.503 961.827 106.44 961.514 106.4C961.2 106.36 960.87 106.333 960.524 106.32C960.177 106.3 959.824 106.28 959.464 106.26C959.104 106.24 958.76 106.203 958.434 106.15C958.054 106.33 957.744 106.55 957.504 106.81C957.27 107.07 957.154 107.38 957.154 107.74C957.154 107.967 957.21 108.177 957.324 108.37C957.444 108.57 957.624 108.74 957.864 108.88C958.104 109.027 958.404 109.14 958.764 109.22C959.13 109.307 959.56 109.35 960.054 109.35C960.534 109.35 960.964 109.307 961.344 109.22C961.724 109.133 962.044 109.01 962.304 108.85C962.57 108.69 962.774 108.5 962.914 108.28C963.054 108.06 963.124 107.817 963.124 107.55ZM959.964 102.05C960.324 102.05 960.64 102 960.914 101.9C961.194 101.8 961.427 101.66 961.614 101.48C961.8 101.3 961.94 101.087 962.034 100.84C962.127 100.587 962.174 100.31 962.174 100.01C962.174 99.39 961.984 98.8967 961.604 98.53C961.23 98.1633 960.684 97.98 959.964 97.98C959.25 97.98 958.704 98.1633 958.324 98.53C957.95 98.8967 957.764 99.39 957.764 100.01C957.764 100.31 957.81 100.587 957.904 100.84C958.004 101.087 958.147 101.3 958.334 101.48C958.52 101.66 958.75 101.8 959.024 101.9C959.297 102 959.61 102.05 959.964 102.05ZM970.349 96.87V107H968.569V96.87H970.349ZM970.749 93.69C970.749 93.8633 970.712 94.0267 970.639 94.18C970.572 94.3267 970.479 94.46 970.359 94.58C970.245 94.6933 970.112 94.7833 969.959 94.85C969.805 94.9167 969.642 94.95 969.469 94.95C969.295 94.95 969.132 94.9167 968.979 94.85C968.832 94.7833 968.699 94.6933 968.579 94.58C968.465 94.46 968.375 94.3267 968.309 94.18C968.242 94.0267 968.209 93.8633 968.209 93.69C968.209 93.5167 968.242 93.3533 968.309 93.2C968.375 93.04 968.465 92.9033 968.579 92.79C968.699 92.67 968.832 92.5767 968.979 92.51C969.132 92.4433 969.295 92.41 969.469 92.41C969.642 92.41 969.805 92.4433 969.959 92.51C970.112 92.5767 970.245 92.67 970.359 92.79C970.479 92.9033 970.572 93.04 970.639 93.2C970.712 93.3533 970.749 93.5167 970.749 93.69ZM978.156 107.16C977.356 107.16 976.739 106.937 976.306 106.49C975.879 106.043 975.666 105.4 975.666 104.56V98.36H974.446C974.339 98.36 974.249 98.33 974.176 98.27C974.102 98.2033 974.066 98.1033 974.066 97.97V97.26L975.726 97.05L976.136 93.92C976.149 93.82 976.192 93.74 976.266 93.68C976.339 93.6133 976.432 93.58 976.546 93.58H977.446V97.07H980.346V98.36H977.446V104.44C977.446 104.867 977.549 105.183 977.756 105.39C977.962 105.597 978.229 105.7 978.556 105.7C978.742 105.7 978.902 105.677 979.036 105.63C979.176 105.577 979.296 105.52 979.396 105.46C979.496 105.4 979.579 105.347 979.646 105.3C979.719 105.247 979.782 105.22 979.836 105.22C979.929 105.22 980.012 105.277 980.086 105.39L980.606 106.24C980.299 106.527 979.929 106.753 979.496 106.92C979.062 107.08 978.616 107.16 978.156 107.16ZM984.147 107V92.27H985.927V98.23C986.36 97.77 986.84 97.4033 987.367 97.13C987.893 96.85 988.5 96.71 989.187 96.71C989.74 96.71 990.227 96.8033 990.647 96.99C991.073 97.17 991.427 97.43 991.707 97.77C991.993 98.1033 992.21 98.5067 992.357 98.98C992.503 99.4533 992.577 99.9767 992.577 100.55V107H990.797V100.55C990.797 99.7833 990.62 99.19 990.267 98.77C989.92 98.3433 989.387 98.13 988.667 98.13C988.14 98.13 987.647 98.2567 987.187 98.51C986.733 98.7633 986.313 99.1067 985.927 99.54V107H984.147ZM998.4 96.87V103.33C998.4 104.097 998.577 104.69 998.93 105.11C999.283 105.53 999.817 105.74 1000.53 105.74C1001.05 105.74 1001.54 105.617 1002 105.37C1002.46 105.123 1002.88 104.78 1003.27 104.34V96.87H1005.05V107H1003.99C1003.74 107 1003.58 106.877 1003.51 106.63L1003.37 105.54C1002.93 106.027 1002.44 106.42 1001.89 106.72C1001.34 107.013 1000.72 107.16 1000.01 107.16C999.457 107.16 998.967 107.07 998.54 106.89C998.12 106.703 997.767 106.443 997.48 106.11C997.193 105.777 996.977 105.373 996.83 104.9C996.69 104.427 996.62 103.903 996.62 103.33V96.87H998.4ZM1009.63 107V92.27H1011.42V98.33C1011.84 97.8433 1012.32 97.4533 1012.86 97.16C1013.41 96.86 1014.03 96.71 1014.73 96.71C1015.32 96.71 1015.85 96.82 1016.32 97.04C1016.8 97.26 1017.2 97.59 1017.53 98.03C1017.87 98.4633 1018.12 99.0033 1018.3 99.65C1018.48 100.29 1018.57 101.03 1018.57 101.87C1018.57 102.617 1018.47 103.313 1018.27 103.96C1018.07 104.6 1017.78 105.157 1017.4 105.63C1017.03 106.097 1016.57 106.467 1016.02 106.74C1015.48 107.007 1014.87 107.14 1014.19 107.14C1013.54 107.14 1012.98 107.013 1012.52 106.76C1012.07 106.507 1011.67 106.153 1011.33 105.7L1011.24 106.62C1011.19 106.873 1011.04 107 1010.78 107H1009.63ZM1014.15 98.13C1013.57 98.13 1013.06 98.2633 1012.62 98.53C1012.19 98.7967 1011.79 99.1733 1011.42 99.66V104.56C1011.74 105 1012.1 105.31 1012.48 105.49C1012.88 105.67 1013.31 105.76 1013.79 105.76C1014.74 105.76 1015.47 105.423 1015.97 104.75C1016.48 104.077 1016.73 103.117 1016.73 101.87C1016.73 101.21 1016.67 100.643 1016.55 100.17C1016.44 99.6967 1016.27 99.31 1016.05 99.01C1015.83 98.7033 1015.56 98.48 1015.24 98.34C1014.92 98.2 1014.56 98.13 1014.15 98.13ZM1021.77 105.9C1021.77 105.727 1021.8 105.563 1021.86 105.41C1021.92 105.257 1022.01 105.123 1022.12 105.01C1022.23 104.897 1022.36 104.807 1022.52 104.74C1022.67 104.673 1022.83 104.64 1023.01 104.64C1023.18 104.64 1023.34 104.673 1023.5 104.74C1023.65 104.807 1023.78 104.897 1023.9 105.01C1024.01 105.123 1024.1 105.257 1024.16 105.41C1024.22 105.563 1024.26 105.727 1024.26 105.9C1024.26 106.08 1024.22 106.247 1024.16 106.4C1024.1 106.547 1024.01 106.677 1023.9 106.79C1023.78 106.903 1023.65 106.99 1023.5 107.05C1023.34 107.117 1023.18 107.15 1023.01 107.15C1022.83 107.15 1022.67 107.117 1022.52 107.05C1022.36 106.99 1022.23 106.903 1022.12 106.79C1022.01 106.677 1021.92 106.547 1021.86 106.4C1021.8 106.247 1021.77 106.08 1021.77 105.9ZM1035.09 98.67C1035.04 98.7433 1034.99 98.8 1034.93 98.84C1034.88 98.88 1034.8 98.9 1034.7 98.9C1034.6 98.9 1034.49 98.86 1034.37 98.78C1034.26 98.6933 1034.11 98.6 1033.93 98.5C1033.75 98.4 1033.53 98.31 1033.27 98.23C1033.02 98.1433 1032.71 98.1 1032.33 98.1C1031.84 98.1 1031.4 98.19 1031.02 98.37C1030.64 98.5433 1030.32 98.7967 1030.06 99.13C1029.81 99.4633 1029.62 99.8667 1029.48 100.34C1029.36 100.813 1029.29 101.343 1029.29 101.93C1029.29 102.543 1029.36 103.09 1029.5 103.57C1029.64 104.043 1029.84 104.443 1030.09 104.77C1030.35 105.09 1030.65 105.337 1031.01 105.51C1031.38 105.677 1031.79 105.76 1032.24 105.76C1032.68 105.76 1033.03 105.71 1033.31 105.61C1033.59 105.503 1033.83 105.387 1034.01 105.26C1034.2 105.133 1034.35 105.02 1034.47 104.92C1034.59 104.813 1034.71 104.76 1034.83 104.76C1034.99 104.76 1035.1 104.817 1035.17 104.93L1035.67 105.58C1035.23 106.12 1034.68 106.517 1034.02 106.77C1033.36 107.017 1032.67 107.14 1031.93 107.14C1031.3 107.14 1030.71 107.023 1030.16 106.79C1029.62 106.557 1029.15 106.22 1028.75 105.78C1028.35 105.333 1028.04 104.787 1027.8 104.14C1027.58 103.493 1027.46 102.757 1027.46 101.93C1027.46 101.177 1027.57 100.48 1027.77 99.84C1027.99 99.2 1028.29 98.65 1028.69 98.19C1029.1 97.7233 1029.6 97.36 1030.19 97.1C1030.79 96.84 1031.47 96.71 1032.23 96.71C1032.94 96.71 1033.57 96.8267 1034.11 97.06C1034.66 97.2867 1035.14 97.61 1035.56 98.03L1035.09 98.67ZM1043.22 96.71C1043.96 96.71 1044.63 96.8333 1045.22 97.08C1045.82 97.3267 1046.33 97.6767 1046.74 98.13C1047.16 98.5833 1047.48 99.1333 1047.7 99.78C1047.93 100.42 1048.04 101.137 1048.04 101.93C1048.04 102.73 1047.93 103.45 1047.7 104.09C1047.48 104.73 1047.16 105.277 1046.74 105.73C1046.33 106.183 1045.82 106.533 1045.22 106.78C1044.63 107.02 1043.96 107.14 1043.22 107.14C1042.48 107.14 1041.81 107.02 1041.21 106.78C1040.62 106.533 1040.11 106.183 1039.69 105.73C1039.27 105.277 1038.95 104.73 1038.72 104.09C1038.49 103.45 1038.38 102.73 1038.38 101.93C1038.38 101.137 1038.49 100.42 1038.72 99.78C1038.95 99.1333 1039.27 98.5833 1039.69 98.13C1040.11 97.6767 1040.62 97.3267 1041.21 97.08C1041.81 96.8333 1042.48 96.71 1043.22 96.71ZM1043.22 105.75C1044.22 105.75 1044.97 105.417 1045.46 104.75C1045.95 104.077 1046.2 103.14 1046.2 101.94C1046.2 100.733 1045.95 99.7933 1045.46 99.12C1044.97 98.4467 1044.22 98.11 1043.22 98.11C1042.71 98.11 1042.27 98.1967 1041.9 98.37C1041.53 98.5433 1041.21 98.7933 1040.96 99.12C1040.71 99.4467 1040.53 99.85 1040.4 100.33C1040.28 100.803 1040.22 101.34 1040.22 101.94C1040.22 102.54 1040.28 103.077 1040.4 103.55C1040.53 104.023 1040.71 104.423 1040.96 104.75C1041.21 105.07 1041.53 105.317 1041.9 105.49C1042.27 105.663 1042.71 105.75 1043.22 105.75ZM1051.83 107V96.87H1052.89C1053.15 96.87 1053.31 96.9933 1053.37 97.24L1053.5 98.28C1053.88 97.82 1054.29 97.4433 1054.75 97.15C1055.22 96.8567 1055.76 96.71 1056.37 96.71C1057.06 96.71 1057.61 96.9 1058.03 97.28C1058.46 97.66 1058.77 98.1733 1058.95 98.82C1059.09 98.4533 1059.28 98.1367 1059.5 97.87C1059.74 97.6033 1060 97.3833 1060.28 97.21C1060.57 97.0367 1060.87 96.91 1061.19 96.83C1061.52 96.75 1061.85 96.71 1062.18 96.71C1062.72 96.71 1063.19 96.7967 1063.6 96.97C1064.02 97.1367 1064.38 97.3833 1064.66 97.71C1064.96 98.0367 1065.18 98.44 1065.33 98.92C1065.49 99.3933 1065.56 99.9367 1065.56 100.55V107H1063.78V100.55C1063.78 99.7567 1063.61 99.1567 1063.26 98.75C1062.92 98.3367 1062.41 98.13 1061.75 98.13C1061.46 98.13 1061.18 98.1833 1060.91 98.29C1060.65 98.39 1060.42 98.54 1060.22 98.74C1060.02 98.94 1059.86 99.1933 1059.74 99.5C1059.63 99.8 1059.57 100.15 1059.57 100.55V107H1057.79V100.55C1057.79 99.7367 1057.63 99.13 1057.3 98.73C1056.98 98.33 1056.5 98.13 1055.87 98.13C1055.43 98.13 1055.02 98.25 1054.64 98.49C1054.27 98.7233 1053.93 99.0433 1053.61 99.45V107H1051.83ZM1070.01 107.21C1069.92 107.443 1069.78 107.617 1069.59 107.73C1069.41 107.843 1069.22 107.9 1069.03 107.9H1068.28L1074.29 92.93C1074.38 92.7167 1074.5 92.5533 1074.66 92.44C1074.82 92.3267 1075.01 92.27 1075.23 92.27H1075.98L1070.01 107.21ZM1080.9 96.87V107H1079.12V96.87H1080.9ZM1081.3 93.69C1081.3 93.8633 1081.26 94.0267 1081.19 94.18C1081.12 94.3267 1081.03 94.46 1080.91 94.58C1080.8 94.6933 1080.66 94.7833 1080.51 94.85C1080.36 94.9167 1080.19 94.95 1080.02 94.95C1079.85 94.95 1079.68 94.9167 1079.53 94.85C1079.38 94.7833 1079.25 94.6933 1079.13 94.58C1079.02 94.46 1078.93 94.3267 1078.86 94.18C1078.79 94.0267 1078.76 93.8633 1078.76 93.69C1078.76 93.5167 1078.79 93.3533 1078.86 93.2C1078.93 93.04 1079.02 92.9033 1079.13 92.79C1079.25 92.67 1079.38 92.5767 1079.53 92.51C1079.68 92.4433 1079.85 92.41 1080.02 92.41C1080.19 92.41 1080.36 92.4433 1080.51 92.51C1080.66 92.5767 1080.8 92.67 1080.91 92.79C1081.03 92.9033 1081.12 93.04 1081.19 93.2C1081.26 93.3533 1081.3 93.5167 1081.3 93.69ZM1092.55 98.67C1092.49 98.7433 1092.44 98.8 1092.39 98.84C1092.33 98.88 1092.26 98.9 1092.16 98.9C1092.06 98.9 1091.95 98.86 1091.83 98.78C1091.71 98.6933 1091.57 98.6 1091.39 98.5C1091.21 98.4 1090.99 98.31 1090.73 98.23C1090.47 98.1433 1090.16 98.1 1089.79 98.1C1089.29 98.1 1088.86 98.19 1088.48 98.37C1088.1 98.5433 1087.78 98.7967 1087.52 99.13C1087.26 99.4633 1087.07 99.8667 1086.94 100.34C1086.81 100.813 1086.75 101.343 1086.75 101.93C1086.75 102.543 1086.82 103.09 1086.96 103.57C1087.1 104.043 1087.29 104.443 1087.55 104.77C1087.8 105.09 1088.11 105.337 1088.47 105.51C1088.83 105.677 1089.24 105.76 1089.7 105.76C1090.13 105.76 1090.49 105.71 1090.77 105.61C1091.05 105.503 1091.28 105.387 1091.47 105.26C1091.65 105.133 1091.81 105.02 1091.93 104.92C1092.05 104.813 1092.17 104.76 1092.29 104.76C1092.44 104.76 1092.55 104.817 1092.63 104.93L1093.13 105.58C1092.69 106.12 1092.14 106.517 1091.48 106.77C1090.82 107.017 1090.12 107.14 1089.39 107.14C1088.75 107.14 1088.16 107.023 1087.62 106.79C1087.08 106.557 1086.61 106.22 1086.21 105.78C1085.81 105.333 1085.49 104.787 1085.26 104.14C1085.03 103.493 1084.92 102.757 1084.92 101.93C1084.92 101.177 1085.02 100.48 1085.23 99.84C1085.44 99.2 1085.75 98.65 1086.15 98.19C1086.55 97.7233 1087.05 97.36 1087.65 97.1C1088.24 96.84 1088.92 96.71 1089.69 96.71C1090.39 96.71 1091.02 96.8267 1091.57 97.06C1092.11 97.2867 1092.6 97.61 1093.02 98.03L1092.55 98.67ZM1100.67 96.71C1101.41 96.71 1102.08 96.8333 1102.67 97.08C1103.27 97.3267 1103.78 97.6767 1104.19 98.13C1104.61 98.5833 1104.93 99.1333 1105.15 99.78C1105.38 100.42 1105.49 101.137 1105.49 101.93C1105.49 102.73 1105.38 103.45 1105.15 104.09C1104.93 104.73 1104.61 105.277 1104.19 105.73C1103.78 106.183 1103.27 106.533 1102.67 106.78C1102.08 107.02 1101.41 107.14 1100.67 107.14C1099.93 107.14 1099.26 107.02 1098.66 106.78C1098.07 106.533 1097.56 106.183 1097.14 105.73C1096.72 105.277 1096.4 104.73 1096.17 104.09C1095.95 103.45 1095.83 102.73 1095.83 101.93C1095.83 101.137 1095.95 100.42 1096.17 99.78C1096.4 99.1333 1096.72 98.5833 1097.14 98.13C1097.56 97.6767 1098.07 97.3267 1098.66 97.08C1099.26 96.8333 1099.93 96.71 1100.67 96.71ZM1100.67 105.75C1101.67 105.75 1102.42 105.417 1102.91 104.75C1103.41 104.077 1103.65 103.14 1103.65 101.94C1103.65 100.733 1103.41 99.7933 1102.91 99.12C1102.42 98.4467 1101.67 98.11 1100.67 98.11C1100.17 98.11 1099.73 98.1967 1099.35 98.37C1098.98 98.5433 1098.67 98.7933 1098.41 99.12C1098.17 99.4467 1097.98 99.85 1097.85 100.33C1097.73 100.803 1097.67 101.34 1097.67 101.94C1097.67 102.54 1097.73 103.077 1097.85 103.55C1097.98 104.023 1098.17 104.423 1098.41 104.75C1098.67 105.07 1098.98 105.317 1099.35 105.49C1099.73 105.663 1100.17 105.75 1100.67 105.75ZM1109.29 107V96.87H1110.35C1110.6 96.87 1110.76 96.9933 1110.83 97.24L1110.97 98.34C1111.41 97.8533 1111.9 97.46 1112.44 97.16C1112.98 96.86 1113.61 96.71 1114.33 96.71C1114.88 96.71 1115.37 96.8033 1115.79 96.99C1116.21 97.17 1116.57 97.43 1116.85 97.77C1117.13 98.1033 1117.35 98.5067 1117.5 98.98C1117.64 99.4533 1117.72 99.9767 1117.72 100.55V107H1115.94V100.55C1115.94 99.7833 1115.76 99.19 1115.41 98.77C1115.06 98.3433 1114.53 98.13 1113.81 98.13C1113.28 98.13 1112.79 98.2567 1112.33 98.51C1111.87 98.7633 1111.45 99.1067 1111.07 99.54V107H1109.29ZM1127.8 98.54C1127.72 98.6867 1127.6 98.76 1127.43 98.76C1127.33 98.76 1127.22 98.7233 1127.09 98.65C1126.96 98.5767 1126.81 98.4967 1126.62 98.41C1126.44 98.3167 1126.22 98.2333 1125.97 98.16C1125.72 98.08 1125.42 98.04 1125.07 98.04C1124.77 98.04 1124.5 98.08 1124.26 98.16C1124.02 98.2333 1123.81 98.3367 1123.64 98.47C1123.47 98.6033 1123.34 98.76 1123.25 98.94C1123.16 99.1133 1123.12 99.3033 1123.12 99.51C1123.12 99.77 1123.19 99.9867 1123.34 100.16C1123.49 100.333 1123.69 100.483 1123.94 100.61C1124.19 100.737 1124.47 100.85 1124.78 100.95C1125.09 101.043 1125.41 101.147 1125.74 101.26C1126.07 101.367 1126.4 101.487 1126.71 101.62C1127.02 101.753 1127.3 101.92 1127.55 102.12C1127.8 102.32 1127.99 102.567 1128.14 102.86C1128.29 103.147 1128.37 103.493 1128.37 103.9C1128.37 104.367 1128.29 104.8 1128.12 105.2C1127.95 105.593 1127.71 105.937 1127.38 106.23C1127.05 106.517 1126.65 106.743 1126.18 106.91C1125.71 107.077 1125.16 107.16 1124.54 107.16C1123.83 107.16 1123.19 107.047 1122.62 106.82C1122.05 106.587 1121.56 106.29 1121.16 105.93L1121.58 105.25C1121.63 105.163 1121.7 105.097 1121.77 105.05C1121.84 105.003 1121.94 104.98 1122.06 104.98C1122.18 104.98 1122.31 105.027 1122.44 105.12C1122.57 105.213 1122.73 105.317 1122.92 105.43C1123.11 105.543 1123.34 105.647 1123.61 105.74C1123.88 105.833 1124.22 105.88 1124.63 105.88C1124.98 105.88 1125.28 105.837 1125.54 105.75C1125.8 105.657 1126.02 105.533 1126.19 105.38C1126.36 105.227 1126.49 105.05 1126.57 104.85C1126.66 104.65 1126.7 104.437 1126.7 104.21C1126.7 103.93 1126.62 103.7 1126.47 103.52C1126.32 103.333 1126.13 103.177 1125.88 103.05C1125.63 102.917 1125.35 102.803 1125.03 102.71C1124.72 102.61 1124.39 102.507 1124.06 102.4C1123.73 102.293 1123.41 102.173 1123.09 102.04C1122.78 101.9 1122.5 101.727 1122.25 101.52C1122 101.313 1121.8 101.06 1121.65 100.76C1121.5 100.453 1121.43 100.083 1121.43 99.65C1121.43 99.2633 1121.51 98.8933 1121.67 98.54C1121.83 98.18 1122.06 97.8667 1122.37 97.6C1122.68 97.3267 1123.05 97.11 1123.5 96.95C1123.95 96.79 1124.46 96.71 1125.03 96.71C1125.7 96.71 1126.29 96.8167 1126.82 97.03C1127.35 97.2367 1127.81 97.5233 1128.2 97.89L1127.8 98.54ZM1136.6 107.16C1135.89 107.16 1135.23 107.067 1134.64 106.88C1134.05 106.687 1133.54 106.413 1133.11 106.06C1132.68 105.707 1132.35 105.28 1132.12 104.78C1131.89 104.273 1131.77 103.707 1131.77 103.08C1131.77 102.16 1132.01 101.403 1132.49 100.81C1132.97 100.21 1133.66 99.7833 1134.55 99.53C1133.8 99.25 1133.23 98.8333 1132.84 98.28C1132.46 97.72 1132.27 97.0533 1132.27 96.28C1132.27 95.7533 1132.37 95.26 1132.58 94.8C1132.79 94.34 1133.08 93.94 1133.46 93.6C1133.84 93.26 1134.29 92.9933 1134.82 92.8C1135.35 92.6067 1135.95 92.51 1136.6 92.51C1137.25 92.51 1137.84 92.6067 1138.37 92.8C1138.9 92.9933 1139.36 93.26 1139.74 93.6C1140.12 93.94 1140.41 94.34 1140.62 94.8C1140.83 95.26 1140.93 95.7533 1140.93 96.28C1140.93 97.0533 1140.74 97.72 1140.35 98.28C1139.96 98.8333 1139.4 99.25 1138.65 99.53C1139.54 99.7833 1140.23 100.21 1140.71 100.81C1141.19 101.403 1141.43 102.16 1141.43 103.08C1141.43 103.707 1141.31 104.273 1141.07 104.78C1140.84 105.28 1140.51 105.707 1140.08 106.06C1139.66 106.413 1139.15 106.687 1138.56 106.88C1137.97 107.067 1137.31 107.16 1136.6 107.16ZM1136.6 105.74C1137.07 105.74 1137.48 105.677 1137.85 105.55C1138.22 105.417 1138.54 105.233 1138.79 105C1139.05 104.76 1139.25 104.477 1139.38 104.15C1139.52 103.817 1139.59 103.45 1139.59 103.05C1139.59 102.557 1139.51 102.137 1139.34 101.79C1139.18 101.437 1138.96 101.15 1138.68 100.93C1138.41 100.71 1138.09 100.55 1137.73 100.45C1137.37 100.343 1136.99 100.29 1136.6 100.29C1136.21 100.29 1135.83 100.343 1135.47 100.45C1135.11 100.55 1134.79 100.71 1134.51 100.93C1134.24 101.15 1134.02 101.437 1133.85 101.79C1133.69 102.137 1133.61 102.557 1133.61 103.05C1133.61 103.45 1133.68 103.817 1133.81 104.15C1133.95 104.477 1134.15 104.76 1134.4 105C1134.66 105.233 1134.97 105.417 1135.34 105.55C1135.71 105.677 1136.13 105.74 1136.6 105.74ZM1136.6 98.86C1137.07 98.86 1137.46 98.79 1137.79 98.65C1138.12 98.5033 1138.39 98.3133 1138.6 98.08C1138.81 97.84 1138.96 97.5667 1139.05 97.26C1139.14 96.9533 1139.19 96.6367 1139.19 96.31C1139.19 95.9767 1139.13 95.6633 1139.02 95.37C1138.91 95.0767 1138.75 94.82 1138.53 94.6C1138.32 94.38 1138.05 94.2067 1137.72 94.08C1137.4 93.9533 1137.03 93.89 1136.6 93.89C1136.17 93.89 1135.8 93.9533 1135.47 94.08C1135.15 94.2067 1134.88 94.38 1134.66 94.6C1134.45 94.82 1134.28 95.0767 1134.17 95.37C1134.06 95.6633 1134.01 95.9767 1134.01 96.31C1134.01 96.6367 1134.06 96.9533 1134.15 97.26C1134.24 97.5667 1134.39 97.84 1134.6 98.08C1134.81 98.3133 1135.07 98.5033 1135.4 98.65C1135.73 98.79 1136.13 98.86 1136.6 98.86ZM1145.62 107.21C1145.53 107.443 1145.39 107.617 1145.2 107.73C1145.02 107.843 1144.84 107.9 1144.64 107.9H1143.89L1149.9 92.93C1149.99 92.7167 1150.11 92.5533 1150.27 92.44C1150.43 92.3267 1150.62 92.27 1150.84 92.27H1151.59L1145.62 107.21ZM1156.51 92.27V107H1154.73V92.27H1156.51ZM1163.23 96.87V107H1161.45V96.87H1163.23ZM1163.63 93.69C1163.63 93.8633 1163.59 94.0267 1163.52 94.18C1163.45 94.3267 1163.36 94.46 1163.24 94.58C1163.13 94.6933 1162.99 94.7833 1162.84 94.85C1162.69 94.9167 1162.52 94.95 1162.35 94.95C1162.18 94.95 1162.01 94.9167 1161.86 94.85C1161.71 94.7833 1161.58 94.6933 1161.46 94.58C1161.35 94.46 1161.26 94.3267 1161.19 94.18C1161.12 94.0267 1161.09 93.8633 1161.09 93.69C1161.09 93.5167 1161.12 93.3533 1161.19 93.2C1161.26 93.04 1161.35 92.9033 1161.46 92.79C1161.58 92.67 1161.71 92.5767 1161.86 92.51C1162.01 92.4433 1162.18 92.41 1162.35 92.41C1162.52 92.41 1162.69 92.4433 1162.84 92.51C1162.99 92.5767 1163.13 92.67 1163.24 92.79C1163.36 92.9033 1163.45 93.04 1163.52 93.2C1163.59 93.3533 1163.63 93.5167 1163.63 93.69ZM1167.97 107V96.87H1169.03C1169.28 96.87 1169.44 96.9933 1169.51 97.24L1169.65 98.34C1170.09 97.8533 1170.58 97.46 1171.12 97.16C1171.66 96.86 1172.29 96.71 1173.01 96.71C1173.56 96.71 1174.05 96.8033 1174.47 96.99C1174.89 97.17 1175.25 97.43 1175.53 97.77C1175.81 98.1033 1176.03 98.5067 1176.18 98.98C1176.32 99.4533 1176.4 99.9767 1176.4 100.55V107H1174.62V100.55C1174.62 99.7833 1174.44 99.19 1174.09 98.77C1173.74 98.3433 1173.21 98.13 1172.49 98.13C1171.96 98.13 1171.47 98.2567 1171.01 98.51C1170.55 98.7633 1170.13 99.1067 1169.75 99.54V107H1167.97ZM1184.69 96.71C1185.3 96.71 1185.86 96.8133 1186.37 97.02C1186.88 97.22 1187.33 97.5133 1187.7 97.9C1188.07 98.28 1188.36 98.7533 1188.57 99.32C1188.78 99.88 1188.89 100.52 1188.89 101.24C1188.89 101.52 1188.86 101.707 1188.8 101.8C1188.74 101.893 1188.63 101.94 1188.46 101.94H1181.72C1181.73 102.58 1181.82 103.137 1181.98 103.61C1182.14 104.083 1182.36 104.48 1182.64 104.8C1182.92 105.113 1183.25 105.35 1183.64 105.51C1184.03 105.663 1184.46 105.74 1184.94 105.74C1185.39 105.74 1185.77 105.69 1186.09 105.59C1186.42 105.483 1186.7 105.37 1186.93 105.25C1187.16 105.13 1187.36 105.02 1187.51 104.92C1187.67 104.813 1187.81 104.76 1187.92 104.76C1188.07 104.76 1188.18 104.817 1188.26 104.93L1188.76 105.58C1188.54 105.847 1188.28 106.08 1187.97 106.28C1187.66 106.473 1187.33 106.633 1186.98 106.76C1186.63 106.887 1186.27 106.98 1185.9 107.04C1185.53 107.107 1185.16 107.14 1184.79 107.14C1184.09 107.14 1183.44 107.023 1182.85 106.79C1182.26 106.55 1181.75 106.203 1181.32 105.75C1180.89 105.29 1180.56 104.723 1180.32 104.05C1180.08 103.377 1179.96 102.603 1179.96 101.73C1179.96 101.023 1180.07 100.363 1180.28 99.75C1180.5 99.1367 1180.81 98.6067 1181.22 98.16C1181.63 97.7067 1182.12 97.3533 1182.71 97.1C1183.3 96.84 1183.96 96.71 1184.69 96.71ZM1184.73 98.02C1183.87 98.02 1183.19 98.27 1182.7 98.77C1182.21 99.2633 1181.9 99.95 1181.78 100.83H1187.29C1187.29 100.417 1187.23 100.04 1187.12 99.7C1187.01 99.3533 1186.84 99.0567 1186.62 98.81C1186.4 98.5567 1186.13 98.3633 1185.81 98.23C1185.5 98.09 1185.14 98.02 1184.73 98.02ZM1192.31 100.25H1197.25V101.76H1192.31V100.25ZM1208.74 107H1207.95C1207.78 107 1207.64 106.973 1207.53 106.92C1207.43 106.867 1207.36 106.753 1207.32 106.58L1207.12 105.64C1206.86 105.88 1206.6 106.097 1206.34 106.29C1206.09 106.477 1205.82 106.637 1205.54 106.77C1205.26 106.897 1204.96 106.993 1204.64 107.06C1204.33 107.127 1203.98 107.16 1203.59 107.16C1203.2 107.16 1202.83 107.107 1202.48 107C1202.14 106.887 1201.85 106.72 1201.59 106.5C1201.34 106.28 1201.14 106.003 1200.98 105.67C1200.84 105.33 1200.76 104.93 1200.76 104.47C1200.76 104.07 1200.87 103.687 1201.09 103.32C1201.31 102.947 1201.67 102.617 1202.15 102.33C1202.65 102.043 1203.29 101.81 1204.08 101.63C1204.88 101.443 1205.85 101.337 1206.99 101.31V100.52C1206.99 99.7333 1206.82 99.14 1206.48 98.74C1206.15 98.3333 1205.65 98.13 1204.99 98.13C1204.56 98.13 1204.19 98.1867 1203.89 98.3C1203.6 98.4067 1203.34 98.53 1203.12 98.67C1202.91 98.8033 1202.72 98.9267 1202.56 99.04C1202.41 99.1467 1202.26 99.2 1202.1 99.2C1201.98 99.2 1201.88 99.17 1201.78 99.11C1201.7 99.0433 1201.63 98.9633 1201.57 98.87L1201.25 98.3C1201.81 97.76 1202.42 97.3567 1203.06 97.09C1203.71 96.8233 1204.43 96.69 1205.21 96.69C1205.78 96.69 1206.28 96.7833 1206.72 96.97C1207.16 97.1567 1207.53 97.4167 1207.83 97.75C1208.13 98.0833 1208.36 98.4867 1208.51 98.96C1208.67 99.4333 1208.74 99.9533 1208.74 100.52V107ZM1204.12 105.91C1204.44 105.91 1204.72 105.88 1204.98 105.82C1205.24 105.753 1205.49 105.663 1205.71 105.55C1205.95 105.43 1206.17 105.287 1206.37 105.12C1206.59 104.953 1206.79 104.763 1206.99 104.55V102.44C1206.17 102.467 1205.48 102.533 1204.9 102.64C1204.33 102.74 1203.86 102.873 1203.5 103.04C1203.14 103.207 1202.88 103.403 1202.71 103.63C1202.55 103.857 1202.47 104.11 1202.47 104.39C1202.47 104.657 1202.52 104.887 1202.6 105.08C1202.69 105.273 1202.81 105.433 1202.95 105.56C1203.1 105.68 1203.27 105.77 1203.47 105.83C1203.67 105.883 1203.89 105.91 1204.12 105.91ZM1211.56 96.87H1212.96C1213.11 96.87 1213.23 96.9067 1213.32 96.98C1213.42 97.0533 1213.48 97.14 1213.51 97.24L1215.45 103.76C1215.51 104 1215.56 104.233 1215.6 104.46C1215.65 104.68 1215.69 104.903 1215.72 105.13C1215.78 104.903 1215.84 104.68 1215.9 104.46C1215.97 104.233 1216.04 104 1216.11 103.76L1218.25 97.2C1218.29 97.1 1218.34 97.0167 1218.42 96.95C1218.51 96.8833 1218.62 96.85 1218.74 96.85H1219.51C1219.65 96.85 1219.76 96.8833 1219.84 96.95C1219.93 97.0167 1219.99 97.1 1220.02 97.2L1222.11 103.76C1222.19 103.993 1222.25 104.223 1222.3 104.45C1222.36 104.677 1222.42 104.9 1222.47 105.12C1222.51 104.9 1222.55 104.67 1222.6 104.43C1222.66 104.19 1222.71 103.967 1222.77 103.76L1224.75 97.24C1224.79 97.1333 1224.85 97.0467 1224.94 96.98C1225.04 96.9067 1225.15 96.87 1225.27 96.87H1226.61L1223.33 107H1221.92C1221.75 107 1221.63 106.887 1221.56 106.66L1219.32 99.79C1219.27 99.6367 1219.23 99.4833 1219.19 99.33C1219.16 99.17 1219.13 99.0133 1219.09 98.86C1219.06 99.0133 1219.03 99.17 1218.99 99.33C1218.96 99.49 1218.92 99.6467 1218.86 99.8L1216.59 106.66C1216.52 106.887 1216.38 107 1216.18 107H1214.84L1211.56 96.87ZM1233.81 96.71C1234.41 96.71 1234.97 96.8133 1235.49 97.02C1236 97.22 1236.44 97.5133 1236.82 97.9C1237.19 98.28 1237.48 98.7533 1237.69 99.32C1237.9 99.88 1238.01 100.52 1238.01 101.24C1238.01 101.52 1237.98 101.707 1237.92 101.8C1237.86 101.893 1237.74 101.94 1237.58 101.94H1230.84C1230.85 102.58 1230.94 103.137 1231.1 103.61C1231.26 104.083 1231.48 104.48 1231.76 104.8C1232.04 105.113 1232.37 105.35 1232.76 105.51C1233.14 105.663 1233.58 105.74 1234.06 105.74C1234.5 105.74 1234.89 105.69 1235.21 105.59C1235.53 105.483 1235.81 105.37 1236.05 105.25C1236.28 105.13 1236.47 105.02 1236.63 104.92C1236.79 104.813 1236.92 104.76 1237.04 104.76C1237.18 104.76 1237.3 104.817 1237.38 104.93L1237.88 105.58C1237.66 105.847 1237.39 106.08 1237.09 106.28C1236.78 106.473 1236.45 106.633 1236.1 106.76C1235.75 106.887 1235.39 106.98 1235.02 107.04C1234.64 107.107 1234.27 107.14 1233.91 107.14C1233.21 107.14 1232.56 107.023 1231.97 106.79C1231.38 106.55 1230.87 106.203 1230.44 105.75C1230.01 105.29 1229.68 104.723 1229.44 104.05C1229.2 103.377 1229.08 102.603 1229.08 101.73C1229.08 101.023 1229.18 100.363 1229.4 99.75C1229.62 99.1367 1229.93 98.6067 1230.34 98.16C1230.74 97.7067 1231.24 97.3533 1231.83 97.1C1232.41 96.84 1233.07 96.71 1233.81 96.71ZM1233.85 98.02C1232.99 98.02 1232.31 98.27 1231.82 98.77C1231.32 99.2633 1231.02 99.95 1230.9 100.83H1236.41C1236.41 100.417 1236.35 100.04 1236.24 99.7C1236.12 99.3533 1235.96 99.0567 1235.74 98.81C1235.52 98.5567 1235.25 98.3633 1234.93 98.23C1234.61 98.09 1234.25 98.02 1233.85 98.02ZM1247.68 98.54C1247.6 98.6867 1247.48 98.76 1247.31 98.76C1247.21 98.76 1247.1 98.7233 1246.97 98.65C1246.85 98.5767 1246.69 98.4967 1246.5 98.41C1246.32 98.3167 1246.11 98.2333 1245.85 98.16C1245.6 98.08 1245.3 98.04 1244.95 98.04C1244.65 98.04 1244.38 98.08 1244.14 98.16C1243.9 98.2333 1243.7 98.3367 1243.52 98.47C1243.36 98.6033 1243.23 98.76 1243.13 98.94C1243.05 99.1133 1243 99.3033 1243 99.51C1243 99.77 1243.08 99.9867 1243.22 100.16C1243.38 100.333 1243.58 100.483 1243.82 100.61C1244.07 100.737 1244.35 100.85 1244.66 100.95C1244.98 101.043 1245.3 101.147 1245.62 101.26C1245.96 101.367 1246.28 101.487 1246.59 101.62C1246.91 101.753 1247.19 101.92 1247.43 102.12C1247.68 102.32 1247.88 102.567 1248.02 102.86C1248.18 103.147 1248.25 103.493 1248.25 103.9C1248.25 104.367 1248.17 104.8 1248 105.2C1247.84 105.593 1247.59 105.937 1247.26 106.23C1246.94 106.517 1246.54 106.743 1246.06 106.91C1245.59 107.077 1245.04 107.16 1244.42 107.16C1243.72 107.16 1243.08 107.047 1242.5 106.82C1241.93 106.587 1241.44 106.29 1241.04 105.93L1241.46 105.25C1241.52 105.163 1241.58 105.097 1241.65 105.05C1241.73 105.003 1241.82 104.98 1241.94 104.98C1242.06 104.98 1242.19 105.027 1242.32 105.12C1242.46 105.213 1242.62 105.317 1242.8 105.43C1243 105.543 1243.23 105.647 1243.49 105.74C1243.77 105.833 1244.11 105.88 1244.51 105.88C1244.86 105.88 1245.16 105.837 1245.42 105.75C1245.68 105.657 1245.9 105.533 1246.07 105.38C1246.25 105.227 1246.37 105.05 1246.45 104.85C1246.54 104.65 1246.58 104.437 1246.58 104.21C1246.58 103.93 1246.51 103.7 1246.35 103.52C1246.21 103.333 1246.01 103.177 1245.76 103.05C1245.52 102.917 1245.23 102.803 1244.91 102.71C1244.6 102.61 1244.28 102.507 1243.94 102.4C1243.62 102.293 1243.29 102.173 1242.97 102.04C1242.66 101.9 1242.38 101.727 1242.13 101.52C1241.89 101.313 1241.69 101.06 1241.53 100.76C1241.39 100.453 1241.31 100.083 1241.31 99.65C1241.31 99.2633 1241.39 98.8933 1241.55 98.54C1241.71 98.18 1241.95 97.8667 1242.25 97.6C1242.56 97.3267 1242.94 97.11 1243.38 96.95C1243.83 96.79 1244.34 96.71 1244.91 96.71C1245.58 96.71 1246.18 96.8167 1246.7 97.03C1247.24 97.2367 1247.7 97.5233 1248.08 97.89L1247.68 98.54ZM1256.26 96.71C1257 96.71 1257.66 96.8333 1258.26 97.08C1258.86 97.3267 1259.36 97.6767 1259.78 98.13C1260.2 98.5833 1260.52 99.1333 1260.74 99.78C1260.96 100.42 1261.08 101.137 1261.08 101.93C1261.08 102.73 1260.96 103.45 1260.74 104.09C1260.52 104.73 1260.2 105.277 1259.78 105.73C1259.36 106.183 1258.86 106.533 1258.26 106.78C1257.66 107.02 1257 107.14 1256.26 107.14C1255.52 107.14 1254.85 107.02 1254.25 106.78C1253.65 106.533 1253.15 106.183 1252.73 105.73C1252.31 105.277 1251.98 104.73 1251.76 104.09C1251.53 103.45 1251.42 102.73 1251.42 101.93C1251.42 101.137 1251.53 100.42 1251.76 99.78C1251.98 99.1333 1252.31 98.5833 1252.73 98.13C1253.15 97.6767 1253.65 97.3267 1254.25 97.08C1254.85 96.8333 1255.52 96.71 1256.26 96.71ZM1256.26 105.75C1257.26 105.75 1258 105.417 1258.5 104.75C1258.99 104.077 1259.24 103.14 1259.24 101.94C1259.24 100.733 1258.99 99.7933 1258.5 99.12C1258 98.4467 1257.26 98.11 1256.26 98.11C1255.75 98.11 1255.31 98.1967 1254.94 98.37C1254.56 98.5433 1254.25 98.7933 1254 99.12C1253.75 99.4467 1253.56 99.85 1253.44 100.33C1253.32 100.803 1253.26 101.34 1253.26 101.94C1253.26 102.54 1253.32 103.077 1253.44 103.55C1253.56 104.023 1253.75 104.423 1254 104.75C1254.25 105.07 1254.56 105.317 1254.94 105.49C1255.31 105.663 1255.75 105.75 1256.26 105.75ZM1264.87 107V96.87H1265.93C1266.18 96.87 1266.34 96.9933 1266.41 97.24L1266.54 98.28C1266.91 97.82 1267.33 97.4433 1267.79 97.15C1268.26 96.8567 1268.8 96.71 1269.41 96.71C1270.1 96.71 1270.65 96.9 1271.07 97.28C1271.5 97.66 1271.8 98.1733 1271.99 98.82C1272.13 98.4533 1272.31 98.1367 1272.54 97.87C1272.77 97.6033 1273.03 97.3833 1273.32 97.21C1273.61 97.0367 1273.91 96.91 1274.23 96.83C1274.56 96.75 1274.89 96.71 1275.22 96.71C1275.75 96.71 1276.23 96.7967 1276.64 96.97C1277.06 97.1367 1277.41 97.3833 1277.7 97.71C1277.99 98.0367 1278.22 98.44 1278.37 98.92C1278.52 99.3933 1278.6 99.9367 1278.6 100.55V107H1276.82V100.55C1276.82 99.7567 1276.65 99.1567 1276.3 98.75C1275.95 98.3367 1275.45 98.13 1274.79 98.13C1274.5 98.13 1274.22 98.1833 1273.95 98.29C1273.69 98.39 1273.46 98.54 1273.26 98.74C1273.06 98.94 1272.9 99.1933 1272.78 99.5C1272.67 99.8 1272.61 100.15 1272.61 100.55V107H1270.83V100.55C1270.83 99.7367 1270.67 99.13 1270.34 98.73C1270.01 98.33 1269.54 98.13 1268.91 98.13C1268.47 98.13 1268.06 98.25 1267.68 98.49C1267.31 98.7233 1266.96 99.0433 1266.65 99.45V107H1264.87ZM1286.91 96.71C1287.51 96.71 1288.07 96.8133 1288.59 97.02C1289.1 97.22 1289.54 97.5133 1289.92 97.9C1290.29 98.28 1290.58 98.7533 1290.79 99.32C1291 99.88 1291.11 100.52 1291.11 101.24C1291.11 101.52 1291.08 101.707 1291.02 101.8C1290.96 101.893 1290.84 101.94 1290.68 101.94H1283.94C1283.95 102.58 1284.04 103.137 1284.2 103.61C1284.36 104.083 1284.58 104.48 1284.86 104.8C1285.14 105.113 1285.47 105.35 1285.86 105.51C1286.24 105.663 1286.68 105.74 1287.16 105.74C1287.6 105.74 1287.99 105.69 1288.31 105.59C1288.63 105.483 1288.91 105.37 1289.15 105.25C1289.38 105.13 1289.57 105.02 1289.73 104.92C1289.89 104.813 1290.02 104.76 1290.14 104.76C1290.28 104.76 1290.4 104.817 1290.48 104.93L1290.98 105.58C1290.76 105.847 1290.49 106.08 1290.19 106.28C1289.88 106.473 1289.55 106.633 1289.2 106.76C1288.85 106.887 1288.49 106.98 1288.12 107.04C1287.74 107.107 1287.37 107.14 1287.01 107.14C1286.31 107.14 1285.66 107.023 1285.07 106.79C1284.48 106.55 1283.97 106.203 1283.54 105.75C1283.11 105.29 1282.78 104.723 1282.54 104.05C1282.3 103.377 1282.18 102.603 1282.18 101.73C1282.18 101.023 1282.28 100.363 1282.5 99.75C1282.72 99.1367 1283.03 98.6067 1283.44 98.16C1283.84 97.7067 1284.34 97.3533 1284.93 97.1C1285.51 96.84 1286.17 96.71 1286.91 96.71ZM1286.95 98.02C1286.09 98.02 1285.41 98.27 1284.92 98.77C1284.42 99.2633 1284.12 99.95 1284 100.83H1289.51C1289.51 100.417 1289.45 100.04 1289.34 99.7C1289.22 99.3533 1289.06 99.0567 1288.84 98.81C1288.62 98.5567 1288.35 98.3633 1288.03 98.23C1287.71 98.09 1287.35 98.02 1286.95 98.02Z" fill="white"/>
<path d="M42 300L44.252 305.5C45.656 308.92 47.564 317.468 47.124 321.5C41.672 324.86 38.328 328.14 35.748 330.876C32.596 328.328 26.36 324 16 324H12V328C12 335.656 14.764 341.876 15.752 344C14.752 346.108 12 352.108 12 360V364H16C26.28 364 32.592 359.656 35.752 357.124C40.484 362 47.232 367.14 55.752 371C55.376 373.484 55.08 376.952 56.124 381L56.876 384H60C64.936 384 69.188 381.548 72.624 379.376C75.436 377.592 76.796 376.344 77.5 375.748C93.408 375.188 103.564 366.608 109 358.124C114.624 349.36 116 340.624 116 340.624L116.124 339.624L115.752 338.624C115.752 338.624 106.592 313.468 81.752 312.248C79.112 309.048 75.42 306.392 70.252 304.248C64.14 301.72 56.452 300 48 300H42ZM53.624 308.5C58.672 309.06 63.392 310.08 67.124 311.624C72.236 313.736 75.796 316.764 76.624 318.124L77.752 320H80C99.984 320 107.172 338.92 107.752 340.5C107.472 341.968 106.312 347.548 102.252 353.876C97.608 361.108 90.092 368 76 368H74.5L73.376 369C73.376 369 71.264 370.8 68.376 372.624C66.856 373.58 65.564 373.752 64 374.376C64.16 372.548 64 369.876 64 369.876L64.876 366.376L61.624 365.248C51.72 361.468 43.296 354.344 39 349.376L36.248 346.124L33.248 349.124C33.248 349.124 27.92 352.86 21 354.624C22.032 349.936 23.624 345.752 23.624 345.752L24.5 344L23.624 342.248C23.624 342.248 21.892 337.656 20.876 332.748C28.248 334.376 33.248 338.876 33.248 338.876L36.248 341.876L39 338.624C42.58 334.58 52.22 324.5 66.376 322.624L65.248 314.748C61.42 315.252 58.08 316.36 54.876 317.628C54.672 314.268 54.5 311.376 53.624 308.5ZM90 336C88.4087 336 86.8826 336.632 85.7574 337.757C84.6321 338.883 84 340.409 84 342C84 343.591 84.6321 345.117 85.7574 346.243C86.8826 347.368 88.4087 348 90 348C91.5913 348 93.1174 347.368 94.2426 346.243C95.3679 345.117 96 343.591 96 342C96 340.409 95.3679 338.883 94.2426 337.757C93.1174 336.632 91.5913 336 90 336Z" fill="white"/>
<path d="M304 294C293.672 294 284.484 299.752 278.124 308.5C271.764 317.252 268 329.06 268 342C268 354.936 271.764 366.752 278.124 375.5C284.484 384.252 293.672 390 304 390C336.92 390 354.468 371.172 358.752 351.376C361.76 349.2 364 345.984 364 342C364 338.016 361.764 334.8 358.748 332.624C354.24 312.328 333.252 294 304 294ZM304 302C311.344 302 318.16 306.064 323.376 313.252C328.592 320.432 332 330.64 332 342C332 353.36 328.592 363.56 323.376 370.752C318.156 377.932 311.344 382 304 382C296.656 382 289.84 377.936 284.624 370.748C279.408 363.568 276 353.36 276 342C276 330.64 279.408 320.44 284.624 313.248C289.844 306.064 296.656 302 304 302ZM329.5 308.124C341.66 314.564 349.468 325.156 351.376 335.5L351.748 337.5L353.628 338.376C355.016 339.016 356 340.36 356 342C356 343.64 355.016 344.984 353.624 345.624L351.752 346.5L351.376 348.5C349.248 360.08 342.264 371.436 328.248 377.5C328.796 376.844 329.36 376.204 329.876 375.5C336.236 366.748 340 354.94 340 342C340 329.064 336.236 317.248 329.876 308.5C329.764 308.36 329.608 308.264 329.5 308.124ZM304 310C301.14 310 298.452 311.032 296 312.752L304.124 331.872L312.376 312.872C309.84 311.02 306.968 310 304 310ZM290 319.124C286.86 324.044 284.704 330.644 284.124 338H298L290 319.124ZM318.252 319.5L310.12 338H323.872C323.312 330.812 321.276 324.392 318.244 319.5H318.252ZM284.12 346C284.68 353.188 286.716 359.608 289.744 364.5L297.88 346H284.12ZM309.996 346L317.996 364.876C321.136 359.956 323.292 353.356 323.872 346H309.996ZM303.872 352.124L295.62 371.124C298.152 372.984 301.028 374 303.996 374C306.856 374 309.544 372.968 311.996 371.248L303.872 352.124Z" fill="white"/>
<path d="M603.5 290.624L599 297.248C599 297.248 601.452 299.156 602.624 301.876C603.64 304.264 604.376 307.064 600.5 311.748L597 315.252C585.22 305.22 573.248 304.748 573.248 304.748H571L569.748 306.748C569.748 306.748 559.548 324.092 549.748 342C544.848 350.952 540 360.064 536.632 367.252C534.94 370.844 533.612 373.972 532.752 376.5C532.332 377.764 532.032 378.828 531.88 380C531.72 381.172 531.284 382.78 533.252 384.752C535.224 386.72 536.832 386.28 538.004 386.124C539.176 385.968 540.24 385.672 541.504 385.252C544.036 384.392 547.16 383.064 550.756 381.372C557.932 378 567.044 373.16 576 368.256C593.892 358.44 611.252 348.256 611.252 348.256L613.252 347.004V344.628C613.252 344.628 612.72 332.8 602.752 321.004L604.124 319.504C604.468 319.16 604.78 318.924 605.124 318.628L606.124 317.752C610.844 314.128 615.312 314.272 619.252 315.256C621.985 315.947 624.569 317.131 626.876 318.752L631.876 312.504C631.876 312.504 627.436 309.084 621.124 307.504C619.728 307.176 618.307 306.967 616.876 306.88L625 298.752L619.248 293.004L610.876 301.38C610.674 300.436 610.38 299.515 610 298.628C607.748 293.38 603.5 290.628 603.5 290.628V290.624ZM575.248 313.248C577.876 313.5 585.392 314.592 594.376 323.624C603.376 332.688 604.484 340.144 604.748 342.748C604.092 343.14 600.672 345.204 598 346.748C596.583 343.605 594.821 340.63 592.748 337.876L586.376 342.752C589.188 346.5 590.344 349.08 591 350.752C584.735 354.301 578.443 357.801 572.124 361.252C571.736 361.452 571.392 361.672 571 361.876C570.264 359.688 569.064 357.048 566.876 354L560.376 358.624C562.344 361.376 563.312 363.64 563.752 365.124C563.828 365.376 563.828 365.436 563.872 365.624C557.892 368.828 552.112 371.904 547.376 374.124C544.908 375.284 543.156 375.924 541.376 376.624C542.08 374.844 542.72 373.092 543.876 370.624C547.108 363.736 551.892 354.752 556.748 345.876C559.092 341.596 560.876 338.392 563 334.624C564.28 335.748 565.936 337.264 567.752 339.624L574 334.748C571.971 332.055 569.62 329.621 567 327.5C571.188 320.156 574.532 314.484 575.252 313.248H575.248Z" fill="white"/>
<path d="M1476.23 326C1471.71 326 1468 329.709 1468 334.233V345.767C1468 350.286 1471.71 354 1476.23 354H1487.77C1492.29 354 1496 350.291 1496 345.767V334.235C1496 329.714 1492.29 326 1487.77 326H1476.23ZM1476.23 328.545H1487.77C1488.51 328.544 1489.25 328.691 1489.94 328.976C1490.64 329.262 1491.26 329.681 1491.79 330.209C1492.32 330.737 1492.74 331.365 1493.02 332.055C1493.31 332.746 1493.46 333.486 1493.45 334.233V345.767C1493.46 346.514 1493.31 347.254 1493.02 347.945C1492.74 348.635 1492.32 349.263 1491.79 349.791C1491.26 350.319 1490.64 350.738 1489.94 351.024C1489.25 351.309 1488.51 351.456 1487.77 351.455H1476.23C1475.49 351.456 1474.75 351.309 1474.06 351.024C1473.37 350.739 1472.74 350.32 1472.21 349.791C1471.68 349.263 1471.26 348.635 1470.98 347.945C1470.69 347.254 1470.54 346.514 1470.55 345.767C1470.55 345.767 1470.55 334.982 1470.55 334.235C1470.54 333.487 1470.69 332.747 1470.98 332.056C1471.26 331.366 1471.68 330.738 1472.21 330.21C1472.74 329.681 1473.36 329.262 1474.06 328.976C1474.75 328.691 1475.49 328.544 1476.23 328.545ZM1489.52 331.33C1489.37 331.33 1489.21 331.359 1489.07 331.417C1488.93 331.474 1488.81 331.559 1488.7 331.666C1488.59 331.774 1488.51 331.901 1488.45 332.041C1488.39 332.181 1488.36 332.332 1488.36 332.483C1488.36 333.125 1488.88 333.636 1489.52 333.636C1489.67 333.637 1489.82 333.608 1489.96 333.55C1490.1 333.493 1490.23 333.408 1490.33 333.301C1490.44 333.193 1490.53 333.066 1490.58 332.926C1490.64 332.785 1490.67 332.635 1490.67 332.483C1490.67 332.332 1490.64 332.181 1490.58 332.041C1490.53 331.901 1490.44 331.773 1490.33 331.666C1490.23 331.559 1490.1 331.474 1489.96 331.416C1489.82 331.359 1489.67 331.329 1489.52 331.33ZM1482 332.364C1477.8 332.364 1474.36 335.8 1474.36 340C1474.36 344.2 1477.8 347.636 1482 347.636C1486.2 347.636 1489.64 344.2 1489.64 340C1489.64 335.8 1486.2 332.364 1482 332.364ZM1482 334.909C1484.83 334.909 1487.09 337.171 1487.09 340C1487.09 342.829 1484.83 345.091 1482 345.091C1479.17 345.091 1476.91 342.829 1476.91 340C1476.91 337.171 1479.17 334.909 1482 334.909Z" fill="white"/>
<path d="M1656 328.61C1654.95 329.058 1653.84 329.352 1652.7 329.481C1653.9 328.788 1654.8 327.696 1655.23 326.411C1654.1 327.057 1652.87 327.513 1651.58 327.759C1650.79 326.946 1649.77 326.38 1648.64 326.135C1647.52 325.891 1646.34 325.979 1645.27 326.389C1644.2 326.798 1643.28 327.51 1642.63 328.432C1641.98 329.353 1641.64 330.442 1641.64 331.556C1641.64 331.993 1641.69 332.416 1641.79 332.82C1639.51 332.712 1637.27 332.139 1635.23 331.139C1633.19 330.14 1631.39 328.736 1629.95 327.019C1629.44 327.866 1629.17 328.83 1629.17 329.812C1629.17 331.737 1630.18 333.437 1631.73 334.433C1630.81 334.405 1629.92 334.166 1629.12 333.736V333.807C1629.12 335.09 1629.58 336.333 1630.42 337.325C1631.26 338.318 1632.43 338.998 1633.73 339.252C1632.89 339.476 1632 339.509 1631.14 339.349C1631.51 340.452 1632.22 341.417 1633.18 342.108C1634.14 342.8 1635.3 343.185 1636.5 343.207C1635.31 344.111 1633.95 344.779 1632.49 345.173C1631.03 345.567 1629.5 345.679 1628 345.502C1630.63 347.135 1633.68 348.003 1636.8 348C1647.37 348 1653.15 339.538 1653.15 332.199C1653.15 331.962 1653.14 331.719 1653.13 331.481C1654.26 330.695 1655.23 329.723 1656 328.611V328.61Z" fill="white"/>
<path d="M1790.36 326C1789.07 326 1788 327.071 1788 328.364V349.636C1788 350.929 1789.07 352 1790.36 352H1811.64C1812.93 352 1814 350.929 1814 349.636V328.364C1814 327.071 1812.93 326 1811.64 326H1790.36ZM1790.36 328.364H1811.64V349.636H1805.51V341.659H1808.57L1809.01 338.114H1805.51V335.823C1805.51 334.79 1805.76 334.088 1807.24 334.088H1809.16V330.875C1808.83 330.834 1807.7 330.764 1806.39 330.764C1803.67 330.764 1801.81 332.403 1801.81 335.455V338.114H1798.71V341.659H1801.81V349.636H1790.36V328.364Z" fill="white"/>
<path d="M929.5 327.5L942 340L954.5 327.5" stroke="white" stroke-width="2"/>
<path d="M784 326C789.512 326 794 330.488 794 336C794 338.395 793.16 340.59 791.75 342.313L799.719 350.28L798.28 351.72L790.312 343.751C788.532 345.21 786.301 346.005 784 346C778.488 346 774 341.512 774 336C774 330.488 778.488 326 784 326ZM784 328C779.57 328 776 331.57 776 336C776 340.43 779.57 344 784 344C788.43 344 792 340.43 792 336C792 331.57 788.43 328 784 328Z" fill="white"/>
<path d="M1122.05 311.982L1119.32 314.77L1127.62 323.063H1088.75V326.938H1127.62L1119.33 335.232L1122.05 338.019L1135.07 325L1122.05 311.982Z" fill="white"/>
<path d="M1291.76 311.982L1294.49 314.77L1286.19 323.063H1325.07V326.938H1286.19L1294.49 335.232L1291.76 338.019L1278.75 325L1291.76 311.982Z" fill="white"/>
</svg>
