<?xml version="1.0" encoding="utf-8"?><svg version="1.1" id="Layer_1" xmlns="http://www.w3.org/2000/svg" xmlns:xlink="http://www.w3.org/1999/xlink" x="0px" y="0px" viewBox="0 0 67.42 122.88" style="enable-background:new 0 0 67.42 122.88" xml:space="preserve"><style type="text/css"><![CDATA[
	.st0{fill-rule:evenodd;clip-rule:evenodd;}
]]></style><g><path class="st0" d="M43.89,25.04c-0.25-2.56-2.73-4.32-4.97-5.92c-1.05-0.74-2.04-1.45-2.87-2.25c-2.13-2.06-2.95-4.29-0.17-7.41 C33.69,9,31.53,8.96,29.53,9.29c-2.17,0.37-4.17,1.18-5.83,2.39c-1.64,1.2-2.95,2.78-3.76,4.71c-0.94,2.23-1.22,4.91-0.58,7.99 c0.15,0.76-0.4,1.5-1.25,1.63h-0.05l0,0c-1.24,0.17-2.37,0.5-3.35,0.96c-1.88,0.88-3.29,2.25-4.14,3.91 c-0.86,1.68-1.16,3.68-0.81,5.8c0.23,1.36,0.73,2.76,1.53,4.16c0.39,0.69,0.09,1.54-0.67,1.9c-0.11,0.06-0.23,0.09-0.35,0.11 c-2.31,0.59-4.11,1.61-5.33,2.91c-0.84,0.89-1.4,1.93-1.66,3.03c-0.26,1.13-0.21,2.35,0.17,3.6c0.51,1.66,1.6,3.39,3.34,5.07h0.6 l0.08,0.63c0.2,0.17,0.4,0.34,0.61,0.51h48.25c0.4-0.2,0.78-0.41,1.13-0.63l0.07-0.51h0.68c1.16-0.87,2.01-1.9,2.59-3.01 c0.94-1.8,1.18-3.82,0.84-5.79c-0.35-2-1.3-3.92-2.73-5.47c-1.52-1.65-3.57-2.89-6.02-3.33c-0.03,0-0.05-0.01-0.08-0.02 c-2.02,0.54-4.3,1.45-6.7,2.42c-7.07,2.84-15.14,6.08-22.76,2.57c-0.77-0.35-1.07-1.21-0.68-1.9c0.39-0.69,1.32-0.97,2.09-0.62 c6.31,2.92,13.65-0.04,20.09-2.63c2.48-1,4.84-1.95,7.06-2.54c0.57-2.86,0.23-5.02-0.83-6.62c-1.03-1.55-2.79-2.65-5.09-3.42 c-2.51,2-5.25,3.42-7.96,4.11c-2.84,0.72-5.66,0.64-8.19-0.38c-0.78-0.31-1.14-1.15-0.79-1.86c0.35-0.71,1.27-1.03,2.05-0.71 c1.84,0.74,3.94,0.79,6.1,0.24C39.45,27.95,41.74,26.75,43.89,25.04L43.89,25.04L43.89,25.04z M20.13,100.37 c-0.13-0.86,0.45-1.66,1.31-1.79s1.66,0.45,1.79,1.31l0.36,2.3c0.13,0.85-0.45,1.66-1.31,1.79c-0.85,0.13-1.66-0.45-1.79-1.31 L20.13,100.37L20.13,100.37z M18.38,84.95c-0.12-0.86,0.48-1.65,1.33-1.78c0.86-0.12,1.65,0.47,1.78,1.33l1.26,8.82 c0.12,0.86-0.48,1.65-1.33,1.78c-0.86,0.12-1.65-0.48-1.78-1.33L18.38,84.95L18.38,84.95z M10.04,75.46c-0.1,0-0.21,0-0.31-0.01 l3.55,27.12l0.48,3.66l0.74,5.63c0.01,0.05,0.01,0.1,0.02,0.15l0,0c0.13,2.55,0.79,4.42,1.99,5.57c1.17,1.13,2.96,1.67,5.41,1.59 h0.06v-0.01h15.4c0.34,0,1.12,0.02,1.92,0.03c3.25,0.08,7.04,0.17,9.06-1.66c1.78-1.61,2.08-4.72,2.36-7.56 c0.07-0.7,0.14-1.39,0.23-2.05l0.22-1.71l0.48-3.66l5.37-41.15c-0.1,0.02-0.2,0.02-0.31,0.02H7.91l1.44,11 c0.16-0.07,0.34-0.11,0.53-0.12c0.56-0.03,1.02-0.12,1.42-0.24c0.39-0.12,0.72-0.26,1.01-0.43c4.25-2.32,7.96-1.39,11.31-0.54 c3.03,0.76,5.69,1.43,7.76-1.71c0.48-0.72,1.45-0.92,2.17-0.45c0.72,0.48,0.92,1.45,0.45,2.17c-3.3,5.02-6.97,4.1-11.14,3.04 c-2.8-0.71-5.89-1.48-9.05,0.25c-0.47,0.26-1.01,0.5-1.63,0.68C11.57,75.28,10.86,75.41,10.04,75.46L10.04,75.46z M46.45,22.63 l3.53-13.95c0.11-0.47,0.33-0.9,0.61-1.27c0.28-0.36,0.64-0.66,1.05-0.87l10.98-6.16c0.77-0.41,1.63-0.48,2.41-0.26 c0.8,0.22,1.52,0.76,1.96,1.54l0.03,0.06c0.41,0.77,0.49,1.63,0.27,2.42c-0.23,0.8-0.76,1.52-1.54,1.96l-9.78,5.48L52,27.11 c0.68,0.59,1.27,1.24,1.76,1.98c1.43,2.15,1.93,4.89,1.26,8.39c2.52,0.75,4.65,2.16,6.28,3.93c1.79,1.95,2.97,4.34,3.42,6.83 c0.44,2.51,0.13,5.11-1.1,7.44c-0.63,1.2-1.49,2.32-2.62,3.31l-6.46,49.41c-0.08,0.61-0.14,1.26-0.21,1.92 c-0.35,3.51-0.72,7.36-3.53,9.92c-3.09,2.81-7.67,2.7-11.6,2.61c-0.49-0.01-0.98-0.03-1.84-0.03H21.96v-0.01 c-3.45,0.1-6.12-0.79-8.01-2.63l-0.09-0.09c-0.03-0.03-0.06-0.06-0.09-0.09c-0.03-0.03-0.06-0.06-0.09-0.09l-0.09-0.09l-0.08-0.09 l-0.08-0.09c-0.03-0.04-0.05-0.06-0.08-0.1l-0.08-0.09l-0.08-0.1l-0.08-0.09l-0.08-0.1l-0.07-0.09l-0.07-0.1l-0.07-0.1l-0.07-0.1 l-0.07-0.1l-0.07-0.1l-0.07-0.1v0l-0.06-0.1l-0.06-0.11l-0.06-0.11l0,0l-0.06-0.11l-0.06-0.11l-0.06-0.11l-0.06-0.11l-0.05-0.11 l0,0l-0.05-0.12l-0.05-0.12l-0.05-0.12l-0.05-0.12l0,0l-0.05-0.12l-0.05-0.12l-0.04-0.12l-0.04-0.13l-0.04-0.13l-0.04-0.13l0,0 l-0.04-0.13l-0.04-0.13l-0.04-0.13l-0.03-0.13l0,0l-0.03-0.14l-0.04-0.14l0,0l-0.03-0.14l0,0l-0.03-0.14l0,0l-0.04-0.14l-0.03-0.14 l0,0l-0.03-0.14l0,0l-0.03-0.14l-0.03-0.15l0,0l-0.03-0.15l0,0l-0.03-0.15l-0.03-0.15l0,0l-0.03-0.15l0,0l-0.02-0.15l0,0 l-0.02-0.15l0,0L11,113.51l0,0l-0.02-0.16l-0.02-0.16l0,0l-0.02-0.16l-0.02-0.16l-0.02-0.16l-0.01-0.16l-0.01-0.17l-0.01-0.16 l-1-7.46c-0.02-0.1-0.04-0.2-0.04-0.3L3.87,58.76c-1.73-1.83-2.86-3.74-3.43-5.6c-0.52-1.7-0.57-3.37-0.22-4.92 c0.37-1.58,1.16-3.03,2.33-4.28c1.29-1.38,3.05-2.52,5.21-3.29c-0.53-1.21-0.89-2.4-1.1-3.57c-0.45-2.66-0.05-5.22,1.08-7.4 c1.14-2.21,3.03-4.04,5.53-5.22c0.86-0.4,1.79-0.73,2.78-0.97c-0.41-3.06-0.02-5.8,0.96-8.13c1.02-2.4,2.66-4.4,4.73-5.9 c2.06-1.49,4.53-2.51,7.22-2.95c3.25-0.55,6.8-0.29,10.29,0.92c0.21,0.08,0.41,0.19,0.57,0.35c0.58,0.57,0.55,1.45-0.07,2 c-2.94,2.5-2.71,3.93-1.46,5.15c0.67,0.62,1.58,1.27,2.54,1.96l0,0C43.03,18.46,45.4,20.14,46.45,22.63L46.45,22.63z M23.8,20.27 c0.67,0,1.21,0.49,1.21,1.1c0,0.61-0.54,1.1-1.21,1.1s-1.21-0.49-1.21-1.1C22.59,20.75,23.13,20.27,23.8,20.27L23.8,20.27 L23.8,20.27z M31.35,49.6c0.76,0,1.37,0.56,1.37,1.24c0,0.69-0.62,1.24-1.37,1.24c-0.76,0-1.37-0.56-1.37-1.24 C29.97,50.16,30.59,49.6,31.35,49.6L31.35,49.6L31.35,49.6z M14.05,47.39c0.76,0,1.37,0.56,1.37,1.24c0,0.69-0.62,1.24-1.37,1.24 c-0.76,0-1.37-0.56-1.37-1.24C12.67,47.95,13.29,47.39,14.05,47.39L14.05,47.39L14.05,47.39z M53.07,48.58 c0.76,0,1.38,0.56,1.38,1.25c0,0.69-0.62,1.24-1.38,1.24s-1.37-0.56-1.37-1.24C51.7,49.15,52.31,48.58,53.07,48.58L53.07,48.58 L53.07,48.58z M24.87,53.24c-0.27-0.29-0.23-0.73,0.09-0.98s0.8-0.21,1.08,0.09l1.76,1.9c0.27,0.29,0.23,0.73-0.09,0.98 c-0.32,0.25-0.8,0.21-1.08-0.09L24.87,53.24L24.87,53.24L24.87,53.24z M7.56,51.03c-0.28-0.29-0.23-0.73,0.09-0.98 c0.32-0.25,0.8-0.21,1.08,0.09l1.76,1.9c0.27,0.29,0.23,0.73-0.09,0.98c-0.32,0.25-0.8,0.21-1.08-0.09L7.56,51.03L7.56,51.03 L7.56,51.03z M46.59,52.23c-0.27-0.29-0.23-0.73,0.09-0.98c0.32-0.25,0.8-0.21,1.08,0.09l1.76,1.9c0.27,0.3,0.23,0.73-0.09,0.98 c-0.32,0.25-0.8,0.21-1.08-0.09L46.59,52.23L46.59,52.23L46.59,52.23z"/></g></svg>