<?xml version="1.0" encoding="utf-8"?><svg version="1.1" id="Layer_1" xmlns="http://www.w3.org/2000/svg" xmlns:xlink="http://www.w3.org/1999/xlink" x="0px" y="0px" viewBox="0 0 114.55 122.88" style="enable-background:new 0 0 114.55 122.88" xml:space="preserve"><g><path d="M77.22,64.93c2.08,0,3.96,0.84,5.32,2.2c1.36,1.36,2.2,3.24,2.2,5.32c0,2.08-0.84,3.96-2.2,5.32 c-1.36,1.36-3.24,2.2-5.32,2.2c-2.08,0-3.96-0.84-5.32-2.2c-1.36-1.36-2.2-3.24-2.2-5.32c0-2.08,0.84-3.96,2.2-5.32 C73.26,65.78,75.15,64.93,77.22,64.93L77.22,64.93z M53.63,68.61l31.6-17.3l0.03-0.01l8.25-4.51c0.78-0.43,1.76-0.14,2.19,0.65 c3.25,5.93,5.25,12.38,5.96,18.97c0.71,6.54,0.15,13.22-1.71,19.67c-0.02,0.1-0.05,0.19-0.08,0.29 c-3.98,13.44-13,24.01-24.41,30.26c-11.4,6.24-25.17,8.15-38.63,4.25c-0.1-0.02-0.2-0.05-0.29-0.09 c-13.44-3.98-24.01-13-30.26-24.41C0.01,84.93-1.89,71.1,2.06,57.59l0-0.01c3.95-13.51,13.01-24.13,24.45-30.4 c11.44-6.26,25.27-8.16,38.78-4.21c0.86,0.25,1.35,1.14,1.1,2l0,0L53.63,68.61L53.63,68.61z M83.28,8.11 c4.73,1.87,9.05,4.39,12.88,7.42c4.1,3.24,7.63,7.08,10.52,11.33l4.04-2.21c-2.9-4.89-6.67-9.28-11.17-12.9 c-4.35-3.5-9.38-6.28-14.96-8.12L83.28,8.11L83.28,8.11z M103.84,28.43c-2.67-3.89-5.92-7.39-9.68-10.36 c-3.51-2.78-7.46-5.1-11.79-6.84L72.28,45.7L103.84,28.43L103.84,28.43z M83.95,0.06C90.58,2,96.51,5.17,101.57,9.24 c5.26,4.23,9.58,9.44,12.78,15.27c0.43,0.78,0.14,1.76-0.65,2.19L70.41,50.4c-0.78,0.43-1.76,0.14-2.19-0.65 c-0.21-0.39-0.25-0.83-0.13-1.22h0L81.95,1.17C82.19,0.31,83.09-0.18,83.95,0.06L83.95,0.06z M88.17,53.38 c2.21,4.43,3.59,9.19,4.11,14.03c0.58,5.37,0.12,10.85-1.43,16.14c-3.22,11.01-10.6,19.68-19.93,24.78 c-9.32,5.1-20.59,6.65-31.6,3.43c-11.01-3.22-19.68-10.6-24.78-19.93c-5.1-9.32-6.65-20.59-3.43-31.6 c3.22-11.01,10.6-19.68,19.93-24.78c8.89-4.86,19.54-6.5,30.05-3.85l1.74-5.96c-12.16-3.12-24.49-1.25-34.77,4.37 C17.34,35.89,8.86,45.84,5.16,58.49v0C1.46,71.14,3.24,84.1,9.11,94.82c5.87,10.71,15.82,19.19,28.47,22.89l0,0 c12.66,3.7,25.61,1.92,36.33-3.94c10.71-5.86,19.19-15.82,22.89-28.47l0,0c1.78-6.07,2.31-12.38,1.64-18.56 c-0.61-5.65-2.23-11.19-4.83-16.34L88.17,53.38L88.17,53.38z M85.33,54.93L51.77,73.31c-0.19,0.1-0.4,0.17-0.61,0.2l-0.02,0h0 l-0.02,0h0l-0.02,0h0l-0.02,0h0l-0.02,0h0l-0.02,0h0l-0.02,0h0l-0.02,0h0h-0.02h0h-0.02h0l-0.02,0h0l-0.02,0h0l-0.02,0h0l-0.02,0h0 l-0.02,0h0l-0.02,0h0l-0.02,0c-0.09-0.01-0.19-0.03-0.28-0.06c-0.86-0.25-1.35-1.14-1.1-2l10.75-36.74 c-9.65-2.39-19.43-0.88-27.59,3.59c-8.6,4.71-15.4,12.69-18.37,22.84c-2.97,10.16-1.54,20.55,3.16,29.16 c4.71,8.6,12.69,15.4,22.84,18.37c10.16,2.97,20.56,1.54,29.16-3.16c8.6-4.71,15.4-12.69,18.37-22.84 c1.43-4.87,1.85-9.94,1.32-14.9C88.59,63.33,87.33,58.99,85.33,54.93L85.33,54.93z M88.38,18.5c3.35,0,6.07,2.72,6.07,6.07 c0,3.35-2.72,6.07-6.07,6.07s-6.07-2.72-6.07-6.07C82.31,21.22,85.03,18.5,88.38,18.5L88.38,18.5z M56.18,92.62l8.09-9.7l7.08,9.8 L56.18,92.62L56.18,92.62z M39.57,101.2c-0.79,0.14-1.54-0.38-1.68-1.17c-0.14-0.79,0.38-1.54,1.17-1.68 c1.51-0.27,2.81-0.37,4.03-0.09c1.32,0.3,2.46,1.01,3.51,2.33c0.04,0.05,0.08,0.09,0.12,0.13c0.34,0.32,0.9,0.35,1.49,0.22 c0.8-0.17,1.6-0.61,2.2-1.08c0.17-0.13,0.32-0.27,0.43-0.39c2.13-2.24,4.84-0.96,7.1,0.12c0.75,0.36,1,1.52,1.2,1.09 c0.01-0.03,0.03-0.06,0.04-0.09c0.22-0.67,0.9-1.1,1.61-0.98c0.79,0.13,1.33,0.87,1.2,1.67c-0.08,0.52-0.2,0.76-0.38,0.93 c-1.05,1.86-2.83,1.01-4.91,0.02c-1.4-0.67-3.08-1.46-3.76-0.74c-0.21,0.23-0.46,0.45-0.73,0.66c-0.9,0.71-2.14,1.38-3.39,1.65 c-1.46,0.32-2.95,0.14-4.11-0.96c-0.14-0.13-0.27-0.27-0.39-0.43c-0.6-0.76-1.21-1.15-1.89-1.31 C41.67,100.91,40.72,100.99,39.57,101.2L39.57,101.2z M41.73,77.57c-0.08-0.8,0.49-1.51,1.29-1.6c0.8-0.08,1.51,0.49,1.6,1.29 c0.3,2.75,0.01,5.18-0.86,7.27c-0.89,2.14-2.37,3.9-4.45,5.27c-0.67,0.44-1.57,0.26-2.01-0.41c-0.44-0.67-0.26-1.57,0.41-2.01 c1.58-1.05,2.71-2.37,3.37-3.97C41.75,81.78,41.97,79.83,41.73,77.57L41.73,77.57z M30.07,62.9c-0.79,0.14-1.54-0.38-1.69-1.16 c-0.14-0.79,0.38-1.54,1.17-1.69c0.84-0.16,1.68-0.43,2.46-0.69c2.6-0.86,4.68-1.54,7.04,1c0.64,0.69,1.67,0.72,2.82,0.74 c0.87,0.02,1.8,0.04,2.79,0.26c0.78,0.17,1.28,0.94,1.11,1.73c-0.17,0.78-0.94,1.28-1.73,1.11c-0.76-0.17-1.52-0.18-2.23-0.2 c-1.81-0.04-3.42-0.08-4.89-1.66c-1.09-1.18-2.38-0.75-4-0.22C32.08,62.4,31.16,62.7,30.07,62.9L30.07,62.9z M32.99,50.35 l7.72-11.14l8.05,11.47L32.99,50.35L32.99,50.35z M26.79,70.39c3.35,0,6.07,2.72,6.07,6.07s-2.72,6.07-6.07,6.07 c-3.35,0-6.07-2.72-6.07-6.07S23.44,70.39,26.79,70.39L26.79,70.39z M80.49,69.19c-0.84-0.83-1.99-1.35-3.26-1.35 c-1.27,0-2.43,0.52-3.26,1.35c-0.84,0.84-1.35,1.99-1.35,3.26c0,1.27,0.52,2.43,1.35,3.26c0.83,0.84,1.99,1.35,3.26,1.35 c1.27,0,2.43-0.52,3.26-1.35c0.84-0.83,1.35-1.99,1.35-3.26C81.84,71.18,81.32,70.03,80.49,69.19L80.49,69.19z"/></g></svg>