<?xml version="1.0" encoding="utf-8"?><svg version="1.1" id="Layer_1" xmlns="http://www.w3.org/2000/svg" xmlns:xlink="http://www.w3.org/1999/xlink" x="0px" y="0px" viewBox="0 0 122.88 66.8" style="enable-background:new 0 0 122.88 66.8" xml:space="preserve"><style type="text/css">.st0{fill-rule:evenodd;clip-rule:evenodd;}</style><g><path class="st0" d="M82.42,54.45c1.38,1.11,2.39,2.53,4.12,3.58l0.01,0l0.09,0.06l0.07,0.04l0.09,0.05l0.05,0.03l0.1,0.06 l0.07,0.04l0.1,0.05l0.06,0.03l0.1,0.05l0.07,0.04l0.12,0.05l0.04,0.02c0.04,0.02,0.08,0.04,0.13,0.06l0.06,0.02l0.13,0.05 l0.04,0.02c0.05,0.02,0.09,0.04,0.14,0.05l0.04,0.02c0.05,0.02,0.1,0.04,0.15,0.05l0.04,0.02c0.05,0.02,0.1,0.04,0.16,0.05 l0.03,0.01c0.06,0.02,0.12,0.04,0.17,0.05l0.04,0.01c0.05,0.02,0.11,0.03,0.16,0.05l0.04,0.01c0.06,0.02,0.13,0.03,0.19,0.05 l0.03,0.01c0.06,0.02,0.12,0.03,0.19,0.05l0.03,0.01c0.07,0.02,0.13,0.03,0.2,0.05l0.03,0.01c0.06,0.01,0.13,0.03,0.2,0.04 l0.03,0.01c0.07,0.01,0.14,0.03,0.21,0.04l0.02,0l0.01,0c0.07,0.01,0.14,0.02,0.21,0.03l0.04,0.01c0.07,0.01,0.14,0.02,0.22,0.03 l0.02,0l0.01,0c0.08,0.01,0.15,0.02,0.23,0.03l0.03,0c0.08,0.01,0.16,0.02,0.24,0.03l0.01,0l0,0c0.08,0.01,0.17,0.02,0.25,0.02 l0.03,0c0.08,0.01,0.17,0.01,0.26,0.02l0.01,0l0.01,0c0.09,0.01,0.17,0.01,0.26,0.01l0.03,0c0.09,0,0.18,0.01,0.28,0.01 c0.1,0,0.2,0,0.31,0l0.01,0c0.1,0,0.2-0.01,0.3-0.02l0.01,0c0.1-0.01,0.2-0.02,0.29-0.03l0,0l0,0c0.1-0.01,0.19-0.03,0.29-0.05 l0.01,0c0.09-0.02,0.18-0.04,0.28-0.06l0.02,0c0.09-0.02,0.18-0.05,0.27-0.07l0.02-0.01c0.09-0.03,0.18-0.06,0.26-0.09l0.03-0.01 c0.08-0.03,0.16-0.06,0.24-0.09l0.03-0.01c0.08-0.03,0.16-0.07,0.23-0.1l0.04-0.02c0.08-0.04,0.15-0.07,0.23-0.11L95,58.78 c0.07-0.04,0.14-0.07,0.21-0.11l0.05-0.03c0.07-0.04,0.14-0.08,0.2-0.11l0.08-0.04c0.06-0.04,0.12-0.07,0.18-0.11l0.09-0.05 c0.06-0.04,0.12-0.08,0.18-0.12l0.09-0.06c1.62-1.07,3.19-2.56,5.11-3.69H82.42L82.42,54.45z M112.84,54.21 c0.13,0.05,0.26,0.11,0.4,0.17l0.05,0.02c0.18,0.08,0.37,0.17,0.56,0.26l0.07,0.03c0.19,0.09,0.38,0.18,0.58,0.28l0.06,0.03 c0.2,0.1,0.4,0.2,0.6,0.31l0.06,0.03c0.22,0.12,0.43,0.24,0.66,0.36c0.02,0.01,0.05,0.03,0.07,0.04l0,0 c0.02,0.01,0.04,0.02,0.07,0.03l0.01,0l0,0c0.02,0.01,0.05,0.02,0.07,0.03l0,0l0,0l0,0c0.05,0.02,0.1,0.04,0.15,0.05h0 c0.02,0.01,0.05,0.01,0.07,0.02l0,0h0l0,0c0.02,0,0.04,0.01,0.07,0.01l0.01,0c0.02,0,0.04,0.01,0.07,0.01l0.02,0l0.06,0.01l0.02,0 c0.02,0,0.04,0,0.06,0l0.02,0l0.05,0l0.04,0l0.02,0l0.02,0l0.01,0l0.04,0h0l0.02,0l0.02,0l0.05,0l0.02,0l0.06-0.01l0,0l0.02,0 l0.05-0.01l0.02,0l0.02,0l0.05-0.01l0.02,0l0.07-0.01c1.3-0.26,2.73-1.37,3.77-1.4c-1.01-1.2-1.8-2.19-2.61-2.94L112.84,54.21 L112.84,54.21z M40.46,54.45c-1.38,1.11-2.39,2.53-4.12,3.58l-0.01,0l-0.09,0.06l-0.07,0.04l-0.09,0.05l-0.05,0.03l-0.1,0.06 l-0.07,0.04l-0.1,0.05l-0.06,0.03l-0.1,0.05l-0.07,0.04l-0.12,0.05l-0.04,0.02c-0.04,0.02-0.08,0.04-0.13,0.06l-0.06,0.02 l-0.13,0.05l-0.04,0.02c-0.05,0.02-0.09,0.04-0.14,0.05l-0.04,0.02c-0.05,0.02-0.1,0.04-0.15,0.05l-0.04,0.02 c-0.05,0.02-0.1,0.04-0.16,0.05l-0.03,0.01c-0.06,0.02-0.12,0.04-0.17,0.05l-0.04,0.01c-0.05,0.02-0.11,0.03-0.16,0.05l-0.04,0.01 c-0.06,0.02-0.13,0.03-0.19,0.05l-0.03,0.01c-0.06,0.02-0.12,0.03-0.19,0.05l-0.03,0.01c-0.07,0.02-0.13,0.03-0.2,0.05l-0.03,0.01 c-0.06,0.01-0.13,0.03-0.2,0.04l-0.03,0.01c-0.07,0.01-0.14,0.03-0.21,0.04l-0.02,0l-0.01,0c-0.07,0.01-0.14,0.02-0.21,0.03 l-0.04,0.01c-0.07,0.01-0.14,0.02-0.22,0.03l-0.02,0l-0.01,0c-0.08,0.01-0.15,0.02-0.23,0.03l-0.03,0 c-0.08,0.01-0.16,0.02-0.24,0.03l-0.01,0l0,0c-0.08,0.01-0.17,0.02-0.25,0.02l-0.03,0c-0.08,0.01-0.17,0.01-0.26,0.02l-0.01,0 l-0.01,0c-0.09,0.01-0.17,0.01-0.26,0.01l-0.03,0c-0.09,0-0.18,0.01-0.28,0.01c-0.1,0-0.2,0-0.31,0l-0.01,0 c-0.1,0-0.2-0.01-0.3-0.02l-0.01,0c-0.1-0.01-0.2-0.02-0.29-0.03l0,0l0,0c-0.1-0.01-0.19-0.03-0.29-0.05l-0.01,0 c-0.09-0.02-0.18-0.04-0.28-0.06l-0.02,0c-0.09-0.02-0.18-0.05-0.27-0.07L29,59.23c-0.09-0.03-0.18-0.06-0.26-0.09l-0.03-0.01 c-0.08-0.03-0.16-0.06-0.24-0.09l-0.03-0.01c-0.08-0.03-0.16-0.07-0.23-0.1l-0.04-0.02c-0.08-0.04-0.15-0.07-0.23-0.11l-0.05-0.02 c-0.07-0.04-0.14-0.07-0.21-0.11l-0.05-0.03c-0.07-0.04-0.14-0.08-0.2-0.11l-0.08-0.04c-0.06-0.04-0.12-0.07-0.18-0.11l-0.09-0.05 c-0.06-0.04-0.12-0.08-0.18-0.12l-0.09-0.06c-1.62-1.07-3.19-2.56-5.11-3.69H40.46L40.46,54.45z M10.04,54.21 c-0.13,0.05-0.26,0.11-0.4,0.17l-0.05,0.02c-0.18,0.08-0.37,0.17-0.56,0.26L8.96,54.7c-0.19,0.09-0.38,0.18-0.58,0.28l-0.06,0.03 c-0.2,0.1-0.4,0.2-0.6,0.31l-0.06,0.03c-0.22,0.12-0.43,0.24-0.66,0.36c-0.02,0.01-0.05,0.03-0.07,0.04l0,0 c-0.02,0.01-0.04,0.02-0.07,0.03l-0.01,0l0,0c-0.02,0.01-0.05,0.02-0.07,0.03l0,0l0,0l0,0c-0.05,0.02-0.1,0.04-0.15,0.05h0 c-0.02,0.01-0.05,0.01-0.07,0.02l0,0h0l0,0c-0.02,0-0.04,0.01-0.07,0.01l-0.01,0c-0.02,0-0.04,0.01-0.07,0.01l-0.02,0l-0.06,0.01 l-0.02,0c-0.02,0-0.04,0-0.06,0l-0.02,0l-0.05,0l-0.04,0l-0.02,0l-0.02,0l-0.01,0l-0.04,0h0l-0.02,0l-0.02,0l-0.05,0l-0.02,0 l-0.06-0.01l0,0l-0.02,0L5.81,55.9l-0.02,0l-0.02,0l-0.05-0.01l-0.02,0l-0.07-0.01c-1.3-0.26-2.73-1.37-3.77-1.4 c1.01-1.2,1.8-2.19,2.61-2.94L10.04,54.21L10.04,54.21z M3.46,49.88c-0.82,0.74-1.6,1.68-2.54,2.8c-0.68,0.81,0.29-0.34-0.49,0.59 c-0.66,0.78-0.56,1.96,0.23,2.62c0.33,0.28,0.73,0.42,1.14,0.43v0c0.15,0.01,0.64,0.24,1.16,0.49c0.5,0.24,1.01,0.49,1.54,0.68 c-0.27,0.47-0.47,0.93-0.62,1.38c-0.48,1.46-0.39,2.81,0.2,4.02c0.56,1.14,1.54,2.05,2.88,2.7c1.82,0.89,4.42,1.32,7.59,1.17v0 h46.91h46.91v0c3.17,0.14,5.77-0.29,7.59-1.17c1.34-0.65,2.32-1.56,2.88-2.7c0.59-1.2,0.68-2.56,0.2-4.02 c-0.15-0.45-0.35-0.91-0.62-1.38c0.53-0.19,1.04-0.44,1.54-0.68c0.51-0.25,1.01-0.49,1.16-0.49v0c0.4-0.01,0.8-0.16,1.14-0.43 c0.78-0.66,0.89-1.83,0.23-2.62c-0.78-0.93,0.19,0.22-0.49-0.59c-0.94-1.12-1.73-2.06-2.54-2.8c0.47-1.2,0.5-2.53,0.03-3.94 c-0.52-1.58-1.72-3.3-3.68-5.08c-0.08-0.08-0.16-0.15-0.24-0.22L67.42,2.38l0,0C65.43,0.7,63.44-0.05,61.45,0l-0.01,0l-0.01,0 c-1.99-0.05-3.97,0.7-5.96,2.38l0,0L7.35,40.65c-0.09,0.07-0.17,0.14-0.24,0.22c-1.96,1.78-3.16,3.5-3.68,5.08 C2.97,47.35,2.99,48.67,3.46,49.88L3.46,49.88z M67.62,25.87c0.46,1.26-0.43,2.74-1.98,3.31c-1.55,0.57-3.19,0.01-3.65-1.25 c-0.46-1.26,0.43-2.74,1.98-3.31C65.53,24.06,67.16,24.62,67.62,25.87L67.62,25.87z M63.75,15.57c0.17,0.46-0.16,1.01-0.73,1.22 c-0.57,0.21-1.18,0-1.35-0.46c-0.17-0.46,0.16-1.01,0.73-1.22C62.98,14.9,63.58,15.1,63.75,15.57L63.75,15.57z M54.41,21.76 c0.33,0.91-0.31,1.98-1.43,2.4c-1.13,0.41-2.31,0.01-2.64-0.9c-0.33-0.91,0.31-1.98,1.43-2.4C52.89,20.45,54.08,20.85,54.41,21.76 L54.41,21.76z M65.99,37.43c0.33,0.91-0.31,1.98-1.43,2.4c-1.13,0.41-2.31,0.01-2.64-0.9c-0.33-0.91,0.31-1.98,1.43-2.4 C64.47,36.11,65.65,36.51,65.99,37.43L65.99,37.43z M77.68,36.55c0.35,0.94-0.32,2.06-1.49,2.48c-1.17,0.43-2.39,0.01-2.74-0.94 c-0.35-0.95,0.32-2.06,1.49-2.48C76.1,35.18,77.33,35.6,77.68,36.55L77.68,36.55z M79.77,27.27c0.35,0.94-0.32,2.06-1.49,2.48 c-1.17,0.43-2.39,0.01-2.74-0.94c-0.35-0.94,0.32-2.06,1.49-2.48C78.2,25.9,79.43,26.32,79.77,27.27L79.77,27.27z M52.02,54.45 h18.84C65.38,60.05,60.63,62.36,52.02,54.45L52.02,54.45z M61.44,44.01H11.35l47.3-37.62l0,0c0.02-0.02,0.05-0.04,0.07-0.06 c1-0.85,1.85-1.23,2.59-1.21c0.04,0,0.09,0,0.13,0.01c0.04,0,0.09-0.01,0.13-0.01c0.74-0.02,1.59,0.36,2.59,1.21 c0.02,0.02,0.05,0.04,0.07,0.06l0,0l47.3,37.62H61.44L61.44,44.01z M110.44,55.34c-5.46-1.65-8.46,0.64-11.09,2.69h14.25 c-0.28-0.3-0.6-0.62-0.96-0.94l-0.01-0.01L110.44,55.34L110.44,55.34z M83.5,58.03c-0.31-0.29-0.61-0.59-0.91-0.88 c-0.56-0.56-1.11-1.1-1.71-1.53c-0.55-0.39-1.1-0.67-1.65-0.84c-0.51-0.16-1.02-0.23-1.52-0.19c-2.51,0.16-4.91,1.87-7.1,3.44H83.5 L83.5,58.03z M12.44,55.34c5.46-1.65,8.46,0.64,11.09,2.69H9.28c0.28-0.3,0.6-0.62,0.96-0.94l0.01-0.01L12.44,55.34L12.44,55.34z M39.38,58.03c0.31-0.29,0.61-0.59,0.91-0.88c0.56-0.56,1.11-1.1,1.71-1.53c0.55-0.39,1.1-0.67,1.65-0.84 c0.51-0.16,1.02-0.23,1.52-0.19c2.51,0.16,4.91,1.87,7.1,3.44H39.38L39.38,58.03z"/></g></svg>