<svg width="1916" height="1247" viewBox="0 0 1916 1247" fill="none" xmlns="http://www.w3.org/2000/svg">
<path d="M847.861 12.936H861.973V14.088L858.181 14.52L867.685 38.424L876.805 15.336L872.581 14.088V12.936H882.613V14.088L878.965 15.384L867.061 45.288H864.181L851.557 14.52L847.861 14.088V12.936ZM887.209 45V43.848L891.385 43.416V14.52L887.209 14.088V12.936H911.689V19.752H910.153L908.281 14.664L897.769 14.52V27.432H907.081L908.569 23.88H909.913V32.808H908.521L907.081 29.16H897.769V43.464L909.721 43.32L912.217 37.848H913.753L913.177 45H887.209ZM940.068 12.6L950.628 13.032L950.916 21.768H949.188L947.556 15.48C945.348 14.744 943.22 14.376 941.172 14.376C937.364 14.376 934.276 15.64 931.908 18.168C929.54 20.664 928.356 24.376 928.356 29.304C928.356 34.2 929.508 37.8 931.812 40.104C934.116 42.408 937.012 43.56 940.5 43.56C944.02 43.56 946.564 43.176 948.132 42.408L949.908 36.936H951.444L951.156 43.992C947.156 44.856 943.652 45.288 940.644 45.288C937.668 45.288 935.124 45.048 933.012 44.568C930.9 44.056 928.916 43.24 927.06 42.12C925.204 41 923.748 39.384 922.692 37.272C921.668 35.16 921.156 32.632 921.156 29.688C921.156 26.744 921.684 24.152 922.74 21.912C923.828 19.64 925.284 17.848 927.108 16.536C930.756 13.912 935.076 12.6 940.068 12.6ZM987.24 20.184H985.8L983.544 14.664L975.816 14.568V43.416L980.28 43.848V45H964.968V43.848L969.432 43.416V14.568L961.704 14.664L959.448 20.184H958.056V12.936L972.648 12.84L987.24 12.936V20.184ZM1026.78 28.872C1026.78 33.672 1025.28 37.656 1022.27 40.824C1019.3 43.96 1015.26 45.528 1010.18 45.528C1005.12 45.528 1001.09 43.96 998.08 40.824C995.104 37.656 993.616 33.672 993.616 28.872C993.616 24.072 995.104 20.104 998.08 16.968C1001.09 13.8 1005.12 12.216 1010.18 12.216C1015.26 12.216 1019.3 13.8 1022.27 16.968C1025.28 20.104 1026.78 24.072 1026.78 28.872ZM1010.27 44.04C1016.42 44.04 1019.49 38.984 1019.49 28.872C1019.49 24.008 1018.78 20.264 1017.38 17.64C1016 15.016 1013.62 13.704 1010.22 13.704C1006.83 13.704 1004.42 15.016 1002.98 17.64C1001.57 20.264 1000.86 24.008 1000.86 28.872C1000.86 38.984 1004 44.04 1010.27 44.04ZM1044.23 28.248H1045.87C1050.99 28.248 1053.55 25.8 1053.55 20.904C1053.55 18.536 1053.05 16.824 1052.06 15.768C1051.07 14.68 1049.5 14.136 1047.35 14.136C1045.98 14.136 1044.94 14.2 1044.23 14.328V28.248ZM1043.42 12.84L1048.79 12.696C1056.41 12.696 1060.22 15.432 1060.22 20.904C1060.22 23.336 1059.35 25.32 1057.63 26.856C1055.9 28.392 1053.67 29.16 1050.95 29.16H1049.85C1053.5 29.64 1055.99 30.744 1057.34 32.472C1058.71 34.2 1059.4 36.824 1059.4 40.344C1059.4 42.52 1059.85 43.848 1060.75 44.328C1061.07 44.52 1061.53 44.616 1062.14 44.616C1062.78 44.616 1063.64 44.36 1064.73 43.848L1064.78 45C1063.05 45.736 1061.29 46.104 1059.5 46.104C1055.91 46.104 1053.75 44.76 1053.02 42.072C1052.76 40.952 1052.63 39.56 1052.63 37.896C1052.63 36.2 1052.52 34.904 1052.3 34.008C1052.11 33.08 1051.8 32.328 1051.39 31.752C1050.46 30.344 1048.71 29.64 1046.15 29.64H1044.23V43.416L1047.88 43.848V45H1034.35V43.848L1037.9 43.464V14.424L1033.77 13.848V12.648C1036.46 12.776 1038.87 12.84 1041.02 12.84H1043.42ZM1071.83 43.368C1070.49 42.504 1069.82 41.4 1069.82 40.056C1069.82 38.2 1071.29 37.048 1074.23 36.6C1074.74 39.576 1075.83 41.64 1077.5 42.792C1078.97 43.816 1080.52 44.328 1082.15 44.328C1083.82 44.328 1085.24 43.832 1086.42 42.84C1087.64 41.816 1088.25 40.152 1088.25 37.848C1088.25 36.12 1087.62 34.76 1086.38 33.768C1085.16 32.744 1083.61 31.848 1081.72 31.08C1079.83 30.312 1078.55 29.784 1077.88 29.496C1077.21 29.176 1076.34 28.712 1075.29 28.104C1074.26 27.496 1073.5 26.92 1072.98 26.376C1071.7 24.904 1071.06 23.208 1071.06 21.288C1071.06 18.28 1072.18 16.008 1074.42 14.472C1076.66 12.936 1079.78 12.168 1083.78 12.168C1086.06 12.168 1088.7 12.424 1091.7 12.936V20.04H1090.12L1088.2 14.376C1086.6 13.864 1084.97 13.608 1083.3 13.608C1081.67 13.608 1080.25 14.136 1079.03 15.192C1077.82 16.216 1077.21 17.752 1077.21 19.8C1077.21 22.136 1078.26 23.88 1080.38 25.032C1081.43 25.576 1082.68 26.12 1084.12 26.664C1085.56 27.208 1086.6 27.624 1087.24 27.912C1087.88 28.168 1088.73 28.6 1089.78 29.208C1090.84 29.784 1091.62 30.36 1092.14 30.936C1092.65 31.512 1093.11 32.28 1093.53 33.24C1093.94 34.168 1094.15 35.192 1094.15 36.312C1094.15 39.032 1093 41.256 1090.7 42.984C1088.39 44.712 1085.24 45.576 1081.24 45.576C1077.27 45.576 1074.14 44.84 1071.83 43.368Z" fill="white"/>
<path d="M675.305 107H673.805C673.632 107 673.492 106.957 673.385 106.87C673.279 106.783 673.199 106.673 673.145 106.54L671.805 103.08H665.375L664.035 106.54C663.989 106.66 663.909 106.767 663.795 106.86C663.682 106.953 663.542 107 663.375 107H661.875L667.605 92.67H669.575L675.305 107ZM665.915 101.68H671.265L669.015 95.85C668.869 95.49 668.725 95.04 668.585 94.5C668.512 94.7733 668.439 95.0267 668.365 95.26C668.299 95.4867 668.232 95.6867 668.165 95.86L665.915 101.68ZM680.409 92.27V107H678.629V92.27H680.409ZM687.126 92.27V107H685.346V92.27H687.126ZM696.051 96.87H697.511C697.651 96.87 697.767 96.9067 697.861 96.98C697.954 97.0533 698.021 97.14 698.061 97.24L700.631 103.76C700.724 104 700.797 104.24 700.851 104.48C700.904 104.72 700.954 104.957 701.001 105.19C701.054 104.957 701.111 104.72 701.171 104.48C701.231 104.24 701.307 104 701.401 103.76L704.001 97.24C704.041 97.1333 704.104 97.0467 704.191 96.98C704.284 96.9067 704.397 96.87 704.531 96.87H705.921L701.791 107H700.181L696.051 96.87ZM712.921 96.71C713.528 96.71 714.088 96.8133 714.601 97.02C715.115 97.22 715.558 97.5133 715.931 97.9C716.305 98.28 716.595 98.7533 716.801 99.32C717.015 99.88 717.121 100.52 717.121 101.24C717.121 101.52 717.091 101.707 717.031 101.8C716.971 101.893 716.858 101.94 716.691 101.94H709.951C709.965 102.58 710.051 103.137 710.211 103.61C710.371 104.083 710.591 104.48 710.871 104.8C711.151 105.113 711.485 105.35 711.871 105.51C712.258 105.663 712.691 105.74 713.171 105.74C713.618 105.74 714.001 105.69 714.321 105.59C714.648 105.483 714.928 105.37 715.161 105.25C715.395 105.13 715.588 105.02 715.741 104.92C715.901 104.813 716.038 104.76 716.151 104.76C716.298 104.76 716.411 104.817 716.491 104.93L716.991 105.58C716.771 105.847 716.508 106.08 716.201 106.28C715.895 106.473 715.565 106.633 715.211 106.76C714.865 106.887 714.505 106.98 714.131 107.04C713.758 107.107 713.388 107.14 713.021 107.14C712.321 107.14 711.675 107.023 711.081 106.79C710.495 106.55 709.985 106.203 709.551 105.75C709.125 105.29 708.791 104.723 708.551 104.05C708.311 103.377 708.191 102.603 708.191 101.73C708.191 101.023 708.298 100.363 708.511 99.75C708.731 99.1367 709.045 98.6067 709.451 98.16C709.858 97.7067 710.355 97.3533 710.941 97.1C711.528 96.84 712.188 96.71 712.921 96.71ZM712.961 98.02C712.101 98.02 711.425 98.27 710.931 98.77C710.438 99.2633 710.131 99.95 710.011 100.83H715.521C715.521 100.417 715.465 100.04 715.351 99.7C715.238 99.3533 715.071 99.0567 714.851 98.81C714.631 98.5567 714.361 98.3633 714.041 98.23C713.728 98.09 713.368 98.02 712.961 98.02ZM727.909 98.67C727.856 98.7433 727.803 98.8 727.749 98.84C727.696 98.88 727.619 98.9 727.519 98.9C727.419 98.9 727.309 98.86 727.189 98.78C727.076 98.6933 726.929 98.6 726.749 98.5C726.569 98.4 726.349 98.31 726.089 98.23C725.836 98.1433 725.523 98.1 725.149 98.1C724.656 98.1 724.219 98.19 723.839 98.37C723.459 98.5433 723.139 98.7967 722.879 99.13C722.626 99.4633 722.433 99.8667 722.299 100.34C722.173 100.813 722.109 101.343 722.109 101.93C722.109 102.543 722.179 103.09 722.319 103.57C722.459 104.043 722.656 104.443 722.909 104.77C723.163 105.09 723.469 105.337 723.829 105.51C724.196 105.677 724.606 105.76 725.059 105.76C725.493 105.76 725.849 105.71 726.129 105.61C726.409 105.503 726.643 105.387 726.829 105.26C727.016 105.133 727.169 105.02 727.289 104.92C727.409 104.813 727.529 104.76 727.649 104.76C727.803 104.76 727.916 104.817 727.989 104.93L728.489 105.58C728.049 106.12 727.499 106.517 726.839 106.77C726.179 107.017 725.483 107.14 724.749 107.14C724.116 107.14 723.526 107.023 722.979 106.79C722.439 106.557 721.969 106.22 721.569 105.78C721.169 105.333 720.853 104.787 720.619 104.14C720.393 103.493 720.279 102.757 720.279 101.93C720.279 101.177 720.383 100.48 720.589 99.84C720.803 99.2 721.109 98.65 721.509 98.19C721.916 97.7233 722.416 97.36 723.009 97.1C723.603 96.84 724.283 96.71 725.049 96.71C725.756 96.71 726.383 96.8267 726.929 97.06C727.476 97.2867 727.959 97.61 728.379 98.03L727.909 98.67ZM735.005 107.16C734.205 107.16 733.589 106.937 733.155 106.49C732.729 106.043 732.515 105.4 732.515 104.56V98.36H731.295C731.189 98.36 731.099 98.33 731.025 98.27C730.952 98.2033 730.915 98.1033 730.915 97.97V97.26L732.575 97.05L732.985 93.92C732.999 93.82 733.042 93.74 733.115 93.68C733.189 93.6133 733.282 93.58 733.395 93.58H734.295V97.07H737.195V98.36H734.295V104.44C734.295 104.867 734.399 105.183 734.605 105.39C734.812 105.597 735.079 105.7 735.405 105.7C735.592 105.7 735.752 105.677 735.885 105.63C736.025 105.577 736.145 105.52 736.245 105.46C736.345 105.4 736.429 105.347 736.495 105.3C736.569 105.247 736.632 105.22 736.685 105.22C736.779 105.22 736.862 105.277 736.935 105.39L737.455 106.24C737.149 106.527 736.779 106.753 736.345 106.92C735.912 107.08 735.465 107.16 735.005 107.16ZM745.096 96.71C745.836 96.71 746.503 96.8333 747.096 97.08C747.696 97.3267 748.203 97.6767 748.616 98.13C749.036 98.5833 749.356 99.1333 749.576 99.78C749.803 100.42 749.916 101.137 749.916 101.93C749.916 102.73 749.803 103.45 749.576 104.09C749.356 104.73 749.036 105.277 748.616 105.73C748.203 106.183 747.696 106.533 747.096 106.78C746.503 107.02 745.836 107.14 745.096 107.14C744.356 107.14 743.686 107.02 743.086 106.78C742.493 106.533 741.986 106.183 741.566 105.73C741.146 105.277 740.823 104.73 740.596 104.09C740.37 103.45 740.256 102.73 740.256 101.93C740.256 101.137 740.37 100.42 740.596 99.78C740.823 99.1333 741.146 98.5833 741.566 98.13C741.986 97.6767 742.493 97.3267 743.086 97.08C743.686 96.8333 744.356 96.71 745.096 96.71ZM745.096 105.75C746.096 105.75 746.843 105.417 747.336 104.75C747.83 104.077 748.076 103.14 748.076 101.94C748.076 100.733 747.83 99.7933 747.336 99.12C746.843 98.4467 746.096 98.11 745.096 98.11C744.59 98.11 744.15 98.1967 743.776 98.37C743.403 98.5433 743.09 98.7933 742.836 99.12C742.59 99.4467 742.403 99.85 742.276 100.33C742.156 100.803 742.096 101.34 742.096 101.94C742.096 102.54 742.156 103.077 742.276 103.55C742.403 104.023 742.59 104.423 742.836 104.75C743.09 105.07 743.403 105.317 743.776 105.49C744.15 105.663 744.59 105.75 745.096 105.75ZM753.71 107V96.87H754.73C754.923 96.87 755.056 96.9067 755.13 96.98C755.203 97.0533 755.253 97.18 755.28 97.36L755.4 98.94C755.746 98.2333 756.173 97.6833 756.68 97.29C757.193 96.89 757.793 96.69 758.48 96.69C758.76 96.69 759.013 96.7233 759.24 96.79C759.466 96.85 759.676 96.9367 759.87 97.05L759.64 98.38C759.593 98.5467 759.49 98.63 759.33 98.63C759.236 98.63 759.093 98.6 758.9 98.54C758.706 98.4733 758.436 98.44 758.09 98.44C757.47 98.44 756.95 98.62 756.53 98.98C756.116 99.34 755.77 99.8633 755.49 100.55V107H753.71ZM769.176 98.54C769.096 98.6867 768.973 98.76 768.806 98.76C768.706 98.76 768.593 98.7233 768.466 98.65C768.339 98.5767 768.183 98.4967 767.996 98.41C767.816 98.3167 767.599 98.2333 767.346 98.16C767.093 98.08 766.793 98.04 766.446 98.04C766.146 98.04 765.876 98.08 765.636 98.16C765.396 98.2333 765.189 98.3367 765.016 98.47C764.849 98.6033 764.719 98.76 764.626 98.94C764.539 99.1133 764.496 99.3033 764.496 99.51C764.496 99.77 764.569 99.9867 764.716 100.16C764.869 100.333 765.069 100.483 765.316 100.61C765.563 100.737 765.843 100.85 766.156 100.95C766.469 101.043 766.789 101.147 767.116 101.26C767.449 101.367 767.773 101.487 768.086 101.62C768.399 101.753 768.679 101.92 768.926 102.12C769.173 102.32 769.369 102.567 769.516 102.86C769.669 103.147 769.746 103.493 769.746 103.9C769.746 104.367 769.663 104.8 769.496 105.2C769.329 105.593 769.083 105.937 768.756 106.23C768.429 106.517 768.029 106.743 767.556 106.91C767.083 107.077 766.536 107.16 765.916 107.16C765.209 107.16 764.569 107.047 763.996 106.82C763.423 106.587 762.936 106.29 762.536 105.93L762.956 105.25C763.009 105.163 763.073 105.097 763.146 105.05C763.219 105.003 763.316 104.98 763.436 104.98C763.556 104.98 763.683 105.027 763.816 105.12C763.949 105.213 764.109 105.317 764.296 105.43C764.489 105.543 764.719 105.647 764.986 105.74C765.259 105.833 765.599 105.88 766.006 105.88C766.353 105.88 766.656 105.837 766.916 105.75C767.176 105.657 767.393 105.533 767.566 105.38C767.739 105.227 767.866 105.05 767.946 104.85C768.033 104.65 768.076 104.437 768.076 104.21C768.076 103.93 767.999 103.7 767.846 103.52C767.699 103.333 767.503 103.177 767.256 103.05C767.009 102.917 766.726 102.803 766.406 102.71C766.093 102.61 765.769 102.507 765.436 102.4C765.109 102.293 764.786 102.173 764.466 102.04C764.153 101.9 763.873 101.727 763.626 101.52C763.379 101.313 763.179 101.06 763.026 100.76C762.879 100.453 762.806 100.083 762.806 99.65C762.806 99.2633 762.886 98.8933 763.046 98.54C763.206 98.18 763.439 97.8667 763.746 97.6C764.053 97.3267 764.429 97.11 764.876 96.95C765.323 96.79 765.833 96.71 766.406 96.71C767.073 96.71 767.669 96.8167 768.196 97.03C768.729 97.2367 769.189 97.5233 769.576 97.89L769.176 98.54ZM777.795 96.87H779.195C779.342 96.87 779.462 96.9067 779.555 96.98C779.648 97.0533 779.712 97.14 779.745 97.24L781.685 103.76C781.738 104 781.788 104.233 781.835 104.46C781.882 104.68 781.922 104.903 781.955 105.13C782.008 104.903 782.068 104.68 782.135 104.46C782.202 104.233 782.272 104 782.345 103.76L784.485 97.2C784.518 97.1 784.575 97.0167 784.655 96.95C784.742 96.8833 784.848 96.85 784.975 96.85H785.745C785.878 96.85 785.988 96.8833 786.075 96.95C786.162 97.0167 786.222 97.1 786.255 97.2L788.345 103.76C788.418 103.993 788.482 104.223 788.535 104.45C788.595 104.677 788.652 104.9 788.705 105.12C788.738 104.9 788.782 104.67 788.835 104.43C788.888 104.19 788.945 103.967 789.005 103.76L790.985 97.24C791.018 97.1333 791.082 97.0467 791.175 96.98C791.268 96.9067 791.378 96.87 791.505 96.87H792.845L789.565 107H788.155C787.982 107 787.862 106.887 787.795 106.66L785.555 99.79C785.502 99.6367 785.458 99.4833 785.425 99.33C785.392 99.17 785.358 99.0133 785.325 98.86C785.292 99.0133 785.258 99.17 785.225 99.33C785.192 99.49 785.148 99.6467 785.095 99.8L782.825 106.66C782.752 106.887 782.615 107 782.415 107H781.075L777.795 96.87ZM800.038 96.71C800.644 96.71 801.204 96.8133 801.718 97.02C802.231 97.22 802.674 97.5133 803.048 97.9C803.421 98.28 803.711 98.7533 803.918 99.32C804.131 99.88 804.238 100.52 804.238 101.24C804.238 101.52 804.208 101.707 804.148 101.8C804.088 101.893 803.974 101.94 803.808 101.94H797.068C797.081 102.58 797.168 103.137 797.328 103.61C797.488 104.083 797.708 104.48 797.988 104.8C798.268 105.113 798.601 105.35 798.988 105.51C799.374 105.663 799.808 105.74 800.288 105.74C800.734 105.74 801.118 105.69 801.438 105.59C801.764 105.483 802.044 105.37 802.278 105.25C802.511 105.13 802.704 105.02 802.858 104.92C803.018 104.813 803.154 104.76 803.268 104.76C803.414 104.76 803.528 104.817 803.608 104.93L804.108 105.58C803.888 105.847 803.624 106.08 803.318 106.28C803.011 106.473 802.681 106.633 802.328 106.76C801.981 106.887 801.621 106.98 801.248 107.04C800.874 107.107 800.504 107.14 800.138 107.14C799.438 107.14 798.791 107.023 798.198 106.79C797.611 106.55 797.101 106.203 796.668 105.75C796.241 105.29 795.908 104.723 795.668 104.05C795.428 103.377 795.308 102.603 795.308 101.73C795.308 101.023 795.414 100.363 795.628 99.75C795.848 99.1367 796.161 98.6067 796.568 98.16C796.974 97.7067 797.471 97.3533 798.058 97.1C798.644 96.84 799.304 96.71 800.038 96.71ZM800.078 98.02C799.218 98.02 798.541 98.27 798.048 98.77C797.554 99.2633 797.248 99.95 797.128 100.83H802.638C802.638 100.417 802.581 100.04 802.468 99.7C802.354 99.3533 802.188 99.0567 801.968 98.81C801.748 98.5567 801.478 98.3633 801.158 98.23C800.844 98.09 800.484 98.02 800.078 98.02ZM808.116 107V96.87H809.136C809.329 96.87 809.463 96.9067 809.536 96.98C809.609 97.0533 809.659 97.18 809.686 97.36L809.806 98.94C810.153 98.2333 810.579 97.6833 811.086 97.29C811.599 96.89 812.199 96.69 812.886 96.69C813.166 96.69 813.419 96.7233 813.646 96.79C813.873 96.85 814.083 96.9367 814.276 97.05L814.046 98.38C813.999 98.5467 813.896 98.63 813.736 98.63C813.643 98.63 813.499 98.6 813.306 98.54C813.113 98.4733 812.843 98.44 812.496 98.44C811.876 98.44 811.356 98.62 810.936 98.98C810.523 99.34 810.176 99.8633 809.896 100.55V107H808.116ZM821.792 96.71C822.399 96.71 822.959 96.8133 823.472 97.02C823.986 97.22 824.429 97.5133 824.802 97.9C825.176 98.28 825.466 98.7533 825.672 99.32C825.886 99.88 825.992 100.52 825.992 101.24C825.992 101.52 825.962 101.707 825.902 101.8C825.842 101.893 825.729 101.94 825.562 101.94H818.822C818.836 102.58 818.922 103.137 819.082 103.61C819.242 104.083 819.462 104.48 819.742 104.8C820.022 105.113 820.356 105.35 820.742 105.51C821.129 105.663 821.562 105.74 822.042 105.74C822.489 105.74 822.872 105.69 823.192 105.59C823.519 105.483 823.799 105.37 824.032 105.25C824.266 105.13 824.459 105.02 824.612 104.92C824.772 104.813 824.909 104.76 825.022 104.76C825.169 104.76 825.282 104.817 825.362 104.93L825.862 105.58C825.642 105.847 825.379 106.08 825.072 106.28C824.766 106.473 824.436 106.633 824.082 106.76C823.736 106.887 823.376 106.98 823.002 107.04C822.629 107.107 822.259 107.14 821.892 107.14C821.192 107.14 820.546 107.023 819.952 106.79C819.366 106.55 818.856 106.203 818.422 105.75C817.996 105.29 817.662 104.723 817.422 104.05C817.182 103.377 817.062 102.603 817.062 101.73C817.062 101.023 817.169 100.363 817.382 99.75C817.602 99.1367 817.916 98.6067 818.322 98.16C818.729 97.7067 819.226 97.3533 819.812 97.1C820.399 96.84 821.059 96.71 821.792 96.71ZM821.832 98.02C820.972 98.02 820.296 98.27 819.802 98.77C819.309 99.2633 819.002 99.95 818.882 100.83H824.392C824.392 100.417 824.336 100.04 824.222 99.7C824.109 99.3533 823.942 99.0567 823.722 98.81C823.502 98.5567 823.232 98.3633 822.912 98.23C822.599 98.09 822.239 98.02 821.832 98.02ZM842.468 107C842.214 107 842.054 106.877 841.988 106.63L841.828 105.4C841.394 105.927 840.898 106.35 840.338 106.67C839.784 106.983 839.148 107.14 838.428 107.14C837.848 107.14 837.321 107.03 836.848 106.81C836.374 106.583 835.971 106.253 835.638 105.82C835.304 105.387 835.048 104.847 834.868 104.2C834.688 103.553 834.598 102.81 834.598 101.97C834.598 101.223 834.698 100.53 834.898 99.89C835.098 99.2433 835.384 98.6833 835.758 98.21C836.138 97.7367 836.598 97.3667 837.138 97.1C837.678 96.8267 838.291 96.69 838.978 96.69C839.598 96.69 840.128 96.7967 840.568 97.01C841.008 97.2167 841.401 97.51 841.748 97.89V92.27H843.528V107H842.468ZM839.018 105.7C839.598 105.7 840.104 105.567 840.538 105.3C840.978 105.033 841.381 104.657 841.748 104.17V99.27C841.421 98.83 841.061 98.5233 840.668 98.35C840.281 98.17 839.851 98.08 839.378 98.08C838.431 98.08 837.704 98.4167 837.198 99.09C836.691 99.7633 836.438 100.723 836.438 101.97C836.438 102.63 836.494 103.197 836.608 103.67C836.721 104.137 836.888 104.523 837.108 104.83C837.328 105.13 837.598 105.35 837.918 105.49C838.238 105.63 838.604 105.7 839.018 105.7ZM852.12 96.71C852.726 96.71 853.286 96.8133 853.8 97.02C854.313 97.22 854.756 97.5133 855.13 97.9C855.503 98.28 855.793 98.7533 856 99.32C856.213 99.88 856.32 100.52 856.32 101.24C856.32 101.52 856.29 101.707 856.23 101.8C856.17 101.893 856.056 101.94 855.89 101.94H849.15C849.163 102.58 849.25 103.137 849.41 103.61C849.57 104.083 849.79 104.48 850.07 104.8C850.35 105.113 850.683 105.35 851.07 105.51C851.456 105.663 851.89 105.74 852.37 105.74C852.816 105.74 853.2 105.69 853.52 105.59C853.846 105.483 854.126 105.37 854.36 105.25C854.593 105.13 854.786 105.02 854.94 104.92C855.1 104.813 855.236 104.76 855.35 104.76C855.496 104.76 855.61 104.817 855.69 104.93L856.19 105.58C855.97 105.847 855.706 106.08 855.4 106.28C855.093 106.473 854.763 106.633 854.41 106.76C854.063 106.887 853.703 106.98 853.33 107.04C852.956 107.107 852.586 107.14 852.22 107.14C851.52 107.14 850.873 107.023 850.28 106.79C849.693 106.55 849.183 106.203 848.75 105.75C848.323 105.29 847.99 104.723 847.75 104.05C847.51 103.377 847.39 102.603 847.39 101.73C847.39 101.023 847.496 100.363 847.71 99.75C847.93 99.1367 848.243 98.6067 848.65 98.16C849.056 97.7067 849.553 97.3533 850.14 97.1C850.726 96.84 851.386 96.71 852.12 96.71ZM852.16 98.02C851.3 98.02 850.623 98.27 850.13 98.77C849.636 99.2633 849.33 99.95 849.21 100.83H854.72C854.72 100.417 854.663 100.04 854.55 99.7C854.436 99.3533 854.27 99.0567 854.05 98.81C853.83 98.5567 853.56 98.3633 853.24 98.23C852.926 98.09 852.566 98.02 852.16 98.02ZM865.998 98.54C865.918 98.6867 865.795 98.76 865.628 98.76C865.528 98.76 865.415 98.7233 865.288 98.65C865.161 98.5767 865.005 98.4967 864.818 98.41C864.638 98.3167 864.421 98.2333 864.168 98.16C863.915 98.08 863.615 98.04 863.268 98.04C862.968 98.04 862.698 98.08 862.458 98.16C862.218 98.2333 862.011 98.3367 861.838 98.47C861.671 98.6033 861.541 98.76 861.448 98.94C861.361 99.1133 861.318 99.3033 861.318 99.51C861.318 99.77 861.391 99.9867 861.538 100.16C861.691 100.333 861.891 100.483 862.138 100.61C862.385 100.737 862.665 100.85 862.978 100.95C863.291 101.043 863.611 101.147 863.938 101.26C864.271 101.367 864.595 101.487 864.908 101.62C865.221 101.753 865.501 101.92 865.748 102.12C865.995 102.32 866.191 102.567 866.338 102.86C866.491 103.147 866.568 103.493 866.568 103.9C866.568 104.367 866.485 104.8 866.318 105.2C866.151 105.593 865.905 105.937 865.578 106.23C865.251 106.517 864.851 106.743 864.378 106.91C863.905 107.077 863.358 107.16 862.738 107.16C862.031 107.16 861.391 107.047 860.818 106.82C860.245 106.587 859.758 106.29 859.358 105.93L859.778 105.25C859.831 105.163 859.895 105.097 859.968 105.05C860.041 105.003 860.138 104.98 860.258 104.98C860.378 104.98 860.505 105.027 860.638 105.12C860.771 105.213 860.931 105.317 861.118 105.43C861.311 105.543 861.541 105.647 861.808 105.74C862.081 105.833 862.421 105.88 862.828 105.88C863.175 105.88 863.478 105.837 863.738 105.75C863.998 105.657 864.215 105.533 864.388 105.38C864.561 105.227 864.688 105.05 864.768 104.85C864.855 104.65 864.898 104.437 864.898 104.21C864.898 103.93 864.821 103.7 864.668 103.52C864.521 103.333 864.325 103.177 864.078 103.05C863.831 102.917 863.548 102.803 863.228 102.71C862.915 102.61 862.591 102.507 862.258 102.4C861.931 102.293 861.608 102.173 861.288 102.04C860.975 101.9 860.695 101.727 860.448 101.52C860.201 101.313 860.001 101.06 859.848 100.76C859.701 100.453 859.628 100.083 859.628 99.65C859.628 99.2633 859.708 98.8933 859.868 98.54C860.028 98.18 860.261 97.8667 860.568 97.6C860.875 97.3267 861.251 97.11 861.698 96.95C862.145 96.79 862.655 96.71 863.228 96.71C863.895 96.71 864.491 96.8167 865.018 97.03C865.551 97.2367 866.011 97.5233 866.398 97.89L865.998 98.54ZM872.45 96.87V107H870.67V96.87H872.45ZM872.85 93.69C872.85 93.8633 872.813 94.0267 872.74 94.18C872.673 94.3267 872.58 94.46 872.46 94.58C872.346 94.6933 872.213 94.7833 872.06 94.85C871.906 94.9167 871.743 94.95 871.57 94.95C871.396 94.95 871.233 94.9167 871.08 94.85C870.933 94.7833 870.8 94.6933 870.68 94.58C870.566 94.46 870.476 94.3267 870.41 94.18C870.343 94.0267 870.31 93.8633 870.31 93.69C870.31 93.5167 870.343 93.3533 870.41 93.2C870.476 93.04 870.566 92.9033 870.68 92.79C870.8 92.67 870.933 92.5767 871.08 92.51C871.233 92.4433 871.396 92.41 871.57 92.41C871.743 92.41 871.906 92.4433 872.06 92.51C872.213 92.5767 872.346 92.67 872.46 92.79C872.58 92.9033 872.673 93.04 872.74 93.2C872.813 93.3533 872.85 93.5167 872.85 93.69ZM880.597 96.7C881.037 96.7 881.447 96.75 881.827 96.85C882.214 96.9433 882.564 97.0833 882.877 97.27H885.627V97.93C885.627 98.15 885.487 98.29 885.207 98.35L884.057 98.51C884.284 98.9433 884.397 99.4267 884.397 99.96C884.397 100.453 884.3 100.903 884.107 101.31C883.92 101.71 883.657 102.053 883.317 102.34C882.984 102.627 882.584 102.847 882.117 103C881.657 103.153 881.15 103.23 880.597 103.23C880.124 103.23 879.677 103.173 879.257 103.06C879.044 103.193 878.88 103.337 878.767 103.49C878.66 103.643 878.607 103.793 878.607 103.94C878.607 104.18 878.704 104.363 878.897 104.49C879.09 104.61 879.347 104.697 879.667 104.75C879.987 104.803 880.35 104.837 880.757 104.85C881.164 104.863 881.577 104.887 881.997 104.92C882.424 104.947 882.84 104.997 883.247 105.07C883.654 105.143 884.017 105.263 884.337 105.43C884.657 105.597 884.914 105.827 885.107 106.12C885.3 106.413 885.397 106.793 885.397 107.26C885.397 107.693 885.287 108.113 885.067 108.52C884.854 108.927 884.544 109.287 884.137 109.6C883.73 109.92 883.234 110.173 882.647 110.36C882.06 110.553 881.397 110.65 880.657 110.65C879.917 110.65 879.267 110.577 878.707 110.43C878.154 110.283 877.694 110.087 877.327 109.84C876.96 109.593 876.684 109.307 876.497 108.98C876.317 108.66 876.227 108.323 876.227 107.97C876.227 107.47 876.384 107.047 876.697 106.7C877.017 106.347 877.454 106.067 878.007 105.86C877.72 105.727 877.49 105.55 877.317 105.33C877.15 105.103 877.067 104.803 877.067 104.43C877.067 104.283 877.094 104.133 877.147 103.98C877.2 103.82 877.28 103.663 877.387 103.51C877.5 103.357 877.637 103.21 877.797 103.07C877.957 102.93 878.144 102.807 878.357 102.7C877.857 102.42 877.464 102.05 877.177 101.59C876.897 101.123 876.757 100.58 876.757 99.96C876.757 99.4667 876.85 99.02 877.037 98.62C877.23 98.2133 877.497 97.87 877.837 97.59C878.177 97.3033 878.58 97.0833 879.047 96.93C879.52 96.7767 880.037 96.7 880.597 96.7ZM883.757 107.55C883.757 107.297 883.687 107.093 883.547 106.94C883.407 106.787 883.217 106.67 882.977 106.59C882.737 106.503 882.46 106.44 882.147 106.4C881.834 106.36 881.504 106.333 881.157 106.32C880.81 106.3 880.457 106.28 880.097 106.26C879.737 106.24 879.394 106.203 879.067 106.15C878.687 106.33 878.377 106.55 878.137 106.81C877.904 107.07 877.787 107.38 877.787 107.74C877.787 107.967 877.844 108.177 877.957 108.37C878.077 108.57 878.257 108.74 878.497 108.88C878.737 109.027 879.037 109.14 879.397 109.22C879.764 109.307 880.194 109.35 880.687 109.35C881.167 109.35 881.597 109.307 881.977 109.22C882.357 109.133 882.677 109.01 882.937 108.85C883.204 108.69 883.407 108.5 883.547 108.28C883.687 108.06 883.757 107.817 883.757 107.55ZM880.597 102.05C880.957 102.05 881.274 102 881.547 101.9C881.827 101.8 882.06 101.66 882.247 101.48C882.434 101.3 882.574 101.087 882.667 100.84C882.76 100.587 882.807 100.31 882.807 100.01C882.807 99.39 882.617 98.8967 882.237 98.53C881.864 98.1633 881.317 97.98 880.597 97.98C879.884 97.98 879.337 98.1633 878.957 98.53C878.584 98.8967 878.397 99.39 878.397 100.01C878.397 100.31 878.444 100.587 878.537 100.84C878.637 101.087 878.78 101.3 878.967 101.48C879.154 101.66 879.384 101.8 879.657 101.9C879.93 102 880.244 102.05 880.597 102.05ZM889.002 107V96.87H890.062C890.315 96.87 890.475 96.9933 890.542 97.24L890.682 98.34C891.122 97.8533 891.612 97.46 892.152 97.16C892.698 96.86 893.328 96.71 894.042 96.71C894.595 96.71 895.082 96.8033 895.502 96.99C895.928 97.17 896.282 97.43 896.562 97.77C896.848 98.1033 897.065 98.5067 897.212 98.98C897.358 99.4533 897.432 99.9767 897.432 100.55V107H895.652V100.55C895.652 99.7833 895.475 99.19 895.122 98.77C894.775 98.3433 894.242 98.13 893.522 98.13C892.995 98.13 892.502 98.2567 892.042 98.51C891.588 98.7633 891.168 99.1067 890.782 99.54V107H889.002ZM905.725 96.71C906.332 96.71 906.892 96.8133 907.405 97.02C907.918 97.22 908.362 97.5133 908.735 97.9C909.108 98.28 909.398 98.7533 909.605 99.32C909.818 99.88 909.925 100.52 909.925 101.24C909.925 101.52 909.895 101.707 909.835 101.8C909.775 101.893 909.662 101.94 909.495 101.94H902.755C902.768 102.58 902.855 103.137 903.015 103.61C903.175 104.083 903.395 104.48 903.675 104.8C903.955 105.113 904.288 105.35 904.675 105.51C905.062 105.663 905.495 105.74 905.975 105.74C906.422 105.74 906.805 105.69 907.125 105.59C907.452 105.483 907.732 105.37 907.965 105.25C908.198 105.13 908.392 105.02 908.545 104.92C908.705 104.813 908.842 104.76 908.955 104.76C909.102 104.76 909.215 104.817 909.295 104.93L909.795 105.58C909.575 105.847 909.312 106.08 909.005 106.28C908.698 106.473 908.368 106.633 908.015 106.76C907.668 106.887 907.308 106.98 906.935 107.04C906.562 107.107 906.192 107.14 905.825 107.14C905.125 107.14 904.478 107.023 903.885 106.79C903.298 106.55 902.788 106.203 902.355 105.75C901.928 105.29 901.595 104.723 901.355 104.05C901.115 103.377 900.995 102.603 900.995 101.73C900.995 101.023 901.102 100.363 901.315 99.75C901.535 99.1367 901.848 98.6067 902.255 98.16C902.662 97.7067 903.158 97.3533 903.745 97.1C904.332 96.84 904.992 96.71 905.725 96.71ZM905.765 98.02C904.905 98.02 904.228 98.27 903.735 98.77C903.242 99.2633 902.935 99.95 902.815 100.83H908.325C908.325 100.417 908.268 100.04 908.155 99.7C908.042 99.3533 907.875 99.0567 907.655 98.81C907.435 98.5567 907.165 98.3633 906.845 98.23C906.532 98.09 906.172 98.02 905.765 98.02ZM920.933 107C920.68 107 920.52 106.877 920.453 106.63L920.293 105.4C919.86 105.927 919.363 106.35 918.803 106.67C918.25 106.983 917.613 107.14 916.893 107.14C916.313 107.14 915.787 107.03 915.313 106.81C914.84 106.583 914.437 106.253 914.103 105.82C913.77 105.387 913.513 104.847 913.333 104.2C913.153 103.553 913.063 102.81 913.063 101.97C913.063 101.223 913.163 100.53 913.363 99.89C913.563 99.2433 913.85 98.6833 914.223 98.21C914.603 97.7367 915.063 97.3667 915.603 97.1C916.143 96.8267 916.757 96.69 917.443 96.69C918.063 96.69 918.593 96.7967 919.033 97.01C919.473 97.2167 919.867 97.51 920.213 97.89V92.27H921.993V107H920.933ZM917.483 105.7C918.063 105.7 918.57 105.567 919.003 105.3C919.443 105.033 919.847 104.657 920.213 104.17V99.27C919.887 98.83 919.527 98.5233 919.133 98.35C918.747 98.17 918.317 98.08 917.843 98.08C916.897 98.08 916.17 98.4167 915.663 99.09C915.157 99.7633 914.903 100.723 914.903 101.97C914.903 102.63 914.96 103.197 915.073 103.67C915.187 104.137 915.353 104.523 915.573 104.83C915.793 105.13 916.063 105.35 916.383 105.49C916.703 105.63 917.07 105.7 917.483 105.7ZM932.102 107V92.27H933.892V98.33C934.312 97.8433 934.792 97.4533 935.332 97.16C935.879 96.86 936.502 96.71 937.202 96.71C937.789 96.71 938.319 96.82 938.792 97.04C939.266 97.26 939.669 97.59 940.002 98.03C940.336 98.4633 940.592 99.0033 940.772 99.65C940.952 100.29 941.042 101.03 941.042 101.87C941.042 102.617 940.942 103.313 940.742 103.96C940.542 104.6 940.252 105.157 939.872 105.63C939.499 106.097 939.039 106.467 938.492 106.74C937.952 107.007 937.342 107.14 936.662 107.14C936.009 107.14 935.452 107.013 934.992 106.76C934.539 106.507 934.142 106.153 933.802 105.7L933.712 106.62C933.659 106.873 933.506 107 933.252 107H932.102ZM936.622 98.13C936.042 98.13 935.532 98.2633 935.092 98.53C934.659 98.7967 934.259 99.1733 933.892 99.66V104.56C934.212 105 934.566 105.31 934.952 105.49C935.346 105.67 935.782 105.76 936.262 105.76C937.209 105.76 937.936 105.423 938.442 104.75C938.949 104.077 939.202 103.117 939.202 101.87C939.202 101.21 939.142 100.643 939.022 100.17C938.909 99.6967 938.742 99.31 938.522 99.01C938.302 98.7033 938.032 98.48 937.712 98.34C937.392 98.2 937.029 98.13 936.622 98.13ZM947.53 109.99C947.47 110.123 947.394 110.23 947.3 110.31C947.214 110.39 947.077 110.43 946.89 110.43H945.57L947.42 106.41L943.24 96.87H944.78C944.934 96.87 945.054 96.91 945.14 96.99C945.227 97.0633 945.29 97.1467 945.33 97.24L948.04 103.62C948.1 103.767 948.15 103.913 948.19 104.06C948.237 104.207 948.277 104.357 948.31 104.51C948.357 104.357 948.404 104.207 948.45 104.06C948.497 103.913 948.55 103.763 948.61 103.61L951.24 97.24C951.28 97.1333 951.347 97.0467 951.44 96.98C951.54 96.9067 951.647 96.87 951.76 96.87H953.18L947.53 109.99ZM961.862 107V96.87H962.922C963.175 96.87 963.335 96.9933 963.402 97.24L963.532 98.28C963.905 97.82 964.322 97.4433 964.782 97.15C965.249 96.8567 965.789 96.71 966.402 96.71C967.089 96.71 967.642 96.9 968.062 97.28C968.489 97.66 968.795 98.1733 968.982 98.82C969.122 98.4533 969.305 98.1367 969.532 97.87C969.765 97.6033 970.025 97.3833 970.312 97.21C970.599 97.0367 970.902 96.91 971.222 96.83C971.549 96.75 971.879 96.71 972.212 96.71C972.745 96.71 973.219 96.7967 973.632 96.97C974.052 97.1367 974.405 97.3833 974.692 97.71C974.985 98.0367 975.209 98.44 975.362 98.92C975.515 99.3933 975.592 99.9367 975.592 100.55V107H973.812V100.55C973.812 99.7567 973.639 99.1567 973.292 98.75C972.945 98.3367 972.442 98.13 971.782 98.13C971.489 98.13 971.209 98.1833 970.942 98.29C970.682 98.39 970.452 98.54 970.252 98.74C970.052 98.94 969.892 99.1933 969.772 99.5C969.659 99.8 969.602 100.15 969.602 100.55V107H967.822V100.55C967.822 99.7367 967.659 99.13 967.332 98.73C967.005 98.33 966.529 98.13 965.902 98.13C965.462 98.13 965.052 98.25 964.672 98.49C964.299 98.7233 963.955 99.0433 963.642 99.45V107H961.862ZM982.545 109.99C982.485 110.123 982.409 110.23 982.315 110.31C982.229 110.39 982.092 110.43 981.905 110.43H980.585L982.435 106.41L978.255 96.87H979.795C979.949 96.87 980.069 96.91 980.155 96.99C980.242 97.0633 980.305 97.1467 980.345 97.24L983.055 103.62C983.115 103.767 983.165 103.913 983.205 104.06C983.252 104.207 983.292 104.357 983.325 104.51C983.372 104.357 983.419 104.207 983.465 104.06C983.512 103.913 983.565 103.763 983.625 103.61L986.255 97.24C986.295 97.1333 986.362 97.0467 986.455 96.98C986.555 96.9067 986.662 96.87 986.775 96.87H988.195L982.545 109.99ZM997.21 98.54C997.13 98.6867 997.006 98.76 996.84 98.76C996.74 98.76 996.626 98.7233 996.5 98.65C996.373 98.5767 996.216 98.4967 996.03 98.41C995.85 98.3167 995.633 98.2333 995.38 98.16C995.126 98.08 994.826 98.04 994.48 98.04C994.18 98.04 993.91 98.08 993.67 98.16C993.43 98.2333 993.223 98.3367 993.05 98.47C992.883 98.6033 992.753 98.76 992.66 98.94C992.573 99.1133 992.53 99.3033 992.53 99.51C992.53 99.77 992.603 99.9867 992.75 100.16C992.903 100.333 993.103 100.483 993.35 100.61C993.596 100.737 993.876 100.85 994.19 100.95C994.503 101.043 994.823 101.147 995.15 101.26C995.483 101.367 995.806 101.487 996.12 101.62C996.433 101.753 996.713 101.92 996.96 102.12C997.206 102.32 997.403 102.567 997.55 102.86C997.703 103.147 997.78 103.493 997.78 103.9C997.78 104.367 997.696 104.8 997.53 105.2C997.363 105.593 997.116 105.937 996.79 106.23C996.463 106.517 996.063 106.743 995.59 106.91C995.116 107.077 994.57 107.16 993.95 107.16C993.243 107.16 992.603 107.047 992.03 106.82C991.456 106.587 990.97 106.29 990.57 105.93L990.99 105.25C991.043 105.163 991.106 105.097 991.18 105.05C991.253 105.003 991.35 104.98 991.47 104.98C991.59 104.98 991.716 105.027 991.85 105.12C991.983 105.213 992.143 105.317 992.33 105.43C992.523 105.543 992.753 105.647 993.02 105.74C993.293 105.833 993.633 105.88 994.04 105.88C994.386 105.88 994.69 105.837 994.95 105.75C995.21 105.657 995.426 105.533 995.6 105.38C995.773 105.227 995.9 105.05 995.98 104.85C996.066 104.65 996.11 104.437 996.11 104.21C996.11 103.93 996.033 103.7 995.88 103.52C995.733 103.333 995.536 103.177 995.29 103.05C995.043 102.917 994.76 102.803 994.44 102.71C994.126 102.61 993.803 102.507 993.47 102.4C993.143 102.293 992.82 102.173 992.5 102.04C992.186 101.9 991.906 101.727 991.66 101.52C991.413 101.313 991.213 101.06 991.06 100.76C990.913 100.453 990.84 100.083 990.84 99.65C990.84 99.2633 990.92 98.8933 991.08 98.54C991.24 98.18 991.473 97.8667 991.78 97.6C992.086 97.3267 992.463 97.11 992.91 96.95C993.356 96.79 993.866 96.71 994.44 96.71C995.106 96.71 995.703 96.8167 996.23 97.03C996.763 97.2367 997.223 97.5233 997.61 97.89L997.21 98.54ZM1005.69 96.71C1006.3 96.71 1006.86 96.8133 1007.37 97.02C1007.88 97.22 1008.33 97.5133 1008.7 97.9C1009.07 98.28 1009.36 98.7533 1009.57 99.32C1009.78 99.88 1009.89 100.52 1009.89 101.24C1009.89 101.52 1009.86 101.707 1009.8 101.8C1009.74 101.893 1009.63 101.94 1009.46 101.94H1002.72C1002.73 102.58 1002.82 103.137 1002.98 103.61C1003.14 104.083 1003.36 104.48 1003.64 104.8C1003.92 105.113 1004.25 105.35 1004.64 105.51C1005.03 105.663 1005.46 105.74 1005.94 105.74C1006.39 105.74 1006.77 105.69 1007.09 105.59C1007.42 105.483 1007.7 105.37 1007.93 105.25C1008.16 105.13 1008.36 105.02 1008.51 104.92C1008.67 104.813 1008.81 104.76 1008.92 104.76C1009.07 104.76 1009.18 104.817 1009.26 104.93L1009.76 105.58C1009.54 105.847 1009.28 106.08 1008.97 106.28C1008.66 106.473 1008.33 106.633 1007.98 106.76C1007.63 106.887 1007.27 106.98 1006.9 107.04C1006.53 107.107 1006.16 107.14 1005.79 107.14C1005.09 107.14 1004.44 107.023 1003.85 106.79C1003.26 106.55 1002.75 106.203 1002.32 105.75C1001.89 105.29 1001.56 104.723 1001.32 104.05C1001.08 103.377 1000.96 102.603 1000.96 101.73C1000.96 101.023 1001.07 100.363 1001.28 99.75C1001.5 99.1367 1001.81 98.6067 1002.22 98.16C1002.63 97.7067 1003.12 97.3533 1003.71 97.1C1004.3 96.84 1004.96 96.71 1005.69 96.71ZM1005.73 98.02C1004.87 98.02 1004.19 98.27 1003.7 98.77C1003.21 99.2633 1002.9 99.95 1002.78 100.83H1008.29C1008.29 100.417 1008.23 100.04 1008.12 99.7C1008.01 99.3533 1007.84 99.0567 1007.62 98.81C1007.4 98.5567 1007.13 98.3633 1006.81 98.23C1006.5 98.09 1006.14 98.02 1005.73 98.02ZM1015.75 92.27V107H1013.97V92.27H1015.75ZM1020.89 107V98.39L1019.77 98.26C1019.63 98.2267 1019.51 98.1767 1019.42 98.11C1019.33 98.0367 1019.29 97.9333 1019.29 97.8V97.07H1020.89V96.09C1020.89 95.51 1020.97 94.9967 1021.13 94.55C1021.29 94.0967 1021.53 93.7167 1021.83 93.41C1022.13 93.0967 1022.5 92.86 1022.93 92.7C1023.35 92.54 1023.83 92.46 1024.37 92.46C1024.82 92.46 1025.24 92.5267 1025.63 92.66L1025.59 93.55C1025.58 93.6833 1025.52 93.7633 1025.42 93.79C1025.31 93.8167 1025.16 93.83 1024.97 93.83H1024.66C1024.35 93.83 1024.07 93.87 1023.82 93.95C1023.57 94.03 1023.36 94.16 1023.18 94.34C1023 94.52 1022.86 94.7567 1022.76 95.05C1022.66 95.3433 1022.62 95.7067 1022.62 96.14V97.07H1025.55V98.36H1022.68V107H1020.89ZM1026.94 105.9C1026.94 105.727 1026.97 105.563 1027.03 105.41C1027.09 105.257 1027.18 105.123 1027.29 105.01C1027.4 104.897 1027.53 104.807 1027.69 104.74C1027.84 104.673 1028 104.64 1028.18 104.64C1028.35 104.64 1028.51 104.673 1028.67 104.74C1028.82 104.807 1028.95 104.897 1029.07 105.01C1029.18 105.123 1029.27 105.257 1029.33 105.41C1029.39 105.563 1029.43 105.727 1029.43 105.9C1029.43 106.08 1029.39 106.247 1029.33 106.4C1029.27 106.547 1029.18 106.677 1029.07 106.79C1028.95 106.903 1028.82 106.99 1028.67 107.05C1028.51 107.117 1028.35 107.15 1028.18 107.15C1028 107.15 1027.84 107.117 1027.69 107.05C1027.53 106.99 1027.4 106.903 1027.29 106.79C1027.18 106.677 1027.09 106.547 1027.03 106.4C1026.97 106.247 1026.94 106.08 1026.94 105.9ZM1044.62 101.3V107H1042.69V101.3L1037.44 92.67H1039.14C1039.32 92.67 1039.45 92.7133 1039.55 92.8C1039.65 92.8867 1039.74 92.9933 1039.81 93.12L1043.09 98.69C1043.23 98.9233 1043.34 99.1433 1043.42 99.35C1043.52 99.5567 1043.6 99.76 1043.67 99.96C1043.75 99.7533 1043.83 99.5467 1043.91 99.34C1044 99.1333 1044.11 98.9167 1044.24 98.69L1047.51 93.12C1047.57 93.0133 1047.65 92.9133 1047.75 92.82C1047.86 92.72 1048 92.67 1048.16 92.67H1049.88L1044.62 101.3ZM1055.5 96.71C1056.24 96.71 1056.91 96.8333 1057.5 97.08C1058.1 97.3267 1058.61 97.6767 1059.02 98.13C1059.44 98.5833 1059.76 99.1333 1059.98 99.78C1060.21 100.42 1060.32 101.137 1060.32 101.93C1060.32 102.73 1060.21 103.45 1059.98 104.09C1059.76 104.73 1059.44 105.277 1059.02 105.73C1058.61 106.183 1058.1 106.533 1057.5 106.78C1056.91 107.02 1056.24 107.14 1055.5 107.14C1054.76 107.14 1054.09 107.02 1053.49 106.78C1052.9 106.533 1052.39 106.183 1051.97 105.73C1051.55 105.277 1051.23 104.73 1051 104.09C1050.77 103.45 1050.66 102.73 1050.66 101.93C1050.66 101.137 1050.77 100.42 1051 99.78C1051.23 99.1333 1051.55 98.5833 1051.97 98.13C1052.39 97.6767 1052.9 97.3267 1053.49 97.08C1054.09 96.8333 1054.76 96.71 1055.5 96.71ZM1055.5 105.75C1056.5 105.75 1057.25 105.417 1057.74 104.75C1058.23 104.077 1058.48 103.14 1058.48 101.94C1058.48 100.733 1058.23 99.7933 1057.74 99.12C1057.25 98.4467 1056.5 98.11 1055.5 98.11C1054.99 98.11 1054.55 98.1967 1054.18 98.37C1053.81 98.5433 1053.49 98.7933 1053.24 99.12C1052.99 99.4467 1052.81 99.85 1052.68 100.33C1052.56 100.803 1052.5 101.34 1052.5 101.94C1052.5 102.54 1052.56 103.077 1052.68 103.55C1052.81 104.023 1052.99 104.423 1053.24 104.75C1053.49 105.07 1053.81 105.317 1054.18 105.49C1054.55 105.663 1054.99 105.75 1055.5 105.75ZM1065.65 96.87V103.33C1065.65 104.097 1065.83 104.69 1066.18 105.11C1066.54 105.53 1067.07 105.74 1067.78 105.74C1068.3 105.74 1068.79 105.617 1069.25 105.37C1069.71 105.123 1070.14 104.78 1070.52 104.34V96.87H1072.3V107H1071.24C1070.99 107 1070.83 106.877 1070.76 106.63L1070.62 105.54C1070.18 106.027 1069.69 106.42 1069.14 106.72C1068.6 107.013 1067.97 107.16 1067.26 107.16C1066.71 107.16 1066.22 107.07 1065.79 106.89C1065.37 106.703 1065.02 106.443 1064.73 106.11C1064.45 105.777 1064.23 105.373 1064.08 104.9C1063.94 104.427 1063.87 103.903 1063.87 103.33V96.87H1065.65ZM1089.2 98.67C1089.15 98.7433 1089.1 98.8 1089.04 98.84C1088.99 98.88 1088.91 98.9 1088.81 98.9C1088.71 98.9 1088.6 98.86 1088.48 98.78C1088.37 98.6933 1088.22 98.6 1088.04 98.5C1087.86 98.4 1087.64 98.31 1087.38 98.23C1087.13 98.1433 1086.82 98.1 1086.44 98.1C1085.95 98.1 1085.51 98.19 1085.13 98.37C1084.75 98.5433 1084.43 98.7967 1084.17 99.13C1083.92 99.4633 1083.73 99.8667 1083.59 100.34C1083.47 100.813 1083.4 101.343 1083.4 101.93C1083.4 102.543 1083.47 103.09 1083.61 103.57C1083.75 104.043 1083.95 104.443 1084.2 104.77C1084.46 105.09 1084.76 105.337 1085.12 105.51C1085.49 105.677 1085.9 105.76 1086.35 105.76C1086.79 105.76 1087.14 105.71 1087.42 105.61C1087.7 105.503 1087.94 105.387 1088.12 105.26C1088.31 105.133 1088.46 105.02 1088.58 104.92C1088.7 104.813 1088.82 104.76 1088.94 104.76C1089.1 104.76 1089.21 104.817 1089.28 104.93L1089.78 105.58C1089.34 106.12 1088.79 106.517 1088.13 106.77C1087.47 107.017 1086.78 107.14 1086.04 107.14C1085.41 107.14 1084.82 107.023 1084.27 106.79C1083.73 106.557 1083.26 106.22 1082.86 105.78C1082.46 105.333 1082.15 104.787 1081.91 104.14C1081.69 103.493 1081.57 102.757 1081.57 101.93C1081.57 101.177 1081.68 100.48 1081.88 99.84C1082.1 99.2 1082.4 98.65 1082.8 98.19C1083.21 97.7233 1083.71 97.36 1084.3 97.1C1084.9 96.84 1085.58 96.71 1086.34 96.71C1087.05 96.71 1087.68 96.8267 1088.22 97.06C1088.77 97.2867 1089.25 97.61 1089.67 98.03L1089.2 98.67ZM1100.67 107H1099.88C1099.71 107 1099.57 106.973 1099.46 106.92C1099.35 106.867 1099.28 106.753 1099.25 106.58L1099.05 105.64C1098.78 105.88 1098.52 106.097 1098.27 106.29C1098.02 106.477 1097.75 106.637 1097.47 106.77C1097.19 106.897 1096.89 106.993 1096.57 107.06C1096.26 107.127 1095.91 107.16 1095.52 107.16C1095.13 107.16 1094.76 107.107 1094.41 107C1094.07 106.887 1093.77 106.72 1093.52 106.5C1093.27 106.28 1093.06 106.003 1092.91 105.67C1092.76 105.33 1092.69 104.93 1092.69 104.47C1092.69 104.07 1092.8 103.687 1093.02 103.32C1093.24 102.947 1093.59 102.617 1094.08 102.33C1094.57 102.043 1095.22 101.81 1096.01 101.63C1096.8 101.443 1097.77 101.337 1098.92 101.31V100.52C1098.92 99.7333 1098.75 99.14 1098.41 98.74C1098.08 98.3333 1097.58 98.13 1096.92 98.13C1096.49 98.13 1096.12 98.1867 1095.82 98.3C1095.53 98.4067 1095.27 98.53 1095.05 98.67C1094.84 98.8033 1094.65 98.9267 1094.49 99.04C1094.34 99.1467 1094.18 99.2 1094.03 99.2C1093.91 99.2 1093.8 99.17 1093.71 99.11C1093.62 99.0433 1093.55 98.9633 1093.5 98.87L1093.18 98.3C1093.74 97.76 1094.34 97.3567 1094.99 97.09C1095.64 96.8233 1096.35 96.69 1097.14 96.69C1097.71 96.69 1098.21 96.7833 1098.65 96.97C1099.09 97.1567 1099.46 97.4167 1099.76 97.75C1100.06 98.0833 1100.29 98.4867 1100.44 98.96C1100.59 99.4333 1100.67 99.9533 1100.67 100.52V107ZM1096.05 105.91C1096.36 105.91 1096.65 105.88 1096.91 105.82C1097.17 105.753 1097.41 105.663 1097.64 105.55C1097.87 105.43 1098.09 105.287 1098.3 105.12C1098.51 104.953 1098.72 104.763 1098.92 104.55V102.44C1098.1 102.467 1097.4 102.533 1096.83 102.64C1096.26 102.74 1095.79 102.873 1095.43 103.04C1095.07 103.207 1094.81 103.403 1094.64 103.63C1094.48 103.857 1094.4 104.11 1094.4 104.39C1094.4 104.657 1094.44 104.887 1094.53 105.08C1094.62 105.273 1094.73 105.433 1094.88 105.56C1095.03 105.68 1095.2 105.77 1095.4 105.83C1095.6 105.883 1095.82 105.91 1096.05 105.91ZM1104.97 107V96.87H1106.03C1106.28 96.87 1106.44 96.9933 1106.51 97.24L1106.65 98.34C1107.09 97.8533 1107.58 97.46 1108.12 97.16C1108.66 96.86 1109.29 96.71 1110.01 96.71C1110.56 96.71 1111.05 96.8033 1111.47 96.99C1111.89 97.17 1112.25 97.43 1112.53 97.77C1112.81 98.1033 1113.03 98.5067 1113.18 98.98C1113.32 99.4533 1113.4 99.9767 1113.4 100.55V107H1111.62V100.55C1111.62 99.7833 1111.44 99.19 1111.09 98.77C1110.74 98.3433 1110.21 98.13 1109.49 98.13C1108.96 98.13 1108.47 98.2567 1108.01 98.51C1107.55 98.7633 1107.13 99.1067 1106.75 99.54V107H1104.97ZM1124.69 96.87V103.33C1124.69 104.097 1124.86 104.69 1125.22 105.11C1125.57 105.53 1126.1 105.74 1126.82 105.74C1127.34 105.74 1127.83 105.617 1128.29 105.37C1128.75 105.123 1129.17 104.78 1129.56 104.34V96.87H1131.34V107H1130.28C1130.02 107 1129.86 106.877 1129.8 106.63L1129.66 105.54C1129.22 106.027 1128.72 106.42 1128.18 106.72C1127.63 107.013 1127 107.16 1126.3 107.16C1125.74 107.16 1125.25 107.07 1124.83 106.89C1124.41 106.703 1124.05 106.443 1123.77 106.11C1123.48 105.777 1123.26 105.373 1123.12 104.9C1122.98 104.427 1122.91 103.903 1122.91 103.33V96.87H1124.69ZM1141.66 98.54C1141.58 98.6867 1141.46 98.76 1141.29 98.76C1141.19 98.76 1141.08 98.7233 1140.95 98.65C1140.82 98.5767 1140.67 98.4967 1140.48 98.41C1140.3 98.3167 1140.08 98.2333 1139.83 98.16C1139.58 98.08 1139.28 98.04 1138.93 98.04C1138.63 98.04 1138.36 98.08 1138.12 98.16C1137.88 98.2333 1137.67 98.3367 1137.5 98.47C1137.33 98.6033 1137.2 98.76 1137.11 98.94C1137.02 99.1133 1136.98 99.3033 1136.98 99.51C1136.98 99.77 1137.05 99.9867 1137.2 100.16C1137.35 100.333 1137.55 100.483 1137.8 100.61C1138.05 100.737 1138.33 100.85 1138.64 100.95C1138.95 101.043 1139.27 101.147 1139.6 101.26C1139.93 101.367 1140.26 101.487 1140.57 101.62C1140.88 101.753 1141.16 101.92 1141.41 102.12C1141.66 102.32 1141.85 102.567 1142 102.86C1142.15 103.147 1142.23 103.493 1142.23 103.9C1142.23 104.367 1142.15 104.8 1141.98 105.2C1141.81 105.593 1141.57 105.937 1141.24 106.23C1140.91 106.517 1140.51 106.743 1140.04 106.91C1139.57 107.077 1139.02 107.16 1138.4 107.16C1137.69 107.16 1137.05 107.047 1136.48 106.82C1135.91 106.587 1135.42 106.29 1135.02 105.93L1135.44 105.25C1135.49 105.163 1135.56 105.097 1135.63 105.05C1135.7 105.003 1135.8 104.98 1135.92 104.98C1136.04 104.98 1136.17 105.027 1136.3 105.12C1136.43 105.213 1136.59 105.317 1136.78 105.43C1136.97 105.543 1137.2 105.647 1137.47 105.74C1137.74 105.833 1138.08 105.88 1138.49 105.88C1138.84 105.88 1139.14 105.837 1139.4 105.75C1139.66 105.657 1139.88 105.533 1140.05 105.38C1140.22 105.227 1140.35 105.05 1140.43 104.85C1140.52 104.65 1140.56 104.437 1140.56 104.21C1140.56 103.93 1140.48 103.7 1140.33 103.52C1140.18 103.333 1139.99 103.177 1139.74 103.05C1139.49 102.917 1139.21 102.803 1138.89 102.71C1138.58 102.61 1138.25 102.507 1137.92 102.4C1137.59 102.293 1137.27 102.173 1136.95 102.04C1136.64 101.9 1136.36 101.727 1136.11 101.52C1135.86 101.313 1135.66 101.06 1135.51 100.76C1135.36 100.453 1135.29 100.083 1135.29 99.65C1135.29 99.2633 1135.37 98.8933 1135.53 98.54C1135.69 98.18 1135.92 97.8667 1136.23 97.6C1136.54 97.3267 1136.91 97.11 1137.36 96.95C1137.81 96.79 1138.32 96.71 1138.89 96.71C1139.56 96.71 1140.15 96.8167 1140.68 97.03C1141.21 97.2367 1141.67 97.5233 1142.06 97.89L1141.66 98.54ZM1150.14 96.71C1150.75 96.71 1151.31 96.8133 1151.82 97.02C1152.33 97.22 1152.78 97.5133 1153.15 97.9C1153.52 98.28 1153.81 98.7533 1154.02 99.32C1154.23 99.88 1154.34 100.52 1154.34 101.24C1154.34 101.52 1154.31 101.707 1154.25 101.8C1154.19 101.893 1154.08 101.94 1153.91 101.94H1147.17C1147.18 102.58 1147.27 103.137 1147.43 103.61C1147.59 104.083 1147.81 104.48 1148.09 104.8C1148.37 105.113 1148.7 105.35 1149.09 105.51C1149.48 105.663 1149.91 105.74 1150.39 105.74C1150.84 105.74 1151.22 105.69 1151.54 105.59C1151.87 105.483 1152.15 105.37 1152.38 105.25C1152.61 105.13 1152.81 105.02 1152.96 104.92C1153.12 104.813 1153.26 104.76 1153.37 104.76C1153.52 104.76 1153.63 104.817 1153.71 104.93L1154.21 105.58C1153.99 105.847 1153.73 106.08 1153.42 106.28C1153.11 106.473 1152.78 106.633 1152.43 106.76C1152.08 106.887 1151.72 106.98 1151.35 107.04C1150.98 107.107 1150.61 107.14 1150.24 107.14C1149.54 107.14 1148.89 107.023 1148.3 106.79C1147.71 106.55 1147.2 106.203 1146.77 105.75C1146.34 105.29 1146.01 104.723 1145.77 104.05C1145.53 103.377 1145.41 102.603 1145.41 101.73C1145.41 101.023 1145.52 100.363 1145.73 99.75C1145.95 99.1367 1146.26 98.6067 1146.67 98.16C1147.08 97.7067 1147.57 97.3533 1148.16 97.1C1148.75 96.84 1149.41 96.71 1150.14 96.71ZM1150.18 98.02C1149.32 98.02 1148.64 98.27 1148.15 98.77C1147.66 99.2633 1147.35 99.95 1147.23 100.83H1152.74C1152.74 100.417 1152.68 100.04 1152.57 99.7C1152.46 99.3533 1152.29 99.0567 1152.07 98.81C1151.85 98.5567 1151.58 98.3633 1151.26 98.23C1150.95 98.09 1150.59 98.02 1150.18 98.02ZM1166.76 107.16C1165.96 107.16 1165.34 106.937 1164.91 106.49C1164.48 106.043 1164.27 105.4 1164.27 104.56V98.36H1163.05C1162.94 98.36 1162.85 98.33 1162.78 98.27C1162.7 98.2033 1162.67 98.1033 1162.67 97.97V97.26L1164.33 97.05L1164.74 93.92C1164.75 93.82 1164.79 93.74 1164.87 93.68C1164.94 93.6133 1165.03 93.58 1165.15 93.58H1166.05V97.07H1168.95V98.36H1166.05V104.44C1166.05 104.867 1166.15 105.183 1166.36 105.39C1166.56 105.597 1166.83 105.7 1167.16 105.7C1167.34 105.7 1167.5 105.677 1167.64 105.63C1167.78 105.577 1167.9 105.52 1168 105.46C1168.1 105.4 1168.18 105.347 1168.25 105.3C1168.32 105.247 1168.38 105.22 1168.44 105.22C1168.53 105.22 1168.61 105.277 1168.69 105.39L1169.21 106.24C1168.9 106.527 1168.53 106.753 1168.1 106.92C1167.66 107.08 1167.22 107.16 1166.76 107.16ZM1172.75 107V92.27H1174.53V98.23C1174.96 97.77 1175.44 97.4033 1175.97 97.13C1176.49 96.85 1177.1 96.71 1177.79 96.71C1178.34 96.71 1178.83 96.8033 1179.25 96.99C1179.67 97.17 1180.03 97.43 1180.31 97.77C1180.59 98.1033 1180.81 98.5067 1180.96 98.98C1181.1 99.4533 1181.18 99.9767 1181.18 100.55V107H1179.4V100.55C1179.4 99.7833 1179.22 99.19 1178.87 98.77C1178.52 98.3433 1177.99 98.13 1177.27 98.13C1176.74 98.13 1176.25 98.2567 1175.79 98.51C1175.33 98.7633 1174.91 99.1067 1174.53 99.54V107H1172.75ZM1189.47 96.71C1190.08 96.71 1190.64 96.8133 1191.15 97.02C1191.66 97.22 1192.11 97.5133 1192.48 97.9C1192.85 98.28 1193.14 98.7533 1193.35 99.32C1193.56 99.88 1193.67 100.52 1193.67 101.24C1193.67 101.52 1193.64 101.707 1193.58 101.8C1193.52 101.893 1193.41 101.94 1193.24 101.94H1186.5C1186.51 102.58 1186.6 103.137 1186.76 103.61C1186.92 104.083 1187.14 104.48 1187.42 104.8C1187.7 105.113 1188.03 105.35 1188.42 105.51C1188.81 105.663 1189.24 105.74 1189.72 105.74C1190.17 105.74 1190.55 105.69 1190.87 105.59C1191.2 105.483 1191.48 105.37 1191.71 105.25C1191.94 105.13 1192.14 105.02 1192.29 104.92C1192.45 104.813 1192.59 104.76 1192.7 104.76C1192.85 104.76 1192.96 104.817 1193.04 104.93L1193.54 105.58C1193.32 105.847 1193.06 106.08 1192.75 106.28C1192.44 106.473 1192.11 106.633 1191.76 106.76C1191.41 106.887 1191.05 106.98 1190.68 107.04C1190.31 107.107 1189.94 107.14 1189.57 107.14C1188.87 107.14 1188.22 107.023 1187.63 106.79C1187.04 106.55 1186.53 106.203 1186.1 105.75C1185.67 105.29 1185.34 104.723 1185.1 104.05C1184.86 103.377 1184.74 102.603 1184.74 101.73C1184.74 101.023 1184.85 100.363 1185.06 99.75C1185.28 99.1367 1185.59 98.6067 1186 98.16C1186.41 97.7067 1186.9 97.3533 1187.49 97.1C1188.08 96.84 1188.74 96.71 1189.47 96.71ZM1189.51 98.02C1188.65 98.02 1187.97 98.27 1187.48 98.77C1186.99 99.2633 1186.68 99.95 1186.56 100.83H1192.07C1192.07 100.417 1192.01 100.04 1191.9 99.7C1191.79 99.3533 1191.62 99.0567 1191.4 98.81C1191.18 98.5567 1190.91 98.3633 1190.59 98.23C1190.28 98.09 1189.92 98.02 1189.51 98.02ZM1197.55 107V96.87H1198.61C1198.86 96.87 1199.02 96.9933 1199.09 97.24L1199.22 98.28C1199.59 97.82 1200.01 97.4433 1200.47 97.15C1200.94 96.8567 1201.48 96.71 1202.09 96.71C1202.78 96.71 1203.33 96.9 1203.75 97.28C1204.18 97.66 1204.48 98.1733 1204.67 98.82C1204.81 98.4533 1204.99 98.1367 1205.22 97.87C1205.45 97.6033 1205.71 97.3833 1206 97.21C1206.29 97.0367 1206.59 96.91 1206.91 96.83C1207.24 96.75 1207.57 96.71 1207.9 96.71C1208.43 96.71 1208.91 96.7967 1209.32 96.97C1209.74 97.1367 1210.09 97.3833 1210.38 97.71C1210.67 98.0367 1210.9 98.44 1211.05 98.92C1211.2 99.3933 1211.28 99.9367 1211.28 100.55V107H1209.5V100.55C1209.5 99.7567 1209.33 99.1567 1208.98 98.75C1208.63 98.3367 1208.13 98.13 1207.47 98.13C1207.18 98.13 1206.9 98.1833 1206.63 98.29C1206.37 98.39 1206.14 98.54 1205.94 98.74C1205.74 98.94 1205.58 99.1933 1205.46 99.5C1205.35 99.8 1205.29 100.15 1205.29 100.55V107H1203.51V100.55C1203.51 99.7367 1203.35 99.13 1203.02 98.73C1202.69 98.33 1202.22 98.13 1201.59 98.13C1201.15 98.13 1200.74 98.25 1200.36 98.49C1199.99 98.7233 1199.64 99.0433 1199.33 99.45V107H1197.55ZM1221.44 107V98.39L1220.32 98.26C1220.18 98.2267 1220.06 98.1767 1219.97 98.11C1219.88 98.0367 1219.84 97.9333 1219.84 97.8V97.07H1221.44V96.09C1221.44 95.51 1221.52 94.9967 1221.68 94.55C1221.85 94.0967 1222.08 93.7167 1222.38 93.41C1222.69 93.0967 1223.05 92.86 1223.48 92.7C1223.91 92.54 1224.39 92.46 1224.92 92.46C1225.37 92.46 1225.79 92.5267 1226.18 92.66L1226.14 93.55C1226.13 93.6833 1226.08 93.7633 1225.97 93.79C1225.86 93.8167 1225.71 93.83 1225.52 93.83H1225.21C1224.9 93.83 1224.62 93.87 1224.37 93.95C1224.12 94.03 1223.91 94.16 1223.73 94.34C1223.55 94.52 1223.41 94.7567 1223.31 95.05C1223.22 95.3433 1223.17 95.7067 1223.17 96.14V97.07H1226.1V98.36H1223.23V107H1221.44ZM1229.38 107V96.87H1230.4C1230.59 96.87 1230.73 96.9067 1230.8 96.98C1230.87 97.0533 1230.92 97.18 1230.95 97.36L1231.07 98.94C1231.42 98.2333 1231.84 97.6833 1232.35 97.29C1232.86 96.89 1233.46 96.69 1234.15 96.69C1234.43 96.69 1234.68 96.7233 1234.91 96.79C1235.14 96.85 1235.35 96.9367 1235.54 97.05L1235.31 98.38C1235.26 98.5467 1235.16 98.63 1235 98.63C1234.91 98.63 1234.76 98.6 1234.57 98.54C1234.38 98.4733 1234.11 98.44 1233.76 98.44C1233.14 98.44 1232.62 98.62 1232.2 98.98C1231.79 99.34 1231.44 99.8633 1231.16 100.55V107H1229.38ZM1243.06 96.71C1243.66 96.71 1244.22 96.8133 1244.74 97.02C1245.25 97.22 1245.69 97.5133 1246.07 97.9C1246.44 98.28 1246.73 98.7533 1246.94 99.32C1247.15 99.88 1247.26 100.52 1247.26 101.24C1247.26 101.52 1247.23 101.707 1247.17 101.8C1247.11 101.893 1246.99 101.94 1246.83 101.94H1240.09C1240.1 102.58 1240.19 103.137 1240.35 103.61C1240.51 104.083 1240.73 104.48 1241.01 104.8C1241.29 105.113 1241.62 105.35 1242.01 105.51C1242.39 105.663 1242.83 105.74 1243.31 105.74C1243.75 105.74 1244.14 105.69 1244.46 105.59C1244.78 105.483 1245.06 105.37 1245.3 105.25C1245.53 105.13 1245.72 105.02 1245.88 104.92C1246.04 104.813 1246.17 104.76 1246.29 104.76C1246.43 104.76 1246.55 104.817 1246.63 104.93L1247.13 105.58C1246.91 105.847 1246.64 106.08 1246.34 106.28C1246.03 106.473 1245.7 106.633 1245.35 106.76C1245 106.887 1244.64 106.98 1244.27 107.04C1243.89 107.107 1243.52 107.14 1243.16 107.14C1242.46 107.14 1241.81 107.023 1241.22 106.79C1240.63 106.55 1240.12 106.203 1239.69 105.75C1239.26 105.29 1238.93 104.723 1238.69 104.05C1238.45 103.377 1238.33 102.603 1238.33 101.73C1238.33 101.023 1238.43 100.363 1238.65 99.75C1238.87 99.1367 1239.18 98.6067 1239.59 98.16C1239.99 97.7067 1240.49 97.3533 1241.08 97.1C1241.66 96.84 1242.32 96.71 1243.06 96.71ZM1243.1 98.02C1242.24 98.02 1241.56 98.27 1241.07 98.77C1240.57 99.2633 1240.27 99.95 1240.15 100.83H1245.66C1245.66 100.417 1245.6 100.04 1245.49 99.7C1245.37 99.3533 1245.21 99.0567 1244.99 98.81C1244.77 98.5567 1244.5 98.3633 1244.18 98.23C1243.86 98.09 1243.5 98.02 1243.1 98.02ZM1255.14 96.71C1255.75 96.71 1256.31 96.8133 1256.82 97.02C1257.34 97.22 1257.78 97.5133 1258.15 97.9C1258.53 98.28 1258.82 98.7533 1259.02 99.32C1259.24 99.88 1259.34 100.52 1259.34 101.24C1259.34 101.52 1259.31 101.707 1259.25 101.8C1259.19 101.893 1259.08 101.94 1258.91 101.94H1252.17C1252.19 102.58 1252.27 103.137 1252.43 103.61C1252.59 104.083 1252.81 104.48 1253.09 104.8C1253.37 105.113 1253.71 105.35 1254.09 105.51C1254.48 105.663 1254.91 105.74 1255.39 105.74C1255.84 105.74 1256.22 105.69 1256.54 105.59C1256.87 105.483 1257.15 105.37 1257.38 105.25C1257.62 105.13 1257.81 105.02 1257.96 104.92C1258.12 104.813 1258.26 104.76 1258.37 104.76C1258.52 104.76 1258.63 104.817 1258.71 104.93L1259.21 105.58C1258.99 105.847 1258.73 106.08 1258.42 106.28C1258.12 106.473 1257.79 106.633 1257.43 106.76C1257.09 106.887 1256.73 106.98 1256.35 107.04C1255.98 107.107 1255.61 107.14 1255.24 107.14C1254.54 107.14 1253.9 107.023 1253.3 106.79C1252.72 106.55 1252.21 106.203 1251.77 105.75C1251.35 105.29 1251.01 104.723 1250.77 104.05C1250.53 103.377 1250.41 102.603 1250.41 101.73C1250.41 101.023 1250.52 100.363 1250.73 99.75C1250.95 99.1367 1251.27 98.6067 1251.67 98.16C1252.08 97.7067 1252.58 97.3533 1253.16 97.1C1253.75 96.84 1254.41 96.71 1255.14 96.71ZM1255.18 98.02C1254.32 98.02 1253.65 98.27 1253.15 98.77C1252.66 99.2633 1252.35 99.95 1252.23 100.83H1257.74C1257.74 100.417 1257.69 100.04 1257.57 99.7C1257.46 99.3533 1257.29 99.0567 1257.07 98.81C1256.85 98.5567 1256.58 98.3633 1256.26 98.23C1255.95 98.09 1255.59 98.02 1255.18 98.02ZM1265.2 92.27V107H1263.42V92.27H1265.2ZM1272.91 109.99C1272.85 110.123 1272.77 110.23 1272.68 110.31C1272.59 110.39 1272.46 110.43 1272.27 110.43H1270.95L1272.8 106.41L1268.62 96.87H1270.16C1270.31 96.87 1270.43 96.91 1270.52 96.99C1270.61 97.0633 1270.67 97.1467 1270.71 97.24L1273.42 103.62C1273.48 103.767 1273.53 103.913 1273.57 104.06C1273.62 104.207 1273.66 104.357 1273.69 104.51C1273.74 104.357 1273.78 104.207 1273.83 104.06C1273.88 103.913 1273.93 103.763 1273.99 103.61L1276.62 97.24C1276.66 97.1333 1276.73 97.0467 1276.82 96.98C1276.92 96.9067 1277.03 96.87 1277.14 96.87H1278.56L1272.91 109.99ZM1279.87 105.9C1279.87 105.727 1279.9 105.563 1279.96 105.41C1280.02 105.257 1280.11 105.123 1280.22 105.01C1280.33 104.897 1280.46 104.807 1280.62 104.74C1280.77 104.673 1280.93 104.64 1281.11 104.64C1281.28 104.64 1281.44 104.673 1281.6 104.74C1281.75 104.807 1281.88 104.897 1282 105.01C1282.11 105.123 1282.2 105.257 1282.26 105.41C1282.32 105.563 1282.36 105.727 1282.36 105.9C1282.36 106.08 1282.32 106.247 1282.26 106.4C1282.2 106.547 1282.11 106.677 1282 106.79C1281.88 106.903 1281.75 106.99 1281.6 107.05C1281.44 107.117 1281.28 107.15 1281.11 107.15C1280.93 107.15 1280.77 107.117 1280.62 107.05C1280.46 106.99 1280.33 106.903 1280.22 106.79C1280.11 106.677 1280.02 106.547 1279.96 106.4C1279.9 106.247 1279.87 106.08 1279.87 105.9Z" fill="white"/>
<path d="M139.383 436.799C129.597 423.586 116.864 395.511 125.041 377.464C140.21 343.987 194.004 330.791 211.991 341.22C207.739 341.583 194.341 346.75 180.367 355.532C167.664 363.515 162.416 384.536 178.796 370.832C184.53 366.034 201.075 353.477 211.982 350.913C234.071 345.72 255.369 349.291 269.523 362.727C259.623 362.421 240.635 362.597 220.2 369.933C194.656 379.104 185.192 390.975 185.726 392.215C186.26 393.454 185.52 392.009 208.934 382.532C246.261 367.423 291.809 367.647 317.284 404.616C292.158 387.871 270.092 391.708 239.752 396.141C224.866 398.316 198.231 408.869 201.313 411.826C204.396 414.784 208.069 412.711 219.9 409.695C231.73 406.679 256.109 405.117 271.11 406.367C304.161 409.123 337.933 408.772 354.223 464.557C326.549 436.76 287.459 433.607 253.774 432.303C246.636 432.027 202.398 434.516 204.305 445.927C205.451 452.781 225.819 448.009 231.55 447.621C237.282 447.233 263.806 444.901 271.382 444.82C278.959 444.739 295.281 444.196 315.215 453.362C335.15 462.528 344.965 474.708 347.94 479.182C350.914 483.656 356.459 498.288 356.078 509.106C355.773 517.761 355.924 526.929 356.038 530.431C351.701 523.605 339.825 508.19 321.583 496.947C298.781 482.894 280.465 478.111 271.73 476.609C262.995 475.107 249.284 474.793 249.023 479.927C248.761 485.06 262.608 492.146 269.443 495.201C276.279 498.256 292.375 505.064 298.319 508.258C304.262 511.452 320.749 522.947 331.297 532.852C341.845 542.756 344.151 551.42 345.355 565.473C346.318 576.716 337.312 600.886 334.249 605.186C336.345 598.568 333.97 588.488 325.634 578.362M139.383 436.799L130.505 435.849M139.383 436.799C140.545 430.298 139.745 407.248 143.382 395.199C147.929 380.136 153.787 372.344 160.718 364.581M139.383 436.799C142.655 430.042 151.867 413.663 162.535 402.208C175.87 387.89 192.021 374.807 201.001 368.488M139.383 436.799C141.501 437.374 144.321 438.31 147.744 439.643M139.383 436.799C107.162 442.056 65.8921 486.367 73.5089 519.277M325.634 578.362C295.387 566.473 315.889 589.204 302.467 588.206C291.666 587.404 280.138 584.018 261.049 562.241C249.442 549 234.492 509.043 228.836 518.751C222.36 529.865 230.676 554.297 246.16 575.089C265.222 600.685 292.588 605.262 294.994 606.43C291.23 606.378 264.547 619.668 250.911 617.362C240.703 615.635 222.969 611.368 208.258 587.827C193.547 564.287 191.077 532.695 190.476 524.014C189.996 517.07 192.495 497.714 193.805 488.904C193.579 484.552 191.589 477.711 185.437 485.162C177.748 494.476 180.842 536.249 184.922 555.432C189.578 577.324 205.873 606.657 224.67 621.196C217.602 619.955 196.038 618.875 182.45 612.779C165.465 605.158 154.641 597.631 148.207 578.728C141.774 559.825 140.012 543.801 140.502 529.262C140.993 514.723 145.746 496.388 147.782 490.735C149.411 486.213 155.324 474.656 157.161 469.129C142.858 473.008 136.33 492.733 133.643 505.831C131.559 515.988 128.539 531.935 128.721 540.306C129.057 555.754 130.839 593.337 150.974 600.936C132.884 597.183 110.23 577.779 102.277 562.095C93.4095 544.609 95.6958 524.201 97.679 517.101C99.6623 510.001 109.233 485.182 114.64 476.974C118.965 470.407 122.427 463.985 123.617 461.594C124.804 459.491 125.89 455.962 120.739 458.671C115.589 461.38 108.627 470.38 105.79 474.542C103.577 478.312 98.7459 486.811 97.1248 490.644C95.0985 495.436 89.0625 512.12 88.1494 518.391C87.2363 524.663 86.214 534.655 87.68 542.473C88.8528 548.727 91.8882 555.477 93.2593 558.07C78.633 554.349 56.8774 534.621 54.7746 508.307C52.7504 482.978 70.2613 466.554 86.1192 451.504C88.1287 449.985 92.0848 444.372 83.434 445.846C62.2909 449.45 46.1769 476.637 42.5319 495.635C38.4124 492.92 30.0811 474.96 29.6458 463.882C29.0154 447.836 36.9404 433.448 50.6667 425.668M325.634 578.362C317.627 571.852 292.95 551.63 286.115 545.66C278.806 539.276 259.218 529.369 239.149 499.627M130.505 435.849C123.467 429.453 115.947 424.366 109.798 421.138C103.65 417.909 91.2165 415.552 76.2673 416.851C68.0286 417.566 58.3044 421.34 50.6667 425.668M130.505 435.849C117.925 435.433 57.9198 431.801 46.8952 454.378M130.505 435.849C114.987 431.117 81.3259 421.701 70.8268 421.889C60.3277 422.078 53.0121 424.487 50.6667 425.668M157.784 443.954C151.987 448.975 138.93 462.245 133.075 475.153C125.755 491.287 114.659 518.969 112.685 538.678C111.107 554.445 113.656 564.629 115.128 567.75M157.784 443.954C154.037 442.212 150.67 440.783 147.744 439.643M157.784 443.954C160.542 445.236 163.505 446.687 166.65 448.316M179.223 455.266C175.591 458.913 167.708 473.209 165.238 501.214C162.15 536.221 164.697 553.614 169.028 570.729C172.492 584.421 177.027 593.856 178.861 596.861M179.223 455.266C174.782 452.66 170.575 450.35 166.65 448.316M179.223 455.266C185.054 458.687 191.289 462.615 197.821 467.091M210.511 476.225C213.909 478.791 217.364 481.497 220.861 484.347C227.618 489.854 233.686 494.938 239.149 499.627M210.511 476.225C208.777 482.799 208.386 501.039 211.16 525.187C214.699 555.99 217.474 560.568 225.85 581.663C231.094 594.871 239.927 601.567 244.265 603.747M210.511 476.225C206.181 472.956 201.942 469.915 197.821 467.091M147.744 439.643C156.925 430.109 178.8 409.527 192.859 403.468C210.433 395.896 219.911 390.954 234.149 388.003M166.65 448.316C169.634 443.642 182.114 432.982 208.167 427.731C240.733 421.168 257.813 420.176 285.765 422.335C308.127 424.063 318.943 430.734 321.556 433.853M197.821 467.091C205.494 465.54 228.272 462.198 258.002 461.24C287.731 460.283 319.595 477.436 331.81 486.132M239.149 499.627C254.597 504.639 295.444 526.7 305.572 535.365C315.7 544.031 325.292 555.074 328.822 559.512" stroke="white" stroke-width="2" stroke-linecap="round" stroke-linejoin="round"/>
<path d="M1835.06 879.859C1871.68 857.6 1903.67 838.972 1903.67 838.972M1594.23 1076.34C1587.58 1084.09 1581.28 1091.84 1575.45 1099.5M1702.7 1035.97C1702.7 1035.97 1702.7 1035.94 1702.68 1035.88C1702.39 1034.67 1699.49 1021.91 1701.1 1003.95C1702.23 991.251 1705.62 975.949 1713.79 960.307L1713.79 960.297C1713.79 960.297 1713.79 960.297 1713.8 960.295L1713.8 960.286L1713.81 960.284C1713.81 960.284 1713.81 960.284 1713.81 960.275M1713.22 960.287L1713.22 960.297L1713.23 960.295M1714.31 964.37C1714.31 964.37 1708.63 993.711 1745.24 1005.05M1701.52 1003.84C1687.07 1011.7 1680.94 1023.94 1679.24 1027.98M1624.78 1116.92C1635.15 1120.13 1649.11 1120.06 1667.67 1112.66M1687.95 1042.02C1686.64 1038.15 1684.23 1032.7 1680 1027.68C1674.56 1021.22 1666.11 1015.49 1653.12 1014.82C1646.96 1014.5 1639.78 1015.32 1631.42 1017.74C1594.2 1028.49 1591.17 1058.65 1593.5 1076.85C1594.35 1083.46 1595.9 1088.5 1596.78 1090.44C1597.79 1092.7 1600.12 1097.62 1604.38 1102.69M1533.82 1132.58C1524.75 1148.58 1519.99 1170.55 1529.12 1192.69C1542.86 1226.08 1571.09 1231.75 1600.3 1222.45C1629.52 1213.14 1644.84 1175.32 1641.09 1152.93C1639.1 1141.04 1634.6 1126.89 1625.7 1116.37C1620.68 1110.43 1614.26 1105.64 1606.08 1103.05C1601.44 1101.58 1596.22 1100.82 1590.38 1100.97C1584.38 1101.12 1579.25 1101.6 1574.84 1102.3M1530 1191.07C1511.53 1213.84 1487.46 1211.07 1471.97 1198.06C1467.54 1194.34 1463.81 1189.77 1461.13 1184.73C1457.99 1178.85 1456.15 1172.75 1455.34 1166.73C1453.01 1149.57 1459.01 1133.05 1466.99 1123.91C1474.65 1115.11 1488.45 1112.09 1495.77 1111.06M1460.9 1167.93C1460.9 1167.93 1451.43 1162.75 1449.54 1170.54C1447.65 1178.33 1456.36 1181.5 1458.73 1189.13C1461.1 1196.77 1459.19 1207.12 1463.46 1209.16C1467.72 1211.19 1473.7 1208.15 1472.69 1197.8M1817.32 890.193C1817.32 890.193 1795.92 902.76 1802.5 940.119C1809.09 977.488 1834.97 986.859 1834.97 986.859C1853.86 960.024 1851.77 930.972 1848.21 907.386C1846.27 894.463 1840.06 885.227 1834.17 880.803M1834.17 880.803C1833.41 880.226 1832.65 879.736 1831.91 879.326C1827.93 877.137 1825.55 878.495 1822.85 880.316C1815.34 885.369 1820.96 891.634 1830.05 887.749C1831.95 886.944 1834.22 884.258 1834.17 880.803ZM1834.17 880.803C1834.18 879.961 1834.08 879.056 1833.89 878.107C1832.42 870.779 1825.11 860.525 1805.49 851.11C1772.96 835.503 1732.81 840.268 1732.81 840.268C1732.81 840.268 1754.03 871.17 1772.94 889.612M1772.94 889.612C1786.24 886.331 1797.25 886.706 1801.64 887.131C1810.89 888.029 1812.58 897.631 1795.92 902.76C1790.52 904.421 1782 898.441 1772.94 889.612ZM1772.94 889.612C1758.21 893.243 1740.66 901.366 1726.19 918.869C1726.19 918.869 1760.38 924.776 1784.78 910.08C1770.58 919.392 1744.82 935.307 1736.03 942.01C1728.99 947.371 1720.9 953.766 1712.09 960.992C1712.09 961.001 1712.09 961.001 1712.09 961.001L1712.08 961.003C1712.08 961.005 1712.08 961.005 1712.08 961.005L1712.08 961.014M1669.23 998.88C1663.67 1003.93 1658.05 1009.12 1652.43 1014.44M1701.43 974.652C1701.43 974.652 1683.57 993.525 1655.26 1003.22C1626.95 1012.92 1591.08 1012.25 1591.08 1012.25C1591.08 1012.25 1590.34 993.22 1624.91 962.795C1659.47 932.37 1694.63 949.92 1700.72 954.929C1706.8 959.94 1705.75 965.196 1694.8 966.942C1683.84 968.688 1651.93 937.167 1644.38 915.331C1636.16 891.575 1635.68 866.022 1635.68 866.022C1635.68 866.022 1669.19 881.447 1695.5 909.767C1721.81 938.087 1710.76 957.156 1710.76 957.156L1710.75 957.148M1653.86 940.278C1653.86 940.278 1630.14 930.903 1621.3 933.002C1621.3 933.002 1592.35 869.264 1511.56 922.331C1511.56 922.331 1528.21 950.58 1563.79 950.031C1599.37 949.481 1612.78 932.496 1612.78 932.496C1612.78 932.496 1545.69 930.942 1539.93 922.623M1689.28 938.006C1689.28 938.006 1666.75 906.609 1663.11 902.523C1660.83 899.963 1649.6 902.909 1657.68 914.723C1666.67 927.882 1683.47 922.718 1683.47 922.718M1680.17 966.168C1680.17 966.168 1625.52 977.161 1614.93 993.552M1638.53 962.598C1638.53 962.598 1661.05 963.024 1671.36 974.798M1749.69 906.233C1749.69 906.233 1762.62 909.194 1774.18 906.798C1785.74 904.402 1785.74 904.402 1785.74 904.402M1808.86 885.036C1808.86 885.036 1786.5 855.359 1765.86 856.382M1827.53 900.632C1827.53 900.632 1822.4 927.148 1826.69 946.719C1830.98 966.289 1819.8 963.238 1817.59 950.8C1815.39 938.361 1829.45 929.932 1829.45 929.932M1816.71 902.055C1816.71 902.055 1828.44 906.642 1831.75 916.172M1729.83 1035.47C1729.83 1035.47 1734.47 1003.46 1771.96 995.474C1804.22 988.611 1820.84 1028.53 1815.61 1046.35C1812.5 1056.96 1802.97 1082.59 1761.85 1085.25M1551.1 915.973C1551.1 915.973 1572.68 918.319 1580.16 934.972M1797.06 864.385C1797.06 864.385 1780.91 874.254 1767.92 867.219M1706.04 1036.39C1700.17 1037.22 1692.73 1040.49 1687.85 1043.68C1666.02 1059.1 1656.28 1087.47 1666.99 1113.48C1669.91 1120.57 1675.21 1129.95 1681.73 1134.42C1719.31 1160.12 1754.72 1124.16 1757.75 1113.03C1759.07 1108.18 1763.93 1095.57 1761.73 1077.67C1761.73 1077.67 1758.85 1056.03 1741.73 1043.81C1725.01 1031.85 1706.04 1036.39 1706.04 1036.39ZM1575.83 1098.52C1575.83 1098.52 1575.3 1099.24 1574.31 1100.46C1553.02 1105.38 1549.13 1111.75 1549.13 1111.75C1543.58 1116.05 1537.89 1122.62 1533.3 1130.74C1527.68 1131.99 1521.9 1131.87 1516.24 1129.58C1505.92 1125.41 1499.03 1118.56 1494.48 1111.11C1486.56 1098.15 1485.43 1087.51 1486.24 1077.52C1487.28 1064.63 1496.89 1055.61 1496.89 1055.61C1510.34 1039.27 1541.24 1028.93 1561.98 1047.23C1582.71 1065.52 1575.83 1098.52 1575.83 1098.52ZM1505.72 1080.12C1508.57 1077.97 1508.33 1061.77 1516.34 1064.84C1524.34 1067.92 1525.05 1079.95 1521.97 1081.94C1518.89 1083.93 1512.36 1086.93 1511.51 1084.35C1510.65 1081.77 1512.49 1079.63 1513.71 1080.85C1514.93 1082.07 1517.32 1099.05 1513.11 1101.52C1508.91 1103.98 1498.79 1093.55 1501.82 1092.39C1504.85 1091.24 1505.38 1091.97 1505.7 1093.82C1506.03 1095.68 1499.24 1104.08 1494.52 1097.9C1489.8 1091.71 1494.24 1082.57 1498.14 1082.95C1502.05 1083.32 1505.72 1080.12 1505.72 1080.12ZM1708.62 1105.62C1711.01 1105.03 1709.83 1090.26 1717.34 1091.76C1724.84 1093.26 1726.3 1103.78 1724.61 1106.73C1722.91 1109.67 1718.8 1109.13 1719.49 1106.21C1720.18 1103.28 1738.05 1094.27 1739.64 1101.99C1741.23 1109.71 1735.91 1119.45 1729.48 1119.45C1723.04 1119.44 1721.73 1115.48 1718.98 1116.96C1716.23 1118.45 1722.11 1132 1712.27 1131.72C1702.43 1131.43 1701.63 1114.36 1704.19 1114.09C1706.76 1113.83 1708.06 1114.37 1708.31 1116.87C1708.55 1119.37 1704.62 1125.59 1695.29 1119.45C1685.95 1113.29 1692.62 1103.24 1697.3 1102.38C1701.96 1101.5 1702.35 1107.17 1708.62 1105.62ZM1574.27 1184.12C1576.69 1184.26 1579.48 1169.63 1586.22 1173.32C1592.96 1177.02 1591.57 1187.64 1589.18 1189.97C1586.79 1192.32 1583.01 1190.56 1584.45 1187.93C1585.88 1185.31 1605.25 1181.94 1604.72 1189.89C1604.19 1197.83 1596.56 1205.66 1590.44 1203.73C1584.32 1201.79 1584.13 1197.57 1581.11 1198.19C1578.1 1198.81 1580.11 1213.67 1570.84 1210.44C1561.56 1207.21 1565.3 1190.47 1567.81 1190.97C1570.33 1191.48 1571.42 1192.41 1570.99 1194.9C1570.56 1197.39 1565.18 1202.23 1557.93 1193.49C1550.68 1184.75 1559.68 1177.02 1564.35 1177.59C1569.02 1178.15 1567.91 1183.75 1574.27 1184.12ZM1778.83 1041.33C1785.67 1041.81 1779.25 1050.63 1784.12 1052.18C1787.54 1053.26 1791.96 1055.49 1790.72 1061.07C1789.74 1065.49 1778.14 1072.09 1772.31 1060.61C1769.3 1054.69 1778.5 1056.04 1778.24 1058.82C1778.01 1061.19 1774.41 1069.09 1769.9 1068.64C1765.39 1068.19 1761.03 1064.87 1762.95 1058.93C1764.26 1054.89 1769.06 1055.99 1769.9 1049.06C1770.63 1043.04 1772.98 1040.93 1778.83 1041.33ZM1607.8 1056.91C1611.47 1053.43 1614.38 1064.46 1616.23 1064.47C1619.09 1064.47 1620.07 1054.87 1624.23 1063.86C1628.4 1072.85 1621.61 1077.98 1619.46 1075.57C1617.32 1073.16 1619.4 1071.41 1620.15 1071.94C1620.91 1072.47 1625.9 1084.32 1620.99 1089.91C1616.08 1095.51 1607.7 1079.59 1609.87 1079.09C1612.04 1078.59 1615.4 1079.75 1612.48 1082.26C1609.56 1084.78 1604.42 1084 1604.12 1075.64C1603.82 1067.28 1608.66 1072.61 1609.28 1069.31C1609.91 1066 1603.24 1061.22 1607.8 1056.91Z" stroke="white" stroke-width="2" stroke-miterlimit="10"/>
<path d="M730.985 441.81C730.985 441.81 752.057 451.649 747.441 498.759C742.826 545.869 688.208 634.987 681.286 643.898C674.363 652.808 647.054 679.12 611.278 674.449C575.502 669.778 557.076 645.553 557.076 645.553M567.833 538.355C559.228 528.918 526.071 487.139 566.653 442.738C612.813 392.231 652.588 455.076 652.588 455.076M674.016 439.866C673.938 429.568 676.054 409.114 692.502 398.241M692.502 398.241C692.979 397.925 693.465 397.619 693.968 397.322C718.207 382.898 743.208 395.207 752.82 403.266C762.441 411.334 768.21 418.733 771.671 423.098C775.132 427.462 790.131 457.162 795.519 463.527C800.897 469.892 835.901 500.453 841.67 532.277C847.439 564.111 832.83 580.66 828.597 589.571C824.363 598.482 807.829 618.007 790.131 627.339C772.434 636.681 743.59 636.681 723.975 627.339C712.759 622.008 705.81 615.145 701.915 610.245M692.502 398.241C674.267 360.185 687.427 315 687.427 315M685.415 349.38C685.415 349.38 705.125 327.309 739.356 333.252C773.588 339.196 786.427 364.656 786.427 364.656C786.427 364.656 772.998 361.689 748.873 374.84C724.748 387.991 702.357 374.418 697.777 371.872C693.205 369.327 686.3 359.956 688.408 356.367C690.516 352.778 702.435 345.14 725.511 347.686C748.587 350.232 764.358 359.995 764.358 359.995M705.506 351.495C705.506 351.495 709.74 359.133 722.813 362.952C735.886 366.771 744.353 365.919 744.353 365.919M725.511 347.677C725.511 347.677 735.895 339.187 744.362 340.039M725.121 435.952C742.757 450.041 740.51 473.3 736.658 488.575C732.807 503.851 708.196 556.904 701.655 570.477C695.114 584.058 665.115 629.885 657.42 637.533C649.726 645.171 614.722 684.642 570.106 656.206C525.49 627.77 544.732 577.693 547.421 568.782C550.11 559.872 575.112 528.468 586.268 516.16C597.424 503.851 642.812 462.685 656.275 452.08C669.739 441.475 702.817 418.121 725.121 435.952ZM650.116 525.07C660.5 533.981 679.733 553.507 660.118 587.877C640.504 622.247 610.115 606.129 602.039 600.607C593.962 595.084 567.035 567.079 602.039 531.856C623.145 510.618 650.116 525.07 650.116 525.07Z" stroke="white" stroke-width="2" stroke-miterlimit="10"/>
<path d="M1748.01 370.166C1748.01 370.166 1768.83 343.544 1803.02 345.063C1837.2 346.581 1867.76 367.604 1877.23 402.479C1886.45 436.388 1877.93 466.208 1861.2 483.189C1844.97 499.641 1811.14 501.175 1811.14 501.175M1799.62 572.397C1799.62 572.397 1812.71 573.502 1820.69 593.735C1830.91 619.62 1807.2 645 1807.2 645C1807.98 628.679 1786.02 626.124 1768.69 617.458C1751.35 608.791 1756.45 582.767 1763.59 570.656C1770.73 558.545 1785.7 553.545 1794.61 557.265C1802.34 560.494 1796.05 574.299 1787.3 567.327C1774.28 556.95 1778.89 534.309 1837.01 518.279C1895.13 502.249 1914 565.418 1914 565.418C1914 565.418 1905.51 561 1885.79 565.755C1866.07 570.518 1870.49 575.273 1846.7 576.301C1822.9 577.321 1795.46 547.831 1795.46 547.831M1795.46 547.838C1795.46 547.838 1871.12 520.357 1882.58 540.836C1894.03 561.314 1826.63 530.535 1826.63 530.535M1775.14 578.219C1775.14 578.219 1799.11 603.414 1802.17 608.514C1805.22 613.615 1800.63 622.029 1794.77 618.209C1788.91 614.382 1795.46 583.557 1795.46 583.557M1834.32 548.206C1834.32 548.206 1846.77 550.829 1855.61 559.328M1604.97 394.119C1621.4 372.866 1658.9 353.799 1704.28 358.899C1749.65 363.999 1777.19 382.361 1795.03 414.498C1812.87 446.634 1810.32 510.908 1792.48 535.904C1774.64 560.908 1744.39 594.149 1685.69 591.971C1629.22 589.877 1586.38 553.046 1574.54 499.986C1564.02 452.862 1588.53 415.38 1604.97 394.119ZM1652.6 450.554C1648.24 452.249 1646.99 462.289 1652.6 463.815C1658.22 465.349 1665.69 461.775 1664.33 457.181C1662.97 452.594 1657.87 448.514 1652.6 450.554ZM1763.23 425.082C1765.24 421.24 1760.56 414.797 1755.95 417.65C1751.32 420.503 1748.25 427.452 1751.68 429.124C1755.13 430.796 1760.8 429.715 1763.23 425.082ZM1658.22 488.796C1656.38 492.723 1661.34 498.943 1665.83 495.883C1670.31 492.822 1673.07 485.743 1669.56 484.232C1666.06 482.721 1660.43 484.063 1658.22 488.796ZM1843.42 383.258C1841.72 384.608 1846.93 406.475 1841.32 408.078C1835.72 409.681 1835.12 403.392 1837.82 402.587C1840.52 401.789 1851.67 419.744 1854.03 419.023C1856.4 418.31 1853.14 394.349 1857.94 395.039C1862.74 395.722 1862.94 401.559 1859.94 401.904C1856.94 402.241 1845.13 381.909 1843.42 383.258ZM1737.75 392.731C1743.47 404.857 1707.35 480.995 1697.87 470.066C1688.4 459.144 1751.36 403.154 1763.7 405.877C1776.05 408.6 1801.24 461.338 1789.49 471.354C1777.75 481.371 1696.81 487.469 1698.23 478.856C1699.64 470.242 1777.75 470.94 1782.51 483.634C1787.27 496.327 1786.3 504.22 1779.32 519.329C1772.34 534.439 1764.12 554.296 1747.47 550.822C1730.84 547.347 1687.91 492.937 1697.6 486.909C1707.29 480.88 1733.91 544.755 1725.14 562.649C1717.84 577.567 1657.81 582.03 1652.19 559.404C1645.62 532.943 1681.72 484.209 1687.67 487.407C1693.62 490.606 1658.78 550.76 1632.27 548.206C1605.76 545.645 1593.26 499.081 1599.85 482.069C1606.43 465.057 1681.64 470.189 1683.34 478.234C1685.04 486.272 1604.49 466.492 1598.33 457.104C1592.16 447.716 1619.77 390.384 1645.4 394.219C1671.03 398.054 1698.4 467.435 1690.83 471.408C1683.25 475.381 1649.46 398.744 1665.85 383.78C1682.24 368.816 1729.89 376.033 1737.75 392.731Z" stroke="white" stroke-width="2" stroke-miterlimit="10"/>
<path d="M296.326 1037.76C296.326 1037.76 295.328 1000.07 320.166 987.866C345.005 975.657 348.982 976.758 348.982 976.758C348.982 976.758 353.945 987.866 350.965 992.103C347.985 996.352 346.058 990.978 346.058 989.985C346.058 988.991 352.018 979.044 367.288 979.044C382.558 979.044 390.569 987.208 390.569 987.208C390.569 987.208 390.378 995.562 386.099 999.345C386.099 999.345 392.249 991.181 402.12 991.78C402.12 991.78 415.9 1003.92 420.561 1012.87C420.561 1012.87 408.64 1030.59 387.398 1032.57C387.398 1032.57 398.198 1034.76 400.999 1037.74C400.999 1037.74 363.557 1052.27 356.107 1045.5C348.657 1038.72 359.457 1038.93 362.628 1042.32C365.798 1045.7 372.128 1055.45 372.128 1055.45C372.128 1055.45 341.767 1064 335.807 1048.87L337.487 1060.82C337.487 1060.82 308.795 1055.05 300.415 1045.3C292.035 1035.54 320.346 1021.01 334.877 1017.43C349.407 1013.85 377.909 1011.27 386.48 1013.05M288.875 1033.77C288.875 1033.77 274.344 1005.11 244.174 1002.33C244.174 1002.33 239.703 1012.27 245.664 1018.05C245.664 1018.05 234.864 996.759 197.971 1006.71C197.971 1006.71 204.681 1023.82 209.521 1023.43C214.361 1023.03 214.921 1015.86 209.712 1015.67C204.491 1015.47 182.42 1015.58 170.41 1029.4C170.41 1029.4 179.72 1036.97 187.17 1035.77C187.17 1035.77 173.39 1036.97 161.839 1068.41C161.839 1068.41 187.17 1079.95 200.962 1074.78C200.962 1074.78 196.122 1089.91 190.531 1090.7C190.531 1090.7 221.823 1089.5 225.363 1077.96C228.903 1066.42 217.353 1070.79 218.103 1074.38C218.854 1077.97 226.674 1090.7 226.674 1090.7C226.674 1090.7 247.165 1091.89 256.475 1074.78C256.475 1074.78 259.085 1085.53 254.615 1089.1C254.615 1089.1 292.617 1062.44 291.497 1041.74C290.377 1021.05 208.76 1044.15 199.976 1053.39M219.571 1023.03C219.571 1023.03 243.042 1029.8 242.303 1042.53M262.794 1042.53C262.794 1042.53 258.324 1059.65 237.832 1064.03M365.989 997.418C365.989 997.418 343.358 1005.39 341.453 1018.78M323.516 1028.2C323.516 1028.2 354.068 1032.19 369.338 1026.61M316.693 981.498C316.693 981.498 334.081 954.435 324.637 932.674C324.637 932.674 312.716 937.45 312.716 941.699C312.716 941.699 322.654 898.716 308.246 879.074C308.246 879.074 300.796 882.258 299.799 889.153C299.799 889.153 278.434 855.722 269.998 851.999C269.998 851.999 265.281 861.024 267.017 871.904C267.017 871.904 253.853 842.711 238.706 839C238.706 839 232.993 849.88 234.976 857.313C234.976 857.313 210.138 839.539 201.69 845.906C201.69 845.906 194.24 867.404 201.69 878.548C201.69 878.548 196.469 876.429 192.257 879.35C192.257 879.35 188.28 907.478 212.625 924.2C212.625 924.2 200.951 922.608 199.954 926.318C198.956 930.029 203.931 949.408 230.259 961.617C230.259 961.617 218.092 962.143 217.341 964.274C217.341 964.274 233.732 993.468 242.919 997.442M292.841 1017.59C292.841 1017.59 240.185 905.072 235.715 889.153C231.245 873.233 251.613 872.97 256.822 885.705C266.2 908.627 256.822 948.39 256.822 948.39M298.062 941.962C298.062 941.962 297.311 980.445 282.411 990.786M282.411 1067.21C282.411 1067.21 263.903 1088.3 266.144 1107.01C266.144 1107.01 282.904 1109.41 287.004 1104.22C287.004 1104.22 270.244 1114.58 270.614 1148.8C270.614 1148.8 281.044 1149.99 287.004 1141.63C287.004 1141.63 270.614 1157.94 284.394 1188.6C284.394 1188.6 295.933 1180.24 296.314 1171.48C296.314 1171.48 290.354 1191.78 310.106 1213.67C310.106 1213.67 316.436 1210.88 318.676 1200.94C318.676 1200.94 329.857 1220.44 346.618 1228C346.618 1228 363.378 1214.46 361.888 1185.41C361.888 1185.41 370.089 1190.99 377.909 1192.58C377.909 1192.58 388.339 1173.08 380.15 1147.6C380.15 1147.6 389.46 1154.77 393.56 1152.38C393.56 1152.38 387.6 1110.18 368.229 1102.22C368.229 1102.22 379.41 1103.42 381.64 1100.24C381.64 1100.24 369.674 1064.02 347.368 1060.83M298.062 1051.29C298.062 1051.29 314.979 1066.02 327.449 1114.58C339.918 1163.14 344.388 1177.86 339.548 1184.63C334.709 1191.41 322.037 1191 322.788 1180.65C323.539 1170.29 324.278 1130.89 338.439 1122.14M323.516 1076.37C323.516 1076.37 308.985 1087.12 305.636 1107.81C302.286 1128.51 303.395 1138.47 303.395 1138.47M332.838 951.778C332.838 951.778 342.529 928.425 364.129 918.215C364.129 918.215 370.089 920.609 370.84 934.996C370.84 934.996 382.021 904.019 408.091 901.625C434.173 899.231 438.643 906.401 438.643 906.401C438.643 906.401 451.684 931.13 438.643 926.462C425.602 921.794 446.844 908.795 458.014 909.585C469.183 910.375 501.976 920.202 518.367 941.962L510.916 959.737C510.916 959.737 531.038 951.778 536.998 953.37C542.958 954.961 572.759 995.036 575 1017.59C575 1017.59 552.649 1045.73 521.347 1046.52C521.347 1046.52 517.616 1057.65 524.327 1065.61C524.327 1065.61 458.137 1073.83 472.668 1059.5C487.199 1045.18 474.908 1082.59 479.625 1090.71C479.625 1090.71 437.523 1099.84 420.572 1082.33L414.051 1098.25C414.051 1098.25 391.409 1095.34 376.8 1076.36M540.717 1002.33C487.815 984.419 428.201 999.692 428.201 999.692C428.201 999.692 433.422 1032.17 477.384 1039.35M490.795 958.145C490.795 958.145 466.954 969.337 463.974 997.98M420.572 938.24C420.572 938.24 404.36 947.564 396.91 976.734M223.302 984.287C223.302 984.287 186.42 945.673 152.003 963.173L157.918 974.544C157.918 974.544 136.486 960.084 103.234 968.032C69.9825 975.98 69.243 993.216 69.243 993.216C69.243 993.216 80.8274 1014.88 85.4992 1003.63C90.1711 992.378 60.3699 1002.55 52.2474 1006.86C44.1137 1011.17 23.4322 1029.15 18.9956 1043.5C18.9956 1043.5 43.3855 1044.92 44.1249 1047.8C44.8644 1050.67 7.17599 1060.72 2 1098.44C2 1098.44 14.5591 1112.45 35.2518 1118.19C35.2518 1118.19 52.2474 1116.18 53.7263 1110C53.7263 1110 52.7404 1122.98 49.0432 1126.45C49.0432 1126.45 57.9052 1136.15 86.2387 1140.21C86.2387 1140.21 121.317 1131.35 110.785 1125.3C100.254 1119.26 108.298 1145.73 102.495 1153.14C102.495 1153.14 119.49 1166.07 153.975 1160.32C153.975 1160.32 170.231 1155.3 176.146 1143.33C176.146 1143.33 178.365 1158.17 176.393 1163.2C176.393 1163.2 231.816 1152.66 236.006 1123.92C240.196 1095.19 241.182 1128.71 241.182 1132.78C241.182 1132.78 267.286 1118.66 269.751 1104.28M156.238 1054.2C156.238 1054.2 82.2278 1054.73 29.5717 1092.95M50.9254 1039.35C50.9254 1039.35 100.109 1045.62 115.009 1067.43M152.765 1067.43C152.765 1067.43 149.292 1086.58 122.964 1112.59M117.989 1006.97C117.989 1006.97 131.893 1004.31 152.765 1006.97C173.626 1009.63 178.096 1016.49 178.096 1016.49" stroke="white" stroke-width="2" stroke-miterlimit="10"/>
<path d="M1275.44 383.29C1275.44 383.29 1273.07 379.774 1287.91 362.827C1302.74 345.881 1332.88 361.819 1332.88 361.819C1332.88 361.819 1310.32 343.316 1287.88 342.032C1265.44 340.748 1249.52 369.563 1246.91 377.529C1244.3 385.486 1250.78 383.753 1258.4 377.64C1266.03 371.527 1254.86 333.241 1254.86 333.241C1254.86 333.241 1241.6 350.547 1226.99 374.158C1212.38 397.769 1204.18 401.21 1198.04 407.254C1191.9 413.294 1178.85 418.161 1171.83 416.084C1164.81 414.007 1147.94 394.046 1120.94 392.082C1093.95 390.118 1071.25 400.411 1071.25 400.411C1071.25 400.411 1095.64 401.047 1107.82 407.565C1120 414.083 1117.35 425.597 1124.63 427.127C1131.91 428.657 1140.58 414.026 1128.39 414.799C1116.2 415.572 1082.29 413.962 1071.36 428.706C1060.43 443.449 1037.9 463.88 1019.62 464.726C1019.62 464.726 1061.26 466.281 1079.36 450.396C1097.47 434.511 1124.91 442.846 1124.91 442.846L1163.16 438.521C1163.16 438.521 1180.61 434.829 1177.06 409.912C1173.5 384.994 1175.77 364.754 1181.06 363.861L1197.22 366.38C1197.22 366.38 1184.97 377.258 1195.44 400.621C1205.92 423.985 1209.16 421.465 1209.16 421.465M1192.87 432.027C1207.61 425.94 1233.37 395.37 1262.03 385.701C1299.95 372.913 1350.37 392.014 1370.18 457.264C1388.42 517.352 1351.59 590.02 1268.97 617.96C1173.87 650.114 1107.89 629.301 1074.59 556.426C1048.87 500.114 1074.64 459.026 1102.69 447.808C1128.62 437.432 1165.11 443.487 1192.87 432.027ZM1132.14 460.896C1159.49 450.352 1182.35 458.799 1194.26 480.682C1201.62 494.205 1218.68 540.618 1223.8 556.152C1228.92 571.686 1232.48 597.951 1199.29 606.906C1169.05 615.061 1147.06 607.506 1127.21 586.042C1107.52 564.747 1087.64 527.582 1095.19 499.36C1102.75 471.138 1116.81 466.81 1132.14 460.896ZM1265.59 413.082C1280.76 407.97 1312.12 403.356 1325.03 426.888C1337.93 450.423 1352.28 495.611 1342.99 523.077C1333.71 550.552 1307.52 584.675 1271.6 571.031C1244.43 560.71 1220.38 462.789 1226.96 445.986C1236.4 421.891 1265.59 413.082 1265.59 413.082ZM1156.68 472.992C1152.71 475.096 1149.49 479.946 1157.09 488.396C1165.67 497.932 1173.62 497.879 1171.82 487.415C1169.67 474.892 1162.34 469.985 1156.68 472.992ZM1252.8 439.005C1248.29 439.618 1243.37 443.04 1247.12 453.488C1251.35 465.281 1258.77 467.92 1261.22 457.581C1264.15 445.184 1259.26 438.128 1252.8 439.005ZM1296.67 433.319C1292.31 432.04 1286.28 433.124 1284.72 444.032C1282.96 456.347 1288.38 461.737 1295.46 453.441C1303.96 443.481 1302.89 435.145 1296.67 433.319ZM1325.62 479.875C1325.75 475.639 1322.97 470.557 1311.23 472.186C1297.98 474.015 1293.9 480.343 1304.45 484.363C1317.11 489.183 1325.44 485.934 1325.62 479.875ZM1320.01 522.288C1322.5 518.741 1322.99 513.057 1312.07 508.749C1299.75 503.877 1292.7 507.289 1299.43 515.844C1307.5 526.093 1316.44 527.363 1320.01 522.288ZM1295.4 558.271C1299.26 556.021 1302.27 551.046 1294.3 542.89C1285.29 533.685 1277.36 534.053 1279.62 544.43C1282.33 556.875 1289.88 561.5 1295.4 558.271ZM1122.26 494.141C1119 497.107 1117.21 502.554 1126.86 508.956C1137.75 516.185 1145.43 514.268 1140.84 504.562C1135.36 492.943 1126.93 489.903 1122.26 494.141ZM1118.67 545.863C1119.52 550.022 1123.41 554.441 1134.5 550.543C1147.03 546.143 1149.57 539.156 1138.34 537.302C1124.86 535.084 1117.46 539.903 1118.67 545.863ZM1148.25 582.249C1151.69 585.032 1157.69 586.255 1163.79 576.823C1170.68 566.166 1168 559.221 1157.95 564.236C1145.91 570.238 1143.32 578.278 1148.25 582.249ZM1186.64 595.087C1190.71 597.002 1196.85 596.839 1200.29 586.314C1204.18 574.422 1199.77 568.292 1191.33 575.419C1181.21 583.959 1180.81 592.339 1186.64 595.087Z" stroke="white" stroke-width="2" stroke-miterlimit="10"/>
<path d="M1309 839.014C1309 839.014 1192.71 861.671 1056.44 945.244C920.174 1028.82 886.051 1093.99 886.051 1093.99M1188.73 871.449C1188.73 871.449 1173.91 859.84 1162.02 855.088C1150.14 850.335 1126.01 842.487 1119.98 839.75C1113.96 837.014 1091.53 816.803 1089.2 821.787C1086.87 826.771 1098.91 842.575 1107.64 845.922C1116.37 849.269 1122.44 850.298 1133.66 855.242C1144.88 860.186 1162.47 872.44 1165.7 873.15C1170.99 874.312 1173.51 869.06 1167.95 867.111C1162.38 865.161 1151.59 868.505 1144.96 868.604C1138.34 868.703 1066.99 860.857 1058.05 858.497C1049.11 856.138 1027.32 860.864 1055.65 869.669C1083.98 878.474 1127.33 875.011 1151.5 879.242C1175.66 883.484 1175.66 883.484 1175.66 883.484M1198.95 873.828C1198.84 874.144 1151.01 904.959 1125.78 937.486C1100.54 970.014 1131.91 942.66 1137.38 937.691C1142.85 932.724 1158.78 920.131 1173.28 908.254C1181.59 901.452 1189.91 896.567 1196.09 893.064M1196.09 893.064C1198.61 884.748 1198.29 880.006 1203.35 879.574C1209.24 879.079 1208.65 884.218 1205.48 887.282C1204.12 888.59 1200.69 890.447 1196.09 893.064ZM1196.09 893.064C1194.26 899.102 1192.37 906.369 1190.4 913.144C1188.62 919.316 1186.77 925.071 1184.86 929.123C1177.95 943.749 1143.29 982.072 1136.69 992.284C1130.1 1002.51 1102.47 1040.36 1106.41 1044C1110.35 1047.64 1119.57 1032.5 1123.18 1027.47C1126.22 1023.19 1175.73 958.534 1197.59 922.872M1197.59 922.872C1201.58 916.349 1204.65 910.808 1206.34 906.767C1213.31 890.126 1216.33 875.244 1217.61 866.647M1197.59 922.872C1195.74 928.214 1192.77 935.601 1188 945.324C1176.27 969.196 1141.11 1014.29 1138.02 1018.41C1134.93 1022.54 1121.23 1049.75 1144.59 1023C1167.95 996.242 1187.8 963.877 1192.84 955.032C1197.89 946.178 1204.48 935.964 1210.19 915.206C1215.9 894.458 1212.71 890.985 1212.71 890.985M1193.77 901.114C1193.77 901.114 1132.96 959.755 1124.52 977.142C1116.07 994.517 1108.93 1008.75 1132.06 981.599C1155.2 954.449 1169.91 935.734 1174.71 930.966C1179.51 926.198 1190.41 913.156 1190.41 913.156M1156.2 880.055C1143.44 886.278 1111.66 901.609 1098.42 906.513C1081.66 912.724 1057.72 923.113 1045.32 925.161C1032.91 927.208 1004.75 930.836 1036.41 919.733C1068.06 908.619 1097.55 897.368 1107.89 893.159C1111.53 891.681 1115.52 889.102 1119.34 886.618M1119.34 886.618C1126.36 882.051 1132.75 877.818 1135.17 881.42C1136.46 883.326 1129.5 885.059 1119.34 886.618ZM1119.34 886.618C1099.92 889.609 1068.79 891.957 1061.2 893.64C1049.63 896.197 1013.35 902.476 1000.79 903.775C988.237 905.073 970.163 907.166 970.163 907.166C970.163 907.166 938.406 905.53 970.026 897.516C1001.66 889.503 1084.89 880.046 1084.89 880.046L1102.42 876.039L1102.43 876.031M1095.69 973.515C1088.48 989.401 1075.8 1018.21 1063.6 1049.83C1045.17 1097.67 1049.84 1089.08 1038.45 1115.78C1027.06 1142.48 1029.83 1120.73 1032.29 1113.7C1034.74 1106.68 1040.66 1084.95 1045.55 1070.9C1048.2 1063.33 1056.67 1042.62 1065.61 1020.95M1095.69 973.515C1096.1 972.066 1096.54 970.529 1097.01 968.875C1106.09 936.833 1109.4 921.394 1109.4 921.394C1109.4 921.394 1095.71 927.948 1071.33 962.386C1046.95 996.836 1041.01 1011.33 1037.59 1018.48C1034.17 1025.63 1026.4 1054.53 1043.95 1024.05C1061.5 993.574 1076.5 972.78 1083.56 964.804C1085.86 962.206 1089 958.668 1092.02 954.961M1095.69 973.515C1087.99 1000.18 1088.11 994.607 1075.29 1033.53C1061.77 1074.56 1079.81 1041.78 1082.79 1035.22C1085.77 1028.67 1098.48 994.339 1105.37 966.629C1110.99 943.967 1115.81 919.239 1117.38 910.966M1065.61 1020.95C1065.61 1020.94 1065.61 1020.93 1065.61 1020.93M1065.61 1020.95C1060.32 1027.11 1052.55 1036.94 1046.09 1048.24C1035.14 1067.41 1027.68 1088.21 1010.62 1116.39C993.56 1144.57 1002.13 1119.29 1004.81 1112.67C1007.49 1106.04 1033.67 1049.96 1050.87 1025.95C1060.84 1012.02 1069.59 1002.92 1075.19 997.729M1065.61 1020.95C1065.61 1020.95 1065.62 1020.93 1065.61 1020.93M1065.61 1020.93C1068.83 1013.13 1072.11 1005.2 1075.19 997.729M1075.19 997.729L1075.19 997.719C1079.45 987.393 1083.35 977.917 1086.23 970.739C1088.68 964.634 1090.54 959.39 1092.02 954.961M1092.02 954.961C1097.01 939.911 1097.45 934.284 1100.9 936.666C1104.06 938.851 1098.28 947.27 1092.02 954.961ZM1066.7 939.046C1059.14 939.7 1045.75 940.914 1031.89 942.438L1031.88 942.436M1031.88 942.436C1020.42 943.69 1008.65 945.156 999.618 946.701C999.618 946.701 999.618 946.701 999.609 946.699M1031.88 942.436C1019.24 939.168 991.815 932.939 957.673 930.195C910.324 926.397 884.98 944.785 881.04 947.002C877.102 949.21 868.899 956.658 884.026 952.149C899.163 947.643 909.056 941.146 942.114 941.088C966.033 941.049 988.823 944.69 999.609 946.699M999.609 946.699C997.005 947.147 994.634 947.606 992.559 948.059C970.103 952.975 898.138 977.37 886.008 982.555C873.879 987.739 846.035 1009 889.674 993.364C933.322 977.729 955.95 970.554 963.584 967.223C965.367 966.455 969.937 965.405 975.868 964.186M975.868 964.186C985.209 962.255 997.908 959.891 1008.28 957.488M975.868 964.186C956.986 975.613 919.905 997.794 895.375 1010.84C861.264 1028.96 875.612 1032.55 901.864 1020.22C921.324 1011.09 978.506 973.873 1008.28 957.488M1008.28 957.488C1019.57 954.88 1028.12 952.221 1026.66 950.008C1025.72 948.583 1018.67 951.766 1008.28 957.488ZM1028.88 962.79C1027.45 971.818 1024.5 988.248 1020.29 1000.8C1014.17 1019.05 991.916 1094.97 982.009 1117.69C972.103 1140.41 966.508 1147.43 974.804 1116.06C983.099 1084.7 999.549 1038.83 1003.33 1025.56C1007.12 1012.3 1012.91 995.347 1012.91 995.347C1012.91 995.347 951.164 1091.26 947.722 1097.03C944.28 1102.8 915.584 1133.51 943.893 1087.56C972.194 1041.6 988.83 1015.4 1001.66 995.22C1007.35 986.254 1012.15 978.036 1015.72 971.666M940.349 1031.14C937.563 1052.22 929.762 1108.61 922.422 1135.74C913.303 1169.5 901.138 1205.67 899.698 1209.47C898.248 1213.28 881.331 1240.79 893.652 1205.35C905.972 1169.91 915.601 1146.94 922.799 1108.28C927.544 1082.75 930.851 1054.65 932.554 1038.5M925.531 1045.42C918.76 1043.14 901.32 1038.35 877.5 1039.87C846.551 1041.83 805.172 1048.34 781.883 1052.72C758.594 1057.11 755.657 1066.44 787.084 1060.78C818.51 1055.14 851.627 1051.93 866.121 1050.38C880.613 1048.83 897.237 1049.14 904.724 1049.45C909.547 1049.65 915.565 1050.98 919.238 1051.9C916.029 1065.42 885.185 1171.41 871.117 1198.89C857.039 1226.37 860.912 1208.3 863.066 1201.21C865.21 1194.12 874.415 1165.89 885.765 1136.43C897.118 1106.96 906.097 1073.86 906.574 1070.18C906.811 1068.37 906.48 1067.71 904.949 1067.87C903.385 1068.01 900.565 1069.02 895.799 1070.51C891.863 1071.73 885.491 1073.77 877.932 1076.31M877.932 1076.31C867.436 1079.83 854.671 1084.32 843.065 1088.92C823.113 1096.81 798.031 1106.64 769.117 1126.98C740.203 1147.31 751.509 1131.27 764.537 1120.44C777.565 1109.6 792.479 1100.22 819.54 1088.53C846.602 1076.83 882.556 1064.76 894.789 1062.01C900.905 1060.64 907.346 1059.87 912.287 1059.43M877.932 1076.31C869.842 1084.02 856.381 1096.48 846.113 1104.06C830.402 1115.66 806.058 1130.84 789.555 1144.68C773.062 1158.52 757.201 1181.11 755.13 1183.4C753.068 1185.68 744.294 1206.08 761.56 1188.64C778.838 1171.18 777.269 1171.17 796.563 1153.15C809.786 1140.78 840.592 1117.89 865.547 1100.62M893.927 1081.93C887.21 1085.93 876.998 1092.68 865.547 1100.62M865.547 1100.62C857.204 1109.77 846.815 1122.46 838.115 1136.96C820.368 1166.53 803.39 1199.1 789.485 1230.19C775.58 1261.27 795.379 1237.93 798.496 1232.22C801.603 1226.51 812.259 1201.8 832.114 1164.95C843.173 1144.44 860.316 1126.96 871.971 1114.76M871.971 1114.76C874.707 1104.21 877.052 1093.4 883.546 1096.84C887.057 1098.7 881.247 1105.05 871.971 1114.76ZM871.971 1114.76C871.369 1117.08 870.752 1119.38 870.068 1121.52C866.26 1133.41 859.495 1153.22 851.849 1169.06C844.204 1184.9 834.748 1199.64 821.298 1222.77C807.84 1245.91 821.587 1233.17 825.783 1228.26C829.986 1223.36 839.428 1213.09 858.119 1172.89C876.81 1132.68 889.951 1094.87 889.951 1094.87" stroke="white" stroke-width="2" stroke-miterlimit="10"/>
</svg>
